<?xml version="1.0" encoding="UTF-8" standalone="no"?>
<!DOCTYPE svg PUBLIC "-//W3C//DTD SVG 1.1//EN"
 "http://www.w3.org/Graphics/SVG/1.1/DTD/svg11.dtd">
<!-- Generated by graphviz version 2.43.0 (0)
 -->
<!-- Title: src/Devices/Xilinx/UltraScalePlus/XilinxUltraScalePlus.cpp Pages: 1 -->
<svg width="1017pt" height="162pt"
 viewBox="0.00 0.00 1017.00 162.00" xmlns="http://www.w3.org/2000/svg" xmlns:xlink="http://www.w3.org/1999/xlink">
<g id="graph0" class="graph" transform="scale(1 1) rotate(0) translate(4 158)">
<title>src/Devices/Xilinx/UltraScalePlus/XilinxUltraScalePlus.cpp</title>
<polygon fill="white" stroke="transparent" points="-4,4 -4,-158 1013,-158 1013,4 -4,4"/>
<!-- Node1 -->
<g id="node1" class="node">
<title>Node1</title>
<g id="a_node1"><a xlink:title=" ">
<polygon fill="#bfbfbf" stroke="black" points="599.5,-112.5 599.5,-153.5 744.5,-153.5 744.5,-112.5 599.5,-112.5"/>
<text text-anchor="start" x="607.5" y="-141.5" font-family="Helvetica,sans-Serif" font-size="10.00">src/Devices/Xilinx</text>
<text text-anchor="start" x="607.5" y="-130.5" font-family="Helvetica,sans-Serif" font-size="10.00">/UltraScalePlus/XilinxUltra</text>
<text text-anchor="middle" x="672" y="-119.5" font-family="Helvetica,sans-Serif" font-size="10.00">ScalePlus.cpp</text>
</a>
</g>
</g>
<!-- Node2 -->
<g id="node2" class="node">
<title>Node2</title>
<g id="a_node2"><a xlink:href="_xilinx_ultra_scale_plus_8h.html" target="_top" xlink:title=" ">
<polygon fill="white" stroke="black" points="94,-56.5 94,-75.5 218,-75.5 218,-56.5 94,-56.5"/>
<text text-anchor="middle" x="156" y="-63.5" font-family="Helvetica,sans-Serif" font-size="10.00">XilinxUltraScalePlus.h</text>
</a>
</g>
</g>
<!-- Node1&#45;&gt;Node2 -->
<g id="edge1" class="edge">
<title>Node1&#45;&gt;Node2</title>
<path fill="none" stroke="midnightblue" d="M599.44,-122.86C501.05,-110.46 326.36,-88.46 228.17,-76.09"/>
<polygon fill="midnightblue" stroke="midnightblue" points="228.4,-72.59 218.04,-74.82 227.52,-79.54 228.4,-72.59"/>
</g>
<!-- Node7 -->
<g id="node7" class="node">
<title>Node7</title>
<g id="a_node7"><a xlink:href="_xilinx_ultra_scale_plus_c_a_p_8h.html" target="_top" xlink:title=" ">
<polygon fill="white" stroke="black" points="244,-56.5 244,-75.5 386,-75.5 386,-56.5 244,-56.5"/>
<text text-anchor="middle" x="315" y="-63.5" font-family="Helvetica,sans-Serif" font-size="10.00">XilinxUltraScalePlusCAP.h</text>
</a>
</g>
</g>
<!-- Node1&#45;&gt;Node7 -->
<g id="edge6" class="edge">
<title>Node1&#45;&gt;Node7</title>
<path fill="none" stroke="midnightblue" d="M599.33,-118.77C532.02,-106.51 433.31,-88.54 371.67,-77.32"/>
<polygon fill="midnightblue" stroke="midnightblue" points="372.19,-73.86 361.73,-75.51 370.94,-80.74 372.19,-73.86"/>
</g>
<!-- Node8 -->
<g id="node8" class="node">
<title>Node8</title>
<g id="a_node8"><a xlink:href="file_i_o_8h.html" target="_top" xlink:title=" ">
<polygon fill="white" stroke="black" points="404.5,-56.5 404.5,-75.5 529.5,-75.5 529.5,-56.5 404.5,-56.5"/>
<text text-anchor="middle" x="467" y="-63.5" font-family="Helvetica,sans-Serif" font-size="10.00">../../../Common/fileIO.h</text>
</a>
</g>
</g>
<!-- Node1&#45;&gt;Node8 -->
<g id="edge7" class="edge">
<title>Node1&#45;&gt;Node8</title>
<path fill="none" stroke="midnightblue" d="M610.49,-112.5C575.63,-101.44 533.2,-87.99 503.55,-78.59"/>
<polygon fill="midnightblue" stroke="midnightblue" points="504.61,-75.25 494.02,-75.57 502.49,-81.93 504.61,-75.25"/>
</g>
<!-- Node10 -->
<g id="node10" class="node">
<title>Node10</title>
<g id="a_node10"><a xlink:title=" ">
<polygon fill="white" stroke="#bfbfbf" points="530.5,-0.5 530.5,-19.5 585.5,-19.5 585.5,-0.5 530.5,-0.5"/>
<text text-anchor="middle" x="558" y="-7.5" font-family="Helvetica,sans-Serif" font-size="10.00">fstream</text>
</a>
</g>
</g>
<!-- Node1&#45;&gt;Node10 -->
<g id="edge17" class="edge">
<title>Node1&#45;&gt;Node10</title>
<path fill="none" stroke="midnightblue" d="M623.25,-112.32C606.51,-103.43 588.99,-91.41 577,-76 566.63,-62.67 561.92,-43.84 559.78,-29.88"/>
<polygon fill="midnightblue" stroke="midnightblue" points="563.25,-29.42 558.55,-19.92 556.3,-30.27 563.25,-29.42"/>
</g>
<!-- Node12 -->
<g id="node12" class="node">
<title>Node12</title>
<g id="a_node12"><a xlink:href="byteman_8h.html" target="_top" xlink:title=" ">
<polygon fill="white" stroke="black" points="586,-56.5 586,-75.5 682,-75.5 682,-56.5 586,-56.5"/>
<text text-anchor="middle" x="634" y="-63.5" font-family="Helvetica,sans-Serif" font-size="10.00">../../../byteman.h</text>
</a>
</g>
</g>
<!-- Node1&#45;&gt;Node12 -->
<g id="edge11" class="edge">
<title>Node1&#45;&gt;Node12</title>
<path fill="none" stroke="midnightblue" d="M660.6,-112.5C655.39,-103.59 649.27,-93.11 644.21,-84.46"/>
<polygon fill="midnightblue" stroke="midnightblue" points="647.13,-82.52 639.06,-75.65 641.08,-86.05 647.13,-82.52"/>
</g>
<!-- Node13 -->
<g id="node13" class="node">
<title>Node13</title>
<g id="a_node13"><a xlink:title=" ">
<polygon fill="white" stroke="#bfbfbf" points="642,-0.5 642,-19.5 702,-19.5 702,-0.5 642,-0.5"/>
<text text-anchor="middle" x="672" y="-7.5" font-family="Helvetica,sans-Serif" font-size="10.00">iostream</text>
</a>
</g>
</g>
<!-- Node1&#45;&gt;Node13 -->
<g id="edge13" class="edge">
<title>Node1&#45;&gt;Node13</title>
<path fill="none" stroke="midnightblue" d="M681.83,-112.43C688.3,-97.14 694.91,-75.33 691,-56 689.11,-46.65 685.21,-36.83 681.43,-28.75"/>
<polygon fill="midnightblue" stroke="midnightblue" points="684.47,-27.01 676.88,-19.63 678.21,-30.14 684.47,-27.01"/>
</g>
<!-- Node14 -->
<g id="node14" class="node">
<title>Node14</title>
<g id="a_node14"><a xlink:title=" ">
<polygon fill="white" stroke="#bfbfbf" points="738,-56.5 738,-75.5 788,-75.5 788,-56.5 738,-56.5"/>
<text text-anchor="middle" x="763" y="-63.5" font-family="Helvetica,sans-Serif" font-size="10.00">stdio.h</text>
</a>
</g>
</g>
<!-- Node1&#45;&gt;Node14 -->
<g id="edge14" class="edge">
<title>Node1&#45;&gt;Node14</title>
<path fill="none" stroke="midnightblue" d="M699.3,-112.5C713.26,-102.53 729.94,-90.61 742.73,-81.48"/>
<polygon fill="midnightblue" stroke="midnightblue" points="744.78,-84.31 750.89,-75.65 740.71,-78.62 744.78,-84.31"/>
</g>
<!-- Node15 -->
<g id="node15" class="node">
<title>Node15</title>
<g id="a_node15"><a xlink:title=" ">
<polygon fill="white" stroke="#bfbfbf" points="806.5,-56.5 806.5,-75.5 859.5,-75.5 859.5,-56.5 806.5,-56.5"/>
<text text-anchor="middle" x="833" y="-63.5" font-family="Helvetica,sans-Serif" font-size="10.00">string.h</text>
</a>
</g>
</g>
<!-- Node1&#45;&gt;Node15 -->
<g id="edge15" class="edge">
<title>Node1&#45;&gt;Node15</title>
<path fill="none" stroke="midnightblue" d="M720.31,-112.5C746.89,-101.77 779.08,-88.77 802.24,-79.42"/>
<polygon fill="midnightblue" stroke="midnightblue" points="803.61,-82.64 811.57,-75.65 800.99,-76.15 803.61,-82.64"/>
</g>
<!-- Node16 -->
<g id="node16" class="node">
<title>Node16</title>
<g id="a_node16"><a xlink:title=" ">
<polygon fill="white" stroke="#bfbfbf" points="877.5,-56.5 877.5,-75.5 942.5,-75.5 942.5,-56.5 877.5,-56.5"/>
<text text-anchor="middle" x="910" y="-63.5" font-family="Helvetica,sans-Serif" font-size="10.00">stdexcept</text>
</a>
</g>
</g>
<!-- Node1&#45;&gt;Node16 -->
<g id="edge16" class="edge">
<title>Node1&#45;&gt;Node16</title>
<path fill="none" stroke="midnightblue" d="M743.41,-112.5C784.41,-101.3 834.43,-87.64 868.9,-78.22"/>
<polygon fill="midnightblue" stroke="midnightblue" points="869.91,-81.58 878.63,-75.57 868.06,-74.83 869.91,-81.58"/>
</g>
<!-- Node17 -->
<g id="node17" class="node">
<title>Node17</title>
<g id="a_node17"><a xlink:title=" ">
<polygon fill="white" stroke="#bfbfbf" points="961,-56.5 961,-75.5 1009,-75.5 1009,-56.5 961,-56.5"/>
<text text-anchor="middle" x="985" y="-63.5" font-family="Helvetica,sans-Serif" font-size="10.00">time.h</text>
</a>
</g>
</g>
<!-- Node1&#45;&gt;Node17 -->
<g id="edge18" class="edge">
<title>Node1&#45;&gt;Node17</title>
<path fill="none" stroke="midnightblue" d="M744.52,-118.91C798.79,-108.8 875.03,-93.89 950.71,-76.18"/>
<polygon fill="midnightblue" stroke="midnightblue" points="951.97,-79.48 960.9,-73.78 950.36,-72.67 951.97,-79.48"/>
</g>
<!-- Node3 -->
<g id="node3" class="node">
<title>Node3</title>
<g id="a_node3"><a xlink:title=" ">
<polygon fill="white" stroke="#bfbfbf" points="0,-0.5 0,-19.5 50,-19.5 50,-0.5 0,-0.5"/>
<text text-anchor="middle" x="25" y="-7.5" font-family="Helvetica,sans-Serif" font-size="10.00">cstdint</text>
</a>
</g>
</g>
<!-- Node2&#45;&gt;Node3 -->
<g id="edge2" class="edge">
<title>Node2&#45;&gt;Node3</title>
<path fill="none" stroke="midnightblue" d="M135.24,-56.44C113.68,-47.56 79.74,-33.56 55.21,-23.45"/>
<polygon fill="midnightblue" stroke="midnightblue" points="56.24,-20.09 45.66,-19.52 53.57,-26.56 56.24,-20.09"/>
</g>
<!-- Node4 -->
<g id="node4" class="node">
<title>Node4</title>
<g id="a_node4"><a xlink:title=" ">
<polygon fill="white" stroke="#bfbfbf" points="68.5,-0.5 68.5,-19.5 115.5,-19.5 115.5,-0.5 68.5,-0.5"/>
<text text-anchor="middle" x="92" y="-7.5" font-family="Helvetica,sans-Serif" font-size="10.00">vector</text>
</a>
</g>
</g>
<!-- Node2&#45;&gt;Node4 -->
<g id="edge3" class="edge">
<title>Node2&#45;&gt;Node4</title>
<path fill="none" stroke="midnightblue" d="M145.72,-56.32C136.16,-48.26 121.72,-36.08 110.22,-26.37"/>
<polygon fill="midnightblue" stroke="midnightblue" points="112.37,-23.61 102.47,-19.83 107.86,-28.96 112.37,-23.61"/>
</g>
<!-- Node5 -->
<g id="node5" class="node">
<title>Node5</title>
<g id="a_node5"><a xlink:title=" ">
<polygon fill="white" stroke="#bfbfbf" points="134,-0.5 134,-19.5 178,-19.5 178,-0.5 134,-0.5"/>
<text text-anchor="middle" x="156" y="-7.5" font-family="Helvetica,sans-Serif" font-size="10.00">string</text>
</a>
</g>
</g>
<!-- Node2&#45;&gt;Node5 -->
<g id="edge4" class="edge">
<title>Node2&#45;&gt;Node5</title>
<path fill="none" stroke="midnightblue" d="M156,-56.08C156,-49.01 156,-38.86 156,-29.99"/>
<polygon fill="midnightblue" stroke="midnightblue" points="159.5,-29.75 156,-19.75 152.5,-29.75 159.5,-29.75"/>
</g>
<!-- Node6 -->
<g id="node6" class="node">
<title>Node6</title>
<g id="a_node6"><a xlink:href="_xilinx_ultra_scale_plus_fabric_8h.html" target="_top" xlink:title=" ">
<polygon fill="white" stroke="black" points="196,-0.5 196,-19.5 348,-19.5 348,-0.5 196,-0.5"/>
<text text-anchor="middle" x="272" y="-7.5" font-family="Helvetica,sans-Serif" font-size="10.00">XilinxUltraScalePlusFabric.h</text>
</a>
</g>
</g>
<!-- Node2&#45;&gt;Node6 -->
<g id="edge5" class="edge">
<title>Node2&#45;&gt;Node6</title>
<path fill="none" stroke="midnightblue" d="M174.38,-56.44C193.22,-47.68 222.73,-33.94 244.38,-23.86"/>
<polygon fill="midnightblue" stroke="midnightblue" points="246.12,-26.91 253.71,-19.52 243.16,-20.56 246.12,-26.91"/>
</g>
<!-- Node9 -->
<g id="node9" class="node">
<title>Node9</title>
<g id="a_node9"><a xlink:title=" ">
<polygon fill="white" stroke="#bfbfbf" points="366.5,-0.5 366.5,-19.5 419.5,-19.5 419.5,-0.5 366.5,-0.5"/>
<text text-anchor="middle" x="393" y="-7.5" font-family="Helvetica,sans-Serif" font-size="10.00">stdint.h</text>
</a>
</g>
</g>
<!-- Node8&#45;&gt;Node9 -->
<g id="edge8" class="edge">
<title>Node8&#45;&gt;Node9</title>
<path fill="none" stroke="midnightblue" d="M455.11,-56.32C443.85,-48.11 426.71,-35.6 413.29,-25.81"/>
<polygon fill="midnightblue" stroke="midnightblue" points="415.25,-22.9 405.11,-19.83 411.12,-28.56 415.25,-22.9"/>
</g>
<!-- Node8&#45;&gt;Node10 -->
<g id="edge9" class="edge">
<title>Node8&#45;&gt;Node10</title>
<path fill="none" stroke="midnightblue" d="M481.62,-56.32C495.95,-47.82 518.01,-34.73 534.75,-24.8"/>
<polygon fill="midnightblue" stroke="midnightblue" points="536.6,-27.77 543.42,-19.65 533.03,-21.75 536.6,-27.77"/>
</g>
<!-- Node11 -->
<g id="node11" class="node">
<title>Node11</title>
<g id="a_node11"><a xlink:href="endianess_8h.html" target="_top" xlink:title=" ">
<polygon fill="white" stroke="black" points="437.5,-0.5 437.5,-19.5 512.5,-19.5 512.5,-0.5 437.5,-0.5"/>
<text text-anchor="middle" x="475" y="-7.5" font-family="Helvetica,sans-Serif" font-size="10.00">endianess.h</text>
</a>
</g>
</g>
<!-- Node8&#45;&gt;Node11 -->
<g id="edge10" class="edge">
<title>Node8&#45;&gt;Node11</title>
<path fill="none" stroke="midnightblue" d="M468.32,-56.08C469.38,-48.93 470.91,-38.64 472.23,-29.69"/>
<polygon fill="midnightblue" stroke="midnightblue" points="475.7,-30.16 473.7,-19.75 468.78,-29.13 475.7,-30.16"/>
</g>
<!-- Node12&#45;&gt;Node13 -->
<g id="edge12" class="edge">
<title>Node12&#45;&gt;Node13</title>
<path fill="none" stroke="midnightblue" d="M640.27,-56.08C645.64,-48.46 653.52,-37.26 660.08,-27.94"/>
<polygon fill="midnightblue" stroke="midnightblue" points="662.95,-29.94 665.84,-19.75 657.22,-25.91 662.95,-29.94"/>
</g>
</g>
</svg>
