<?xml version="1.0" encoding="UTF-8" standalone="no"?>
<!DOCTYPE svg PUBLIC "-//W3C//DTD SVG 1.1//EN"
 "http://www.w3.org/Graphics/SVG/1.1/DTD/svg11.dtd">
<!-- Generated by graphviz version 2.43.0 (0)
 -->
<!-- Title: src/Devices/Xilinx/UltraScalePlus/XilinxUltraScalePlusDevices.cpp Pages: 1 -->
<svg width="691pt" height="162pt"
 viewBox="0.00 0.00 691.00 162.00" xmlns="http://www.w3.org/2000/svg" xmlns:xlink="http://www.w3.org/1999/xlink">
<g id="graph0" class="graph" transform="scale(1 1) rotate(0) translate(4 158)">
<title>src/Devices/Xilinx/UltraScalePlus/XilinxUltraScalePlusDevices.cpp</title>
<polygon fill="white" stroke="transparent" points="-4,4 -4,-158 687,-158 687,4 -4,4"/>
<!-- Node1 -->
<g id="node1" class="node">
<title>Node1</title>
<g id="a_node1"><a xlink:title=" ">
<polygon fill="#bfbfbf" stroke="black" points="346.5,-112.5 346.5,-153.5 491.5,-153.5 491.5,-112.5 346.5,-112.5"/>
<text text-anchor="start" x="354.5" y="-141.5" font-family="Helvetica,sans-Serif" font-size="10.00">src/Devices/Xilinx</text>
<text text-anchor="start" x="354.5" y="-130.5" font-family="Helvetica,sans-Serif" font-size="10.00">/UltraScalePlus/XilinxUltra</text>
<text text-anchor="middle" x="419" y="-119.5" font-family="Helvetica,sans-Serif" font-size="10.00">ScalePlusDevices.cpp</text>
</a>
</g>
</g>
<!-- Node2 -->
<g id="node2" class="node">
<title>Node2</title>
<g id="a_node2"><a xlink:href="_xilinx_ultra_scale_plus_8h.html" target="_top" xlink:title=" ">
<polygon fill="white" stroke="black" points="27,-56.5 27,-75.5 151,-75.5 151,-56.5 27,-56.5"/>
<text text-anchor="middle" x="89" y="-63.5" font-family="Helvetica,sans-Serif" font-size="10.00">XilinxUltraScalePlus.h</text>
</a>
</g>
</g>
<!-- Node1&#45;&gt;Node2 -->
<g id="edge1" class="edge">
<title>Node1&#45;&gt;Node2</title>
<path fill="none" stroke="midnightblue" d="M346.17,-117.66C284.52,-105.51 197.6,-88.39 142.28,-77.49"/>
<polygon fill="midnightblue" stroke="midnightblue" points="142.82,-74.03 132.33,-75.54 141.47,-80.9 142.82,-74.03"/>
</g>
<!-- Node5 -->
<g id="node5" class="node">
<title>Node5</title>
<g id="a_node5"><a xlink:title=" ">
<polygon fill="white" stroke="#bfbfbf" points="144,-0.5 144,-19.5 188,-19.5 188,-0.5 144,-0.5"/>
<text text-anchor="middle" x="166" y="-7.5" font-family="Helvetica,sans-Serif" font-size="10.00">string</text>
</a>
</g>
</g>
<!-- Node1&#45;&gt;Node5 -->
<g id="edge10" class="edge">
<title>Node1&#45;&gt;Node5</title>
<path fill="none" stroke="midnightblue" d="M346.37,-128.64C299.88,-123.11 240.69,-109.38 199,-76 184.36,-64.28 175.61,-44.34 170.84,-29.63"/>
<polygon fill="midnightblue" stroke="midnightblue" points="174.08,-28.25 167.93,-19.62 167.36,-30.2 174.08,-28.25"/>
</g>
<!-- Node7 -->
<g id="node7" class="node">
<title>Node7</title>
<g id="a_node7"><a xlink:href="_xilinx_ultra_scale_plus_devices_8h.html" target="_top" xlink:title=" ">
<polygon fill="white" stroke="black" points="207.5,-56.5 207.5,-75.5 370.5,-75.5 370.5,-56.5 207.5,-56.5"/>
<text text-anchor="middle" x="289" y="-63.5" font-family="Helvetica,sans-Serif" font-size="10.00">XilinxUltraScalePlusDevices.h</text>
</a>
</g>
</g>
<!-- Node1&#45;&gt;Node7 -->
<g id="edge6" class="edge">
<title>Node1&#45;&gt;Node7</title>
<path fill="none" stroke="midnightblue" d="M380,-112.5C359.11,-102.05 333.93,-89.46 315.36,-80.18"/>
<polygon fill="midnightblue" stroke="midnightblue" points="316.81,-76.99 306.3,-75.65 313.68,-83.26 316.81,-76.99"/>
</g>
<!-- Node8 -->
<g id="node8" class="node">
<title>Node8</title>
<g id="a_node8"><a xlink:title=" ">
<polygon fill="white" stroke="#bfbfbf" points="389,-56.5 389,-75.5 449,-75.5 449,-56.5 389,-56.5"/>
<text text-anchor="middle" x="419" y="-63.5" font-family="Helvetica,sans-Serif" font-size="10.00">iostream</text>
</a>
</g>
</g>
<!-- Node1&#45;&gt;Node8 -->
<g id="edge8" class="edge">
<title>Node1&#45;&gt;Node8</title>
<path fill="none" stroke="midnightblue" d="M419,-112.5C419,-104.07 419,-94.24 419,-85.87"/>
<polygon fill="midnightblue" stroke="midnightblue" points="422.5,-85.65 419,-75.65 415.5,-85.65 422.5,-85.65"/>
</g>
<!-- Node9 -->
<g id="node9" class="node">
<title>Node9</title>
<g id="a_node9"><a xlink:title=" ">
<polygon fill="white" stroke="#bfbfbf" points="467,-56.5 467,-75.5 531,-75.5 531,-56.5 467,-56.5"/>
<text text-anchor="middle" x="499" y="-63.5" font-family="Helvetica,sans-Serif" font-size="10.00">algorithm</text>
</a>
</g>
</g>
<!-- Node1&#45;&gt;Node9 -->
<g id="edge9" class="edge">
<title>Node1&#45;&gt;Node9</title>
<path fill="none" stroke="midnightblue" d="M443,-112.5C455.03,-102.72 469.37,-91.07 480.53,-82.01"/>
<polygon fill="midnightblue" stroke="midnightblue" points="482.8,-84.67 488.35,-75.65 478.38,-79.24 482.8,-84.67"/>
</g>
<!-- Node10 -->
<g id="node10" class="node">
<title>Node10</title>
<g id="a_node10"><a xlink:title=" ">
<polygon fill="white" stroke="#bfbfbf" points="549.5,-56.5 549.5,-75.5 614.5,-75.5 614.5,-56.5 549.5,-56.5"/>
<text text-anchor="middle" x="582" y="-63.5" font-family="Helvetica,sans-Serif" font-size="10.00">stdexcept</text>
</a>
</g>
</g>
<!-- Node1&#45;&gt;Node10 -->
<g id="edge11" class="edge">
<title>Node1&#45;&gt;Node10</title>
<path fill="none" stroke="midnightblue" d="M467.91,-112.5C494.82,-101.77 527.41,-88.77 550.86,-79.42"/>
<polygon fill="midnightblue" stroke="midnightblue" points="552.31,-82.61 560.3,-75.65 549.72,-76.11 552.31,-82.61"/>
</g>
<!-- Node11 -->
<g id="node11" class="node">
<title>Node11</title>
<g id="a_node11"><a xlink:title=" ">
<polygon fill="white" stroke="#bfbfbf" points="633,-56.5 633,-75.5 683,-75.5 683,-56.5 633,-56.5"/>
<text text-anchor="middle" x="658" y="-63.5" font-family="Helvetica,sans-Serif" font-size="10.00">cstring</text>
</a>
</g>
</g>
<!-- Node1&#45;&gt;Node11 -->
<g id="edge12" class="edge">
<title>Node1&#45;&gt;Node11</title>
<path fill="none" stroke="midnightblue" d="M490.71,-112.5C534.32,-100.64 588.1,-86.01 622.71,-76.6"/>
<polygon fill="midnightblue" stroke="midnightblue" points="624.08,-79.85 632.81,-73.85 622.24,-73.1 624.08,-79.85"/>
</g>
<!-- Node3 -->
<g id="node3" class="node">
<title>Node3</title>
<g id="a_node3"><a xlink:title=" ">
<polygon fill="white" stroke="#bfbfbf" points="0,-0.5 0,-19.5 50,-19.5 50,-0.5 0,-0.5"/>
<text text-anchor="middle" x="25" y="-7.5" font-family="Helvetica,sans-Serif" font-size="10.00">cstdint</text>
</a>
</g>
</g>
<!-- Node2&#45;&gt;Node3 -->
<g id="edge2" class="edge">
<title>Node2&#45;&gt;Node3</title>
<path fill="none" stroke="midnightblue" d="M78.72,-56.32C69.16,-48.26 54.72,-36.08 43.22,-26.37"/>
<polygon fill="midnightblue" stroke="midnightblue" points="45.37,-23.61 35.47,-19.83 40.86,-28.96 45.37,-23.61"/>
</g>
<!-- Node4 -->
<g id="node4" class="node">
<title>Node4</title>
<g id="a_node4"><a xlink:title=" ">
<polygon fill="white" stroke="#bfbfbf" points="68.5,-0.5 68.5,-19.5 115.5,-19.5 115.5,-0.5 68.5,-0.5"/>
<text text-anchor="middle" x="92" y="-7.5" font-family="Helvetica,sans-Serif" font-size="10.00">vector</text>
</a>
</g>
</g>
<!-- Node2&#45;&gt;Node4 -->
<g id="edge3" class="edge">
<title>Node2&#45;&gt;Node4</title>
<path fill="none" stroke="midnightblue" d="M89.5,-56.08C89.89,-49.01 90.45,-38.86 90.95,-29.99"/>
<polygon fill="midnightblue" stroke="midnightblue" points="94.45,-29.93 91.51,-19.75 87.46,-29.54 94.45,-29.93"/>
</g>
<!-- Node2&#45;&gt;Node5 -->
<g id="edge4" class="edge">
<title>Node2&#45;&gt;Node5</title>
<path fill="none" stroke="midnightblue" d="M101.37,-56.32C113.16,-48.06 131.13,-35.45 145.14,-25.63"/>
<polygon fill="midnightblue" stroke="midnightblue" points="147.48,-28.26 153.66,-19.65 143.46,-22.53 147.48,-28.26"/>
</g>
<!-- Node6 -->
<g id="node6" class="node">
<title>Node6</title>
<g id="a_node6"><a xlink:href="_xilinx_ultra_scale_plus_fabric_8h.html" target="_top" xlink:title=" ">
<polygon fill="white" stroke="black" points="211,-0.5 211,-19.5 363,-19.5 363,-0.5 211,-0.5"/>
<text text-anchor="middle" x="287" y="-7.5" font-family="Helvetica,sans-Serif" font-size="10.00">XilinxUltraScalePlusFabric.h</text>
</a>
</g>
</g>
<!-- Node2&#45;&gt;Node6 -->
<g id="edge5" class="edge">
<title>Node2&#45;&gt;Node6</title>
<path fill="none" stroke="midnightblue" d="M120.37,-56.44C154.26,-47.2 208.4,-32.44 245.72,-22.26"/>
<polygon fill="midnightblue" stroke="midnightblue" points="247.05,-25.52 255.77,-19.52 245.2,-18.77 247.05,-25.52"/>
</g>
<!-- Node7&#45;&gt;Node6 -->
<g id="edge7" class="edge">
<title>Node7&#45;&gt;Node6</title>
<path fill="none" stroke="midnightblue" d="M288.67,-56.08C288.41,-49.01 288.03,-38.86 287.7,-29.99"/>
<polygon fill="midnightblue" stroke="midnightblue" points="291.19,-29.61 287.32,-19.75 284.2,-29.87 291.19,-29.61"/>
</g>
</g>
</svg>
