<?xml version="1.0" encoding="UTF-8" standalone="no"?>
<!DOCTYPE svg PUBLIC "-//W3C//DTD SVG 1.1//EN"
 "http://www.w3.org/Graphics/SVG/1.1/DTD/svg11.dtd">
<!-- Generated by graphviz version 2.43.0 (0)
 -->
<!-- Title: src/Devices/Xilinx/UltraScalePlus/XilinxUltraScalePlusFabric.h Pages: 1 -->
<svg width="433pt" height="206pt"
 viewBox="0.00 0.00 432.50 206.00" xmlns="http://www.w3.org/2000/svg" xmlns:xlink="http://www.w3.org/1999/xlink">
<g id="graph0" class="graph" transform="scale(1 1) rotate(0) translate(4 202)">
<title>src/Devices/Xilinx/UltraScalePlus/XilinxUltraScalePlusFabric.h</title>
<polygon fill="white" stroke="transparent" points="-4,4 -4,-202 428.5,-202 428.5,4 -4,4"/>
<!-- Node1 -->
<g id="node1" class="node">
<title>Node1</title>
<g id="a_node1"><a xlink:title=" ">
<polygon fill="#bfbfbf" stroke="black" points="197.5,-156.5 197.5,-197.5 342.5,-197.5 342.5,-156.5 197.5,-156.5"/>
<text text-anchor="start" x="205.5" y="-185.5" font-family="Helvetica,sans-Serif" font-size="10.00">src/Devices/Xilinx</text>
<text text-anchor="start" x="205.5" y="-174.5" font-family="Helvetica,sans-Serif" font-size="10.00">/UltraScalePlus/XilinxUltra</text>
<text text-anchor="middle" x="270" y="-163.5" font-family="Helvetica,sans-Serif" font-size="10.00">ScalePlusFabric.h</text>
</a>
</g>
</g>
<!-- Node2 -->
<g id="node2" class="node">
<title>Node2</title>
<g id="a_node2"><a xlink:href="_xilinx_ultra_scale_plus_8h.html" target="_top" xlink:title=" ">
<polygon fill="white" stroke="black" points="116.5,-78.5 116.5,-119.5 261.5,-119.5 261.5,-78.5 116.5,-78.5"/>
<text text-anchor="start" x="124.5" y="-107.5" font-family="Helvetica,sans-Serif" font-size="10.00">src/Devices/Xilinx</text>
<text text-anchor="start" x="124.5" y="-96.5" font-family="Helvetica,sans-Serif" font-size="10.00">/UltraScalePlus/XilinxUltra</text>
<text text-anchor="middle" x="189" y="-85.5" font-family="Helvetica,sans-Serif" font-size="10.00">ScalePlus.h</text>
</a>
</g>
</g>
<!-- Node1&#45;&gt;Node2 -->
<g id="edge1" class="edge">
<title>Node1&#45;&gt;Node2</title>
<path fill="none" stroke="midnightblue" d="M241.75,-149.49C231.24,-139.63 219.51,-128.63 209.79,-119.51"/>
<polygon fill="midnightblue" stroke="midnightblue" points="239.45,-152.14 249.14,-156.43 244.24,-147.03 239.45,-152.14"/>
</g>
<!-- Node6 -->
<g id="node6" class="node">
<title>Node6</title>
<g id="a_node6"><a xlink:href="_xilinx_ultra_scale_plus_devices_8h.html" target="_top" xlink:title=" ">
<polygon fill="white" stroke="black" points="279.5,-78.5 279.5,-119.5 424.5,-119.5 424.5,-78.5 279.5,-78.5"/>
<text text-anchor="start" x="287.5" y="-107.5" font-family="Helvetica,sans-Serif" font-size="10.00">src/Devices/Xilinx</text>
<text text-anchor="start" x="287.5" y="-96.5" font-family="Helvetica,sans-Serif" font-size="10.00">/UltraScalePlus/XilinxUltra</text>
<text text-anchor="middle" x="352" y="-85.5" font-family="Helvetica,sans-Serif" font-size="10.00">ScalePlusDevices.h</text>
</a>
</g>
</g>
<!-- Node1&#45;&gt;Node6 -->
<g id="edge5" class="edge">
<title>Node1&#45;&gt;Node6</title>
<path fill="none" stroke="midnightblue" d="M298.6,-149.49C309.24,-139.63 321.11,-128.63 330.95,-119.51"/>
<polygon fill="midnightblue" stroke="midnightblue" points="296.07,-147.06 291.12,-156.43 300.83,-152.2 296.07,-147.06"/>
</g>
<!-- Node3 -->
<g id="node3" class="node">
<title>Node3</title>
<g id="a_node3"><a xlink:href="byteman_8cpp.html" target="_top" xlink:title=" ">
<polygon fill="white" stroke="black" points="0,-11.5 0,-30.5 98,-30.5 98,-11.5 0,-11.5"/>
<text text-anchor="middle" x="49" y="-18.5" font-family="Helvetica,sans-Serif" font-size="10.00">src/byteman.cpp</text>
</a>
</g>
</g>
<!-- Node2&#45;&gt;Node3 -->
<g id="edge2" class="edge">
<title>Node2&#45;&gt;Node3</title>
<path fill="none" stroke="midnightblue" d="M143.98,-73.56C116.8,-58.8 83.83,-40.91 64.75,-30.55"/>
<polygon fill="midnightblue" stroke="midnightblue" points="142.49,-76.73 152.95,-78.43 145.83,-70.58 142.49,-76.73"/>
</g>
<!-- Node4 -->
<g id="node4" class="node">
<title>Node4</title>
<g id="a_node4"><a xlink:href="_xilinx_ultra_scale_plus_8cpp.html" target="_top" xlink:title=" ">
<polygon fill="white" stroke="black" points="116.5,-0.5 116.5,-41.5 261.5,-41.5 261.5,-0.5 116.5,-0.5"/>
<text text-anchor="start" x="124.5" y="-29.5" font-family="Helvetica,sans-Serif" font-size="10.00">src/Devices/Xilinx</text>
<text text-anchor="start" x="124.5" y="-18.5" font-family="Helvetica,sans-Serif" font-size="10.00">/UltraScalePlus/XilinxUltra</text>
<text text-anchor="middle" x="189" y="-7.5" font-family="Helvetica,sans-Serif" font-size="10.00">ScalePlus.cpp</text>
</a>
</g>
</g>
<!-- Node2&#45;&gt;Node4 -->
<g id="edge3" class="edge">
<title>Node2&#45;&gt;Node4</title>
<path fill="none" stroke="midnightblue" d="M189,-68.3C189,-59.3 189,-49.65 189,-41.51"/>
<polygon fill="midnightblue" stroke="midnightblue" points="185.5,-68.43 189,-78.43 192.5,-68.43 185.5,-68.43"/>
</g>
<!-- Node5 -->
<g id="node5" class="node">
<title>Node5</title>
<g id="a_node5"><a xlink:href="_xilinx_ultra_scale_plus_devices_8cpp.html" target="_top" xlink:title=" ">
<polygon fill="white" stroke="black" points="279.5,-0.5 279.5,-41.5 424.5,-41.5 424.5,-0.5 279.5,-0.5"/>
<text text-anchor="start" x="287.5" y="-29.5" font-family="Helvetica,sans-Serif" font-size="10.00">src/Devices/Xilinx</text>
<text text-anchor="start" x="287.5" y="-18.5" font-family="Helvetica,sans-Serif" font-size="10.00">/UltraScalePlus/XilinxUltra</text>
<text text-anchor="middle" x="352" y="-7.5" font-family="Helvetica,sans-Serif" font-size="10.00">ScalePlusDevices.cpp</text>
</a>
</g>
</g>
<!-- Node2&#45;&gt;Node5 -->
<g id="edge4" class="edge">
<title>Node2&#45;&gt;Node5</title>
<path fill="none" stroke="midnightblue" d="M240.07,-74.19C262.62,-63.67 288.8,-51.47 310.17,-41.51"/>
<polygon fill="midnightblue" stroke="midnightblue" points="238.56,-71.03 230.98,-78.43 241.52,-77.37 238.56,-71.03"/>
</g>
<!-- Node6&#45;&gt;Node5 -->
<g id="edge6" class="edge">
<title>Node6&#45;&gt;Node5</title>
<path fill="none" stroke="midnightblue" d="M352,-68.3C352,-59.3 352,-49.65 352,-41.51"/>
<polygon fill="midnightblue" stroke="midnightblue" points="348.5,-68.43 352,-78.43 355.5,-68.43 348.5,-68.43"/>
</g>
</g>
</svg>
