<?xml version="1.0" encoding="UTF-8" standalone="no"?>
<!DOCTYPE svg PUBLIC "-//W3C//DTD SVG 1.1//EN"
 "http://www.w3.org/Graphics/SVG/1.1/DTD/svg11.dtd">
<!-- Generated by graphviz version 2.43.0 (0)
 -->
<!-- Title: getNthInt Pages: 1 -->
<svg width="396pt" height="180pt"
 viewBox="0.00 0.00 396.00 180.00" xmlns="http://www.w3.org/2000/svg" xmlns:xlink="http://www.w3.org/1999/xlink">
<g id="graph0" class="graph" transform="scale(1 1) rotate(0) translate(4 176)">
<title>getNthInt</title>
<polygon fill="white" stroke="transparent" points="-4,4 -4,-176 392,-176 392,4 -4,4"/>
<!-- Node1 -->
<g id="node1" class="node">
<title>Node1</title>
<g id="a_node1"><a xlink:title=" ">
<polygon fill="#bfbfbf" stroke="black" points="326,-76.5 326,-95.5 388,-95.5 388,-76.5 326,-76.5"/>
<text text-anchor="middle" x="357" y="-83.5" font-family="Helvetica,sans-Serif" font-size="10.00">getNthInt</text>
</a>
</g>
</g>
<!-- Node2 -->
<g id="node2" class="node">
<title>Node2</title>
<g id="a_node2"><a xlink:href="byteman_8cpp.html#a8c6afae26d72a7030f5f568b832170cc" target="_top" xlink:title=" ">
<polygon fill="white" stroke="black" points="211.5,-152.5 211.5,-171.5 285.5,-171.5 285.5,-152.5 211.5,-152.5"/>
<text text-anchor="middle" x="248.5" y="-159.5" font-family="Helvetica,sans-Serif" font-size="10.00">parseMerge</text>
</a>
</g>
</g>
<!-- Node1&#45;&gt;Node2 -->
<g id="edge1" class="edge">
<title>Node1&#45;&gt;Node2</title>
<path fill="none" stroke="midnightblue" d="M338.88,-103.12C326.14,-115.25 307.92,-131.37 290,-143 284.66,-146.47 278.58,-149.66 272.79,-152.4"/>
<polygon fill="midnightblue" stroke="midnightblue" points="341.67,-105.28 346.4,-95.81 336.79,-100.26 341.67,-105.28"/>
</g>
<!-- Node5 -->
<g id="node5" class="node">
<title>Node5</title>
<g id="a_node5"><a xlink:href="byteman_8cpp.html#a6864a632485326d2049256aeb01cc4cf" target="_top" xlink:title=" ">
<polygon fill="white" stroke="black" points="210,-114.5 210,-133.5 287,-133.5 287,-114.5 210,-114.5"/>
<text text-anchor="middle" x="248.5" y="-121.5" font-family="Helvetica,sans-Serif" font-size="10.00">parseOutput</text>
</a>
</g>
</g>
<!-- Node1&#45;&gt;Node5 -->
<g id="edge4" class="edge">
<title>Node1&#45;&gt;Node5</title>
<path fill="none" stroke="midnightblue" d="M319.64,-98.97C305.46,-104.03 289.48,-109.73 276.37,-114.41"/>
<polygon fill="midnightblue" stroke="midnightblue" points="320.88,-102.25 329.13,-95.59 318.53,-95.65 320.88,-102.25"/>
</g>
<!-- Node6 -->
<g id="node6" class="node">
<title>Node6</title>
<g id="a_node6"><a xlink:href="byteman_8cpp.html#a65e06ace3e66b81b8ec14ec72dae1830" target="_top" xlink:title=" ">
<polygon fill="white" stroke="black" points="210,-76.5 210,-95.5 287,-95.5 287,-76.5 210,-76.5"/>
<text text-anchor="middle" x="248.5" y="-83.5" font-family="Helvetica,sans-Serif" font-size="10.00">parseRegion</text>
</a>
</g>
</g>
<!-- Node1&#45;&gt;Node6 -->
<g id="edge6" class="edge">
<title>Node1&#45;&gt;Node6</title>
<path fill="none" stroke="midnightblue" d="M315.51,-86C306.15,-86 296.24,-86 287.02,-86"/>
<polygon fill="midnightblue" stroke="midnightblue" points="315.77,-89.5 325.77,-86 315.77,-82.5 315.77,-89.5"/>
</g>
<!-- Node7 -->
<g id="node7" class="node">
<title>Node7</title>
<g id="a_node7"><a xlink:href="byteman_8cpp.html#acd26748fd11d0a0c11b892dbbb8dde7c" target="_top" xlink:title=" ">
<polygon fill="white" stroke="black" points="207,-38.5 207,-57.5 290,-57.5 290,-38.5 207,-38.5"/>
<text text-anchor="middle" x="248.5" y="-45.5" font-family="Helvetica,sans-Serif" font-size="10.00">parseVerbose</text>
</a>
</g>
</g>
<!-- Node1&#45;&gt;Node7 -->
<g id="edge8" class="edge">
<title>Node1&#45;&gt;Node7</title>
<path fill="none" stroke="midnightblue" d="M319.64,-73.03C305.46,-67.97 289.48,-62.27 276.37,-57.59"/>
<polygon fill="midnightblue" stroke="midnightblue" points="318.53,-76.35 329.13,-76.41 320.88,-69.75 318.53,-76.35"/>
</g>
<!-- Node8 -->
<g id="node8" class="node">
<title>Node8</title>
<g id="a_node8"><a xlink:href="byteman_8cpp.html#a8f7be31e158a1af17d28b26fdcb8653d" target="_top" xlink:title=" ">
<polygon fill="white" stroke="black" points="214.5,-0.5 214.5,-19.5 282.5,-19.5 282.5,-0.5 214.5,-0.5"/>
<text text-anchor="middle" x="248.5" y="-7.5" font-family="Helvetica,sans-Serif" font-size="10.00">parseWarn</text>
</a>
</g>
</g>
<!-- Node1&#45;&gt;Node8 -->
<g id="edge10" class="edge">
<title>Node1&#45;&gt;Node8</title>
<path fill="none" stroke="midnightblue" d="M338.88,-68.88C326.14,-56.75 307.92,-40.63 290,-29 284.66,-25.53 278.58,-22.34 272.79,-19.6"/>
<polygon fill="midnightblue" stroke="midnightblue" points="336.79,-71.74 346.4,-76.19 341.67,-66.72 336.79,-71.74"/>
</g>
<!-- Node3 -->
<g id="node3" class="node">
<title>Node3</title>
<g id="a_node3"><a xlink:href="byteman_8cpp.html#a913ad3944130fafece24fe460db9b6aa" target="_top" xlink:title=" ">
<polygon fill="white" stroke="black" points="77,-76.5 77,-95.5 171,-95.5 171,-76.5 77,-76.5"/>
<text text-anchor="middle" x="124" y="-83.5" font-family="Helvetica,sans-Serif" font-size="10.00">parseCommand</text>
</a>
</g>
</g>
<!-- Node2&#45;&gt;Node3 -->
<g id="edge2" class="edge">
<title>Node2&#45;&gt;Node3</title>
<path fill="none" stroke="midnightblue" d="M216.05,-147.89C212.96,-146.31 209.89,-144.67 207,-143 181.17,-128.1 153.03,-107.49 137.35,-95.57"/>
<polygon fill="midnightblue" stroke="midnightblue" points="214.77,-151.16 225.3,-152.41 217.85,-144.87 214.77,-151.16"/>
</g>
<!-- Node4 -->
<g id="node4" class="node">
<title>Node4</title>
<g id="a_node4"><a xlink:href="byteman_8cpp.html#a0ddf1224851353fc92bfbff6f499fa97" target="_top" xlink:title=" ">
<polygon fill="white" stroke="black" points="0,-76.5 0,-95.5 41,-95.5 41,-76.5 0,-76.5"/>
<text text-anchor="middle" x="20.5" y="-83.5" font-family="Helvetica,sans-Serif" font-size="10.00">main</text>
</a>
</g>
</g>
<!-- Node3&#45;&gt;Node4 -->
<g id="edge3" class="edge">
<title>Node3&#45;&gt;Node4</title>
<path fill="none" stroke="midnightblue" d="M66.69,-86C57.49,-86 48.54,-86 41.06,-86"/>
<polygon fill="midnightblue" stroke="midnightblue" points="66.71,-89.5 76.71,-86 66.71,-82.5 66.71,-89.5"/>
</g>
<!-- Node5&#45;&gt;Node3 -->
<g id="edge5" class="edge">
<title>Node5&#45;&gt;Node3</title>
<path fill="none" stroke="midnightblue" d="M206.62,-111.32C190.07,-106.19 171.28,-100.36 155.9,-95.59"/>
<polygon fill="midnightblue" stroke="midnightblue" points="206,-114.79 216.59,-114.41 208.07,-108.11 206,-114.79"/>
</g>
<!-- Node6&#45;&gt;Node3 -->
<g id="edge7" class="edge">
<title>Node6&#45;&gt;Node3</title>
<path fill="none" stroke="midnightblue" d="M199.73,-86C190.3,-86 180.42,-86 171.04,-86"/>
<polygon fill="midnightblue" stroke="midnightblue" points="199.75,-89.5 209.75,-86 199.75,-82.5 199.75,-89.5"/>
</g>
<!-- Node7&#45;&gt;Node3 -->
<g id="edge9" class="edge">
<title>Node7&#45;&gt;Node3</title>
<path fill="none" stroke="midnightblue" d="M206.62,-60.68C190.07,-65.81 171.28,-71.64 155.9,-76.41"/>
<polygon fill="midnightblue" stroke="midnightblue" points="208.07,-63.89 216.59,-57.59 206,-57.21 208.07,-63.89"/>
</g>
<!-- Node8&#45;&gt;Node3 -->
<g id="edge11" class="edge">
<title>Node8&#45;&gt;Node3</title>
<path fill="none" stroke="midnightblue" d="M216.05,-24.11C212.96,-25.69 209.89,-27.33 207,-29 181.17,-43.9 153.03,-64.51 137.35,-76.43"/>
<polygon fill="midnightblue" stroke="midnightblue" points="217.85,-27.13 225.3,-19.59 214.77,-20.84 217.85,-27.13"/>
</g>
</g>
</svg>
