<?xml version="1.0" encoding="UTF-8" standalone="no"?>
<!DOCTYPE svg PUBLIC "-//W3C//DTD SVG 1.1//EN"
 "http://www.w3.org/Graphics/SVG/1.1/DTD/svg11.dtd">
<!-- Generated by graphviz version 2.43.0 (0)
 -->
<!-- Title: getAllStrings Pages: 1 -->
<svg width="407pt" height="104pt"
 viewBox="0.00 0.00 407.00 104.00" xmlns="http://www.w3.org/2000/svg" xmlns:xlink="http://www.w3.org/1999/xlink">
<g id="graph0" class="graph" transform="scale(1 1) rotate(0) translate(4 100)">
<title>getAllStrings</title>
<polygon fill="white" stroke="transparent" points="-4,4 -4,-100 403,-100 403,4 -4,4"/>
<!-- Node1 -->
<g id="node1" class="node">
<title>Node1</title>
<g id="a_node1"><a xlink:title=" ">
<polygon fill="#bfbfbf" stroke="black" points="320,-38.5 320,-57.5 399,-57.5 399,-38.5 320,-38.5"/>
<text text-anchor="middle" x="359.5" y="-45.5" font-family="Helvetica,sans-Serif" font-size="10.00">getAllStrings</text>
</a>
</g>
</g>
<!-- Node2 -->
<g id="node2" class="node">
<title>Node2</title>
<g id="a_node2"><a xlink:href="byteman_8cpp.html#a51215e0def41bcc5f36f859b140a165f" target="_top" xlink:title=" ">
<polygon fill="white" stroke="black" points="210,-76.5 210,-95.5 281,-95.5 281,-76.5 210,-76.5"/>
<text text-anchor="middle" x="245.5" y="-83.5" font-family="Helvetica,sans-Serif" font-size="10.00">parseBlank</text>
</a>
</g>
</g>
<!-- Node1&#45;&gt;Node2 -->
<g id="edge1" class="edge">
<title>Node1&#45;&gt;Node2</title>
<path fill="none" stroke="midnightblue" d="M320.7,-60.83C305.67,-65.92 288.68,-71.69 274.75,-76.41"/>
<polygon fill="midnightblue" stroke="midnightblue" points="321.89,-64.12 330.24,-57.59 319.64,-57.49 321.89,-64.12"/>
</g>
<!-- Node5 -->
<g id="node5" class="node">
<title>Node5</title>
<g id="a_node5"><a xlink:href="byteman_8cpp.html#a8c6afae26d72a7030f5f568b832170cc" target="_top" xlink:title=" ">
<polygon fill="white" stroke="black" points="208.5,-38.5 208.5,-57.5 282.5,-57.5 282.5,-38.5 208.5,-38.5"/>
<text text-anchor="middle" x="245.5" y="-45.5" font-family="Helvetica,sans-Serif" font-size="10.00">parseMerge</text>
</a>
</g>
</g>
<!-- Node1&#45;&gt;Node5 -->
<g id="edge4" class="edge">
<title>Node1&#45;&gt;Node5</title>
<path fill="none" stroke="midnightblue" d="M309.88,-48C300.81,-48 291.47,-48 282.85,-48"/>
<polygon fill="midnightblue" stroke="midnightblue" points="309.96,-51.5 319.96,-48 309.96,-44.5 309.96,-51.5"/>
</g>
<!-- Node6 -->
<g id="node6" class="node">
<title>Node6</title>
<g id="a_node6"><a xlink:href="byteman_8cpp.html#a65e06ace3e66b81b8ec14ec72dae1830" target="_top" xlink:title=" ">
<polygon fill="white" stroke="black" points="207,-0.5 207,-19.5 284,-19.5 284,-0.5 207,-0.5"/>
<text text-anchor="middle" x="245.5" y="-7.5" font-family="Helvetica,sans-Serif" font-size="10.00">parseRegion</text>
</a>
</g>
</g>
<!-- Node1&#45;&gt;Node6 -->
<g id="edge6" class="edge">
<title>Node1&#45;&gt;Node6</title>
<path fill="none" stroke="midnightblue" d="M320.7,-35.17C305.67,-30.08 288.68,-24.31 274.75,-19.59"/>
<polygon fill="midnightblue" stroke="midnightblue" points="319.64,-38.51 330.24,-38.41 321.89,-31.88 319.64,-38.51"/>
</g>
<!-- Node3 -->
<g id="node3" class="node">
<title>Node3</title>
<g id="a_node3"><a xlink:href="byteman_8cpp.html#a913ad3944130fafece24fe460db9b6aa" target="_top" xlink:title=" ">
<polygon fill="white" stroke="black" points="77,-38.5 77,-57.5 171,-57.5 171,-38.5 77,-38.5"/>
<text text-anchor="middle" x="124" y="-45.5" font-family="Helvetica,sans-Serif" font-size="10.00">parseCommand</text>
</a>
</g>
</g>
<!-- Node2&#45;&gt;Node3 -->
<g id="edge2" class="edge">
<title>Node2&#45;&gt;Node3</title>
<path fill="none" stroke="midnightblue" d="M204.62,-73.32C188.48,-68.19 170.15,-62.36 155.15,-57.59"/>
<polygon fill="midnightblue" stroke="midnightblue" points="203.75,-76.72 214.35,-76.41 205.88,-70.05 203.75,-76.72"/>
</g>
<!-- Node4 -->
<g id="node4" class="node">
<title>Node4</title>
<g id="a_node4"><a xlink:href="byteman_8cpp.html#a0ddf1224851353fc92bfbff6f499fa97" target="_top" xlink:title=" ">
<polygon fill="white" stroke="black" points="0,-38.5 0,-57.5 41,-57.5 41,-38.5 0,-38.5"/>
<text text-anchor="middle" x="20.5" y="-45.5" font-family="Helvetica,sans-Serif" font-size="10.00">main</text>
</a>
</g>
</g>
<!-- Node3&#45;&gt;Node4 -->
<g id="edge3" class="edge">
<title>Node3&#45;&gt;Node4</title>
<path fill="none" stroke="midnightblue" d="M66.69,-48C57.49,-48 48.54,-48 41.06,-48"/>
<polygon fill="midnightblue" stroke="midnightblue" points="66.71,-51.5 76.71,-48 66.71,-44.5 66.71,-51.5"/>
</g>
<!-- Node5&#45;&gt;Node3 -->
<g id="edge5" class="edge">
<title>Node5&#45;&gt;Node3</title>
<path fill="none" stroke="midnightblue" d="M198.18,-48C189.33,-48 180.07,-48 171.23,-48"/>
<polygon fill="midnightblue" stroke="midnightblue" points="198.32,-51.5 208.32,-48 198.32,-44.5 198.32,-51.5"/>
</g>
<!-- Node6&#45;&gt;Node3 -->
<g id="edge7" class="edge">
<title>Node6&#45;&gt;Node3</title>
<path fill="none" stroke="midnightblue" d="M204.62,-22.68C188.48,-27.81 170.15,-33.64 155.15,-38.41"/>
<polygon fill="midnightblue" stroke="midnightblue" points="205.88,-25.95 214.35,-19.59 203.75,-19.28 205.88,-25.95"/>
</g>
</g>
</svg>
