<?xml version="1.0" encoding="UTF-8" standalone="no"?>
<!DOCTYPE svg PUBLIC "-//W3C//DTD SVG 1.1//EN"
 "http://www.w3.org/Graphics/SVG/1.1/DTD/svg11.dtd">
<!-- Generated by graphviz version 2.43.0 (0)
 -->
<!-- Title: parseBlank Pages: 1 -->
<svg width="230pt" height="78pt"
 viewBox="0.00 0.00 230.00 77.50" xmlns="http://www.w3.org/2000/svg" xmlns:xlink="http://www.w3.org/1999/xlink">
<g id="graph0" class="graph" transform="scale(1 1) rotate(0) translate(4 73.5)">
<title>parseBlank</title>
<polygon fill="white" stroke="transparent" points="-4,4 -4,-73.5 226,-73.5 226,4 -4,4"/>
<!-- Node1 -->
<g id="node1" class="node">
<title>Node1</title>
<g id="a_node1"><a xlink:title=" ">
<polygon fill="#bfbfbf" stroke="black" points="0,-22.5 0,-41.5 71,-41.5 71,-22.5 0,-22.5"/>
<text text-anchor="middle" x="35.5" y="-29.5" font-family="Helvetica,sans-Serif" font-size="10.00">parseBlank</text>
</a>
</g>
</g>
<!-- Node2 -->
<g id="node2" class="node">
<title>Node2</title>
<g id="a_node2"><a xlink:href="class_xilinx_ultra_scale_plus.html#a15434be327a556f42ae679ad8715f876" target="_top" xlink:title=" ">
<polygon fill="white" stroke="black" points="107,-39 107,-69 222,-69 222,-39 107,-39"/>
<text text-anchor="start" x="115" y="-57" font-family="Helvetica,sans-Serif" font-size="10.00">XilinxUltraScalePlus</text>
<text text-anchor="middle" x="164.5" y="-46" font-family="Helvetica,sans-Serif" font-size="10.00">::blank</text>
</a>
</g>
</g>
<!-- Node1&#45;&gt;Node2 -->
<g id="edge1" class="edge">
<title>Node1&#45;&gt;Node2</title>
<path fill="none" stroke="midnightblue" d="M71.2,-38.01C79.21,-39.4 87.99,-40.92 96.85,-42.45"/>
<polygon fill="midnightblue" stroke="midnightblue" points="96.4,-45.93 106.85,-44.19 97.59,-39.03 96.4,-45.93"/>
</g>
<!-- Node3 -->
<g id="node3" class="node">
<title>Node3</title>
<g id="a_node3"><a xlink:href="byteman_8cpp.html#a7387d6a5da2c3ae1a51a14b1c0855112" target="_top" xlink:title=" ">
<polygon fill="white" stroke="black" points="125,-0.5 125,-19.5 204,-19.5 204,-0.5 125,-0.5"/>
<text text-anchor="middle" x="164.5" y="-7.5" font-family="Helvetica,sans-Serif" font-size="10.00">getAllStrings</text>
</a>
</g>
</g>
<!-- Node1&#45;&gt;Node3 -->
<g id="edge2" class="edge">
<title>Node1&#45;&gt;Node3</title>
<path fill="none" stroke="midnightblue" d="M71.2,-25.99C84.69,-23.65 100.37,-20.94 114.94,-18.41"/>
<polygon fill="midnightblue" stroke="midnightblue" points="115.56,-21.86 124.81,-16.7 114.36,-14.96 115.56,-21.86"/>
</g>
</g>
</svg>
