<?xml version="1.0" encoding="UTF-8" standalone="no"?>
<!DOCTYPE svg PUBLIC "-//W3C//DTD SVG 1.1//EN"
 "http://www.w3.org/Graphics/SVG/1.1/DTD/svg11.dtd">
<!-- Generated by graphviz version 2.43.0 (0)
 -->
<!-- Title: parseRegion Pages: 1 -->
<svg width="236pt" height="116pt"
 viewBox="0.00 0.00 236.00 115.50" xmlns="http://www.w3.org/2000/svg" xmlns:xlink="http://www.w3.org/1999/xlink">
<g id="graph0" class="graph" transform="scale(1 1) rotate(0) translate(4 111.5)">
<title>parseRegion</title>
<polygon fill="white" stroke="transparent" points="-4,4 -4,-111.5 232,-111.5 232,4 -4,4"/>
<!-- Node1 -->
<g id="node1" class="node">
<title>Node1</title>
<g id="a_node1"><a xlink:title=" ">
<polygon fill="#bfbfbf" stroke="black" points="0,-50 0,-69 77,-69 77,-50 0,-50"/>
<text text-anchor="middle" x="38.5" y="-57" font-family="Helvetica,sans-Serif" font-size="10.00">parseRegion</text>
</a>
</g>
</g>
<!-- Node2 -->
<g id="node2" class="node">
<title>Node2</title>
<g id="a_node2"><a xlink:href="byteman_8cpp.html#a7387d6a5da2c3ae1a51a14b1c0855112" target="_top" xlink:title=" ">
<polygon fill="white" stroke="black" points="131,-88 131,-107 210,-107 210,-88 131,-88"/>
<text text-anchor="middle" x="170.5" y="-95" font-family="Helvetica,sans-Serif" font-size="10.00">getAllStrings</text>
</a>
</g>
</g>
<!-- Node1&#45;&gt;Node2 -->
<g id="edge1" class="edge">
<title>Node1&#45;&gt;Node2</title>
<path fill="none" stroke="midnightblue" d="M72.3,-69.09C88.78,-73.9 108.94,-79.8 126.63,-84.97"/>
<polygon fill="midnightblue" stroke="midnightblue" points="126.13,-88.47 136.71,-87.91 128.09,-81.75 126.13,-88.47"/>
</g>
<!-- Node3 -->
<g id="node3" class="node">
<title>Node3</title>
<g id="a_node3"><a xlink:href="byteman_8cpp.html#a7e6d949e69ac4f52a80dad0b6d62de02" target="_top" xlink:title=" ">
<polygon fill="white" stroke="black" points="139.5,-50 139.5,-69 201.5,-69 201.5,-50 139.5,-50"/>
<text text-anchor="middle" x="170.5" y="-57" font-family="Helvetica,sans-Serif" font-size="10.00">getNthInt</text>
</a>
</g>
</g>
<!-- Node1&#45;&gt;Node3 -->
<g id="edge2" class="edge">
<title>Node1&#45;&gt;Node3</title>
<path fill="none" stroke="midnightblue" d="M77.1,-59.5C93.34,-59.5 112.37,-59.5 128.93,-59.5"/>
<polygon fill="midnightblue" stroke="midnightblue" points="129.4,-63 139.4,-59.5 129.4,-56 129.4,-63"/>
</g>
<!-- Node4 -->
<g id="node4" class="node">
<title>Node4</title>
<g id="a_node4"><a xlink:href="class_xilinx_ultra_scale_plus.html#ab0f4022be98e6a142e5a9331e7ed79ea" target="_top" xlink:title=" ">
<polygon fill="white" stroke="black" points="113,-0.5 113,-30.5 228,-30.5 228,-0.5 113,-0.5"/>
<text text-anchor="start" x="121" y="-18.5" font-family="Helvetica,sans-Serif" font-size="10.00">XilinxUltraScalePlus</text>
<text text-anchor="middle" x="170.5" y="-7.5" font-family="Helvetica,sans-Serif" font-size="10.00">::region</text>
</a>
</g>
</g>
<!-- Node1&#45;&gt;Node4 -->
<g id="edge3" class="edge">
<title>Node1&#45;&gt;Node4</title>
<path fill="none" stroke="midnightblue" d="M67.71,-49.95C81.69,-45.22 99.06,-39.34 115.47,-33.79"/>
<polygon fill="midnightblue" stroke="midnightblue" points="116.64,-37.09 124.99,-30.57 114.39,-30.46 116.64,-37.09"/>
</g>
</g>
</svg>
