<?xml version="1.0" encoding="UTF-8" standalone="no"?>
<!DOCTYPE svg PUBLIC "-//W3C//DTD SVG 1.1//EN"
 "http://www.w3.org/Graphics/SVG/1.1/DTD/svg11.dtd">
<!-- Generated by graphviz version 2.43.0 (0)
 -->
<!-- Title: parseOutput Pages: 1 -->
<svg width="248pt" height="154pt"
 viewBox="0.00 0.00 248.00 153.50" xmlns="http://www.w3.org/2000/svg" xmlns:xlink="http://www.w3.org/1999/xlink">
<g id="graph0" class="graph" transform="scale(1 1) rotate(0) translate(4 149.5)">
<title>parseOutput</title>
<polygon fill="white" stroke="transparent" points="-4,4 -4,-149.5 244,-149.5 244,4 -4,4"/>
<!-- Node1 -->
<g id="node1" class="node">
<title>Node1</title>
<g id="a_node1"><a xlink:title=" ">
<polygon fill="#bfbfbf" stroke="black" points="0,-69 0,-88 77,-88 77,-69 0,-69"/>
<text text-anchor="middle" x="38.5" y="-76" font-family="Helvetica,sans-Serif" font-size="10.00">parseOutput</text>
</a>
</g>
</g>
<!-- Node2 -->
<g id="node2" class="node">
<title>Node2</title>
<g id="a_node2"><a xlink:href="byteman_8cpp.html#abb94c0ff14dd633ff41b3b9f83ae0bd3" target="_top" xlink:title=" ">
<polygon fill="white" stroke="black" points="113,-126 113,-145 240,-145 240,-126 113,-126"/>
<text text-anchor="middle" x="176.5" y="-133" font-family="Helvetica,sans-Serif" font-size="10.00">getAllButLastStringArg</text>
</a>
</g>
</g>
<!-- Node1&#45;&gt;Node2 -->
<g id="edge1" class="edge">
<title>Node1&#45;&gt;Node2</title>
<path fill="none" stroke="midnightblue" d="M56.02,-88.15C70.65,-96.42 92.77,-108.28 113,-116.5 118.52,-118.74 124.4,-120.87 130.27,-122.82"/>
<polygon fill="midnightblue" stroke="midnightblue" points="129.48,-126.24 140.07,-125.95 131.61,-119.58 129.48,-126.24"/>
</g>
<!-- Node3 -->
<g id="node3" class="node">
<title>Node3</title>
<g id="a_node3"><a xlink:href="byteman_8cpp.html#a00471d4a59c1bf585fbc1cdf2398a02d" target="_top" xlink:title=" ">
<polygon fill="white" stroke="black" points="127.5,-88 127.5,-107 225.5,-107 225.5,-88 127.5,-88"/>
<text text-anchor="middle" x="176.5" y="-95" font-family="Helvetica,sans-Serif" font-size="10.00">getLastStringArg</text>
</a>
</g>
</g>
<!-- Node1&#45;&gt;Node3 -->
<g id="edge2" class="edge">
<title>Node1&#45;&gt;Node3</title>
<path fill="none" stroke="midnightblue" d="M77.02,-83.74C89.43,-85.48 103.54,-87.45 117.13,-89.35"/>
<polygon fill="midnightblue" stroke="midnightblue" points="116.99,-92.86 127.38,-90.78 117.96,-85.93 116.99,-92.86"/>
</g>
<!-- Node4 -->
<g id="node4" class="node">
<title>Node4</title>
<g id="a_node4"><a xlink:href="byteman_8cpp.html#a7e6d949e69ac4f52a80dad0b6d62de02" target="_top" xlink:title=" ">
<polygon fill="white" stroke="black" points="145.5,-50 145.5,-69 207.5,-69 207.5,-50 145.5,-50"/>
<text text-anchor="middle" x="176.5" y="-57" font-family="Helvetica,sans-Serif" font-size="10.00">getNthInt</text>
</a>
</g>
</g>
<!-- Node1&#45;&gt;Node4 -->
<g id="edge3" class="edge">
<title>Node1&#45;&gt;Node4</title>
<path fill="none" stroke="midnightblue" d="M77.02,-73.26C95.12,-70.73 116.84,-67.7 135.27,-65.12"/>
<polygon fill="midnightblue" stroke="midnightblue" points="135.99,-68.55 145.41,-63.7 135.02,-61.62 135.99,-68.55"/>
</g>
<!-- Node5 -->
<g id="node5" class="node">
<title>Node5</title>
<g id="a_node5"><a xlink:href="class_xilinx_ultra_scale_plus.html#aecdb65a64d91cb6bcc3a920ac6e55692" target="_top" xlink:title=" ">
<polygon fill="white" stroke="black" points="119,-0.5 119,-30.5 234,-30.5 234,-0.5 119,-0.5"/>
<text text-anchor="start" x="127" y="-18.5" font-family="Helvetica,sans-Serif" font-size="10.00">XilinxUltraScalePlus</text>
<text text-anchor="middle" x="176.5" y="-7.5" font-family="Helvetica,sans-Serif" font-size="10.00">::writeBitstream</text>
</a>
</g>
</g>
<!-- Node1&#45;&gt;Node5 -->
<g id="edge4" class="edge">
<title>Node1&#45;&gt;Node5</title>
<path fill="none" stroke="midnightblue" d="M56.79,-68.96C71.54,-60.97 93.4,-49.46 113,-40.5 117.42,-38.48 122.05,-36.46 126.71,-34.49"/>
<polygon fill="midnightblue" stroke="midnightblue" points="128.35,-37.59 136.25,-30.53 125.67,-31.13 128.35,-37.59"/>
</g>
</g>
</svg>
