<?xml version="1.0" encoding="UTF-8" standalone="no"?>
<!DOCTYPE svg PUBLIC "-//W3C//DTD SVG 1.1//EN"
 "http://www.w3.org/Graphics/SVG/1.1/DTD/svg11.dtd">
<!-- Generated by graphviz version 2.43.0 (0)
 -->
<!-- Title: main Pages: 1 -->
<svg width="909pt" height="796pt"
 viewBox="0.00 0.00 909.00 795.50" xmlns="http://www.w3.org/2000/svg" xmlns:xlink="http://www.w3.org/1999/xlink">
<g id="graph0" class="graph" transform="scale(1 1) rotate(0) translate(4 791.5)">
<title>main</title>
<polygon fill="white" stroke="transparent" points="-4,4 -4,-791.5 905,-791.5 905,4 -4,4"/>
<!-- Node1 -->
<g id="node1" class="node">
<title>Node1</title>
<g id="a_node1"><a xlink:title=" ">
<polygon fill="#bfbfbf" stroke="black" points="0,-439.5 0,-458.5 41,-458.5 41,-439.5 0,-439.5"/>
<text text-anchor="middle" x="20.5" y="-446.5" font-family="Helvetica,sans-Serif" font-size="10.00">main</text>
</a>
</g>
</g>
<!-- Node2 -->
<g id="node2" class="node">
<title>Node2</title>
<g id="a_node2"><a xlink:href="byteman_8cpp.html#a913ad3944130fafece24fe460db9b6aa" target="_top" xlink:title=" ">
<polygon fill="white" stroke="black" points="77,-534.5 77,-553.5 171,-553.5 171,-534.5 77,-534.5"/>
<text text-anchor="middle" x="124" y="-541.5" font-family="Helvetica,sans-Serif" font-size="10.00">parseCommand</text>
</a>
</g>
</g>
<!-- Node1&#45;&gt;Node2 -->
<g id="edge1" class="edge">
<title>Node1&#45;&gt;Node2</title>
<path fill="none" stroke="midnightblue" d="M31.98,-458.81C49.32,-475.03 84.15,-507.64 105.34,-527.47"/>
<polygon fill="midnightblue" stroke="midnightblue" points="103.04,-530.11 112.73,-534.39 107.82,-525 103.04,-530.11"/>
</g>
<!-- Node13 -->
<g id="node13" class="node">
<title>Node13</title>
<g id="a_node13"><a xlink:href="byteman_8h.html#a452ea4eb7e81dcb75c487904fd71c8f1" target="_top" xlink:title=" ">
<polygon fill="white" stroke="black" points="220,-289.5 220,-308.5 286,-308.5 286,-289.5 220,-289.5"/>
<text text-anchor="middle" x="253" y="-296.5" font-family="Helvetica,sans-Serif" font-size="10.00">parseHelp</text>
</a>
</g>
</g>
<!-- Node1&#45;&gt;Node13 -->
<g id="edge52" class="edge">
<title>Node1&#45;&gt;Node13</title>
<path fill="none" stroke="midnightblue" d="M36.27,-439.39C75.3,-413.99 181.42,-344.93 228.72,-314.15"/>
<polygon fill="midnightblue" stroke="midnightblue" points="230.88,-316.92 237.35,-308.53 227.06,-311.05 230.88,-316.92"/>
</g>
<!-- Node3 -->
<g id="node3" class="node">
<title>Node3</title>
<g id="a_node3"><a xlink:href="byteman_8cpp.html#abdebe35e6ba3749eaa14350ca0942419" target="_top" xlink:title=" ">
<polygon fill="white" stroke="black" points="207,-648.5 207,-667.5 299,-667.5 299,-648.5 207,-648.5"/>
<text text-anchor="middle" x="253" y="-655.5" font-family="Helvetica,sans-Serif" font-size="10.00">parseAssembly</text>
</a>
</g>
</g>
<!-- Node2&#45;&gt;Node3 -->
<g id="edge2" class="edge">
<title>Node2&#45;&gt;Node3</title>
<path fill="none" stroke="midnightblue" d="M131.09,-553.64C143.36,-572.4 172.82,-614.13 207,-639 209.38,-640.73 211.94,-642.34 214.59,-643.83"/>
<polygon fill="midnightblue" stroke="midnightblue" points="213.29,-647.1 223.8,-648.44 216.42,-640.84 213.29,-647.1"/>
</g>
<!-- Node4 -->
<g id="node4" class="node">
<title>Node4</title>
<g id="a_node4"><a xlink:href="byteman_8cpp.html#a51215e0def41bcc5f36f859b140a165f" target="_top" xlink:title=" ">
<polygon fill="white" stroke="black" points="217.5,-762.5 217.5,-781.5 288.5,-781.5 288.5,-762.5 217.5,-762.5"/>
<text text-anchor="middle" x="253" y="-769.5" font-family="Helvetica,sans-Serif" font-size="10.00">parseBlank</text>
</a>
</g>
</g>
<!-- Node2&#45;&gt;Node4 -->
<g id="edge3" class="edge">
<title>Node2&#45;&gt;Node4</title>
<path fill="none" stroke="midnightblue" d="M126.14,-553.75C130.43,-586.36 148.51,-692.99 207,-753 208.38,-754.41 209.87,-755.72 211.46,-756.94"/>
<polygon fill="midnightblue" stroke="midnightblue" points="209.63,-759.93 219.96,-762.29 213.36,-754 209.63,-759.93"/>
</g>
<!-- Node7 -->
<g id="node7" class="node">
<title>Node7</title>
<g id="a_node7"><a xlink:href="byteman_8cpp.html#aa23bea1bf8345e70d7eed43601105803" target="_top" xlink:title=" ">
<polygon fill="white" stroke="black" points="213,-724.5 213,-743.5 293,-743.5 293,-724.5 213,-724.5"/>
<text text-anchor="middle" x="253" y="-731.5" font-family="Helvetica,sans-Serif" font-size="10.00">parseChange</text>
</a>
</g>
</g>
<!-- Node2&#45;&gt;Node7 -->
<g id="edge6" class="edge">
<title>Node2&#45;&gt;Node7</title>
<path fill="none" stroke="midnightblue" d="M127.05,-553.55C133.62,-581.98 156.72,-667.06 207,-715 208.47,-716.4 210.07,-717.71 211.74,-718.93"/>
<polygon fill="midnightblue" stroke="midnightblue" points="210.29,-722.14 220.66,-724.29 213.89,-716.14 210.29,-722.14"/>
</g>
<!-- Node8 -->
<g id="node8" class="node">
<title>Node8</title>
<g id="a_node8"><a xlink:href="byteman_8cpp.html#a883440ce4fd99a9d8375dd36b34346ee" target="_top" xlink:title=" ">
<polygon fill="white" stroke="black" points="214.5,-382.5 214.5,-401.5 291.5,-401.5 291.5,-382.5 214.5,-382.5"/>
<text text-anchor="middle" x="253" y="-389.5" font-family="Helvetica,sans-Serif" font-size="10.00">parseDevice</text>
</a>
</g>
</g>
<!-- Node2&#45;&gt;Node8 -->
<g id="edge7" class="edge">
<title>Node2&#45;&gt;Node8</title>
<path fill="none" stroke="midnightblue" d="M128.58,-534.23C137.86,-510.09 164.99,-447.02 207,-411 208.78,-409.47 210.7,-408.06 212.7,-406.74"/>
<polygon fill="midnightblue" stroke="midnightblue" points="214.88,-409.54 221.92,-401.62 211.48,-403.42 214.88,-409.54"/>
</g>
<!-- Node2&#45;&gt;Node13 -->
<g id="edge12" class="edge">
<title>Node2&#45;&gt;Node13</title>
<path fill="none" stroke="midnightblue" d="M129.54,-534.2C144.19,-502.66 190.21,-403.97 207,-373 217.46,-353.7 230.63,-332.34 240.01,-317.55"/>
<polygon fill="midnightblue" stroke="midnightblue" points="243.13,-319.18 245.57,-308.87 237.23,-315.41 243.13,-319.18"/>
</g>
<!-- Node31 -->
<g id="node31" class="node">
<title>Node31</title>
<g id="a_node31"><a xlink:href="byteman_8cpp.html#a4dbd88e4909b2f0429f9d0b2fc2608bb" target="_top" xlink:title=" ">
<polygon fill="white" stroke="black" points="219,-420.5 219,-439.5 287,-439.5 287,-420.5 219,-420.5"/>
<text text-anchor="middle" x="253" y="-427.5" font-family="Helvetica,sans-Serif" font-size="10.00">parseInput</text>
</a>
</g>
</g>
<!-- Node2&#45;&gt;Node31 -->
<g id="edge30" class="edge">
<title>Node2&#45;&gt;Node31</title>
<path fill="none" stroke="midnightblue" d="M131.09,-534.36C143.36,-515.6 172.82,-473.87 207,-449 209.38,-447.27 211.94,-445.66 214.59,-444.17"/>
<polygon fill="midnightblue" stroke="midnightblue" points="216.42,-447.16 223.8,-439.56 213.29,-440.9 216.42,-447.16"/>
</g>
<!-- Node33 -->
<g id="node33" class="node">
<title>Node33</title>
<g id="a_node33"><a xlink:href="byteman_8cpp.html#a8c6afae26d72a7030f5f568b832170cc" target="_top" xlink:title=" ">
<polygon fill="white" stroke="black" points="216,-572.5 216,-591.5 290,-591.5 290,-572.5 216,-572.5"/>
<text text-anchor="middle" x="253" y="-579.5" font-family="Helvetica,sans-Serif" font-size="10.00">parseMerge</text>
</a>
</g>
</g>
<!-- Node2&#45;&gt;Node33 -->
<g id="edge34" class="edge">
<title>Node2&#45;&gt;Node33</title>
<path fill="none" stroke="midnightblue" d="M157.05,-553.59C173.14,-558.4 192.84,-564.3 210.12,-569.47"/>
<polygon fill="midnightblue" stroke="midnightblue" points="209.38,-572.9 219.96,-572.41 211.39,-566.19 209.38,-572.9"/>
</g>
<!-- Node36 -->
<g id="node36" class="node">
<title>Node36</title>
<g id="a_node36"><a xlink:href="byteman_8cpp.html#a6864a632485326d2049256aeb01cc4cf" target="_top" xlink:title=" ">
<polygon fill="white" stroke="black" points="214.5,-458.5 214.5,-477.5 291.5,-477.5 291.5,-458.5 214.5,-458.5"/>
<text text-anchor="middle" x="253" y="-465.5" font-family="Helvetica,sans-Serif" font-size="10.00">parseOutput</text>
</a>
</g>
</g>
<!-- Node2&#45;&gt;Node36 -->
<g id="edge38" class="edge">
<title>Node2&#45;&gt;Node36</title>
<path fill="none" stroke="midnightblue" d="M136.98,-534.47C152.52,-522.41 180.73,-501.47 207,-487 210.31,-485.17 213.84,-483.41 217.4,-481.73"/>
<polygon fill="midnightblue" stroke="midnightblue" points="219.09,-484.81 226.81,-477.55 216.25,-478.42 219.09,-484.81"/>
</g>
<!-- Node38 -->
<g id="node38" class="node">
<title>Node38</title>
<g id="a_node38"><a xlink:href="byteman_8cpp.html#a65e06ace3e66b81b8ec14ec72dae1830" target="_top" xlink:title=" ">
<polygon fill="white" stroke="black" points="214.5,-610.5 214.5,-629.5 291.5,-629.5 291.5,-610.5 214.5,-610.5"/>
<text text-anchor="middle" x="253" y="-617.5" font-family="Helvetica,sans-Serif" font-size="10.00">parseRegion</text>
</a>
</g>
</g>
<!-- Node2&#45;&gt;Node38 -->
<g id="edge43" class="edge">
<title>Node2&#45;&gt;Node38</title>
<path fill="none" stroke="midnightblue" d="M136.98,-553.53C152.52,-565.59 180.73,-586.53 207,-601 210.31,-602.83 213.84,-604.59 217.4,-606.27"/>
<polygon fill="midnightblue" stroke="midnightblue" points="216.25,-609.58 226.81,-610.45 219.09,-603.19 216.25,-609.58"/>
</g>
<!-- Node40 -->
<g id="node40" class="node">
<title>Node40</title>
<g id="a_node40"><a xlink:href="byteman_8cpp.html#acd26748fd11d0a0c11b892dbbb8dde7c" target="_top" xlink:title=" ">
<polygon fill="white" stroke="black" points="211.5,-534.5 211.5,-553.5 294.5,-553.5 294.5,-534.5 211.5,-534.5"/>
<text text-anchor="middle" x="253" y="-541.5" font-family="Helvetica,sans-Serif" font-size="10.00">parseVerbose</text>
</a>
</g>
</g>
<!-- Node2&#45;&gt;Node40 -->
<g id="edge47" class="edge">
<title>Node2&#45;&gt;Node40</title>
<path fill="none" stroke="midnightblue" d="M171.21,-544C181,-544 191.38,-544 201.33,-544"/>
<polygon fill="midnightblue" stroke="midnightblue" points="201.49,-547.5 211.49,-544 201.49,-540.5 201.49,-547.5"/>
</g>
<!-- Node41 -->
<g id="node41" class="node">
<title>Node41</title>
<g id="a_node41"><a xlink:href="byteman_8cpp.html#a8f7be31e158a1af17d28b26fdcb8653d" target="_top" xlink:title=" ">
<polygon fill="white" stroke="black" points="219,-496.5 219,-515.5 287,-515.5 287,-496.5 219,-496.5"/>
<text text-anchor="middle" x="253" y="-503.5" font-family="Helvetica,sans-Serif" font-size="10.00">parseWarn</text>
</a>
</g>
</g>
<!-- Node2&#45;&gt;Node41 -->
<g id="edge49" class="edge">
<title>Node2&#45;&gt;Node41</title>
<path fill="none" stroke="midnightblue" d="M157.05,-534.41C173.14,-529.6 192.84,-523.7 210.12,-518.53"/>
<polygon fill="midnightblue" stroke="midnightblue" points="211.39,-521.81 219.96,-515.59 209.38,-515.1 211.39,-521.81"/>
</g>
<!-- Node42 -->
<g id="node42" class="node">
<title>Node42</title>
<g id="a_node42"><a xlink:href="byteman_8cpp.html#a098d934d069c59b7087c186b8fae2ef6" target="_top" xlink:title=" ">
<polygon fill="white" stroke="black" points="226.5,-686.5 226.5,-705.5 279.5,-705.5 279.5,-686.5 226.5,-686.5"/>
<text text-anchor="middle" x="253" y="-693.5" font-family="Helvetica,sans-Serif" font-size="10.00">setArch</text>
</a>
</g>
</g>
<!-- Node2&#45;&gt;Node42 -->
<g id="edge51" class="edge">
<title>Node2&#45;&gt;Node42</title>
<path fill="none" stroke="midnightblue" d="M128.58,-553.77C137.86,-577.91 164.99,-640.98 207,-677 210.03,-679.6 213.46,-681.88 217.05,-683.88"/>
<polygon fill="midnightblue" stroke="midnightblue" points="215.62,-687.07 226.15,-688.27 218.67,-680.77 215.62,-687.07"/>
</g>
<!-- Node5 -->
<g id="node5" class="node">
<title>Node5</title>
<g id="a_node5"><a xlink:href="class_xilinx_ultra_scale_plus.html#a15434be327a556f42ae679ad8715f876" target="_top" xlink:title=" ">
<polygon fill="white" stroke="black" points="355,-757 355,-787 470,-787 470,-757 355,-757"/>
<text text-anchor="start" x="363" y="-775" font-family="Helvetica,sans-Serif" font-size="10.00">XilinxUltraScalePlus</text>
<text text-anchor="middle" x="412.5" y="-764" font-family="Helvetica,sans-Serif" font-size="10.00">::blank</text>
</a>
</g>
</g>
<!-- Node4&#45;&gt;Node5 -->
<g id="edge4" class="edge">
<title>Node4&#45;&gt;Node5</title>
<path fill="none" stroke="midnightblue" d="M288.56,-772C304.99,-772 325.21,-772 344.47,-772"/>
<polygon fill="midnightblue" stroke="midnightblue" points="344.73,-775.5 354.73,-772 344.73,-768.5 344.73,-775.5"/>
</g>
<!-- Node6 -->
<g id="node6" class="node">
<title>Node6</title>
<g id="a_node6"><a xlink:href="byteman_8cpp.html#a7387d6a5da2c3ae1a51a14b1c0855112" target="_top" xlink:title=" ">
<polygon fill="white" stroke="black" points="373,-677.5 373,-696.5 452,-696.5 452,-677.5 373,-677.5"/>
<text text-anchor="middle" x="412.5" y="-684.5" font-family="Helvetica,sans-Serif" font-size="10.00">getAllStrings</text>
</a>
</g>
</g>
<!-- Node4&#45;&gt;Node6 -->
<g id="edge5" class="edge">
<title>Node4&#45;&gt;Node6</title>
<path fill="none" stroke="midnightblue" d="M278.55,-762.32C285.26,-759.49 292.48,-756.27 299,-753 330.66,-737.11 365.64,-716 388.06,-701.97"/>
<polygon fill="midnightblue" stroke="midnightblue" points="389.97,-704.9 396.57,-696.61 386.24,-698.98 389.97,-704.9"/>
</g>
<!-- Node9 -->
<g id="node9" class="node">
<title>Node9</title>
<g id="a_node9"><a xlink:href="byteman_8cpp.html#abb94c0ff14dd633ff41b3b9f83ae0bd3" target="_top" xlink:title=" ">
<polygon fill="white" stroke="black" points="349,-414.5 349,-433.5 476,-433.5 476,-414.5 349,-414.5"/>
<text text-anchor="middle" x="412.5" y="-421.5" font-family="Helvetica,sans-Serif" font-size="10.00">getAllButLastStringArg</text>
</a>
</g>
</g>
<!-- Node8&#45;&gt;Node9 -->
<g id="edge8" class="edge">
<title>Node8&#45;&gt;Node9</title>
<path fill="none" stroke="midnightblue" d="M291.73,-399.66C310.5,-403.48 333.58,-408.17 354.46,-412.41"/>
<polygon fill="midnightblue" stroke="midnightblue" points="354,-415.89 364.5,-414.45 355.4,-409.03 354,-415.89"/>
</g>
<!-- Node10 -->
<g id="node10" class="node">
<title>Node10</title>
<g id="a_node10"><a xlink:href="class_xilinx_ultra_scale_plus.html#aa7161a5191cf43caf46263dbc82a45ef" target="_top" xlink:title=" ">
<polygon fill="white" stroke="black" points="335,-316 335,-346 490,-346 490,-316 335,-316"/>
<text text-anchor="start" x="343" y="-334" font-family="Helvetica,sans-Serif" font-size="10.00">XilinxUltraScalePlus</text>
<text text-anchor="middle" x="412.5" y="-323" font-family="Helvetica,sans-Serif" font-size="10.00">::getDeviceByNameOrThrow</text>
</a>
</g>
</g>
<!-- Node8&#45;&gt;Node10 -->
<g id="edge9" class="edge">
<title>Node8&#45;&gt;Node10</title>
<path fill="none" stroke="midnightblue" d="M273.02,-382.49C289.26,-374.58 313.35,-363.3 335,-355 340.12,-353.04 345.47,-351.11 350.87,-349.26"/>
<polygon fill="midnightblue" stroke="midnightblue" points="352.21,-352.5 360.58,-346 349.99,-345.86 352.21,-352.5"/>
</g>
<!-- Node11 -->
<g id="node11" class="node">
<title>Node11</title>
<g id="a_node11"><a xlink:href="byteman_8cpp.html#a00471d4a59c1bf585fbc1cdf2398a02d" target="_top" xlink:title=" ">
<polygon fill="white" stroke="black" points="363.5,-452.5 363.5,-471.5 461.5,-471.5 461.5,-452.5 363.5,-452.5"/>
<text text-anchor="middle" x="412.5" y="-459.5" font-family="Helvetica,sans-Serif" font-size="10.00">getLastStringArg</text>
</a>
</g>
</g>
<!-- Node8&#45;&gt;Node11 -->
<g id="edge10" class="edge">
<title>Node8&#45;&gt;Node11</title>
<path fill="none" stroke="midnightblue" d="M280.9,-401.66C287.04,-404.33 293.41,-407.47 299,-411 317.1,-422.43 316.06,-433.02 335,-443 340.72,-446.01 346.93,-448.56 353.27,-450.72"/>
<polygon fill="midnightblue" stroke="midnightblue" points="352.67,-454.2 363.26,-453.78 354.73,-447.5 352.67,-454.2"/>
</g>
<!-- Node12 -->
<g id="node12" class="node">
<title>Node12</title>
<g id="a_node12"><a xlink:href="class_xilinx_ultra_scale_plus.html#a762297dd90b02efcbb4a4aa0274dd34b" target="_top" xlink:title=" ">
<polygon fill="white" stroke="black" points="355,-267 355,-297 470,-297 470,-267 355,-267"/>
<text text-anchor="start" x="363" y="-285" font-family="Helvetica,sans-Serif" font-size="10.00">XilinxUltraScalePlus</text>
<text text-anchor="middle" x="412.5" y="-274" font-family="Helvetica,sans-Serif" font-size="10.00">::setDevice</text>
</a>
</g>
</g>
<!-- Node8&#45;&gt;Node12 -->
<g id="edge11" class="edge">
<title>Node8&#45;&gt;Node12</title>
<path fill="none" stroke="midnightblue" d="M260.4,-382.48C272.75,-364.83 301.63,-326.91 335,-306 338.35,-303.9 341.91,-301.97 345.57,-300.2"/>
<polygon fill="midnightblue" stroke="midnightblue" points="347.12,-303.34 354.87,-296.11 344.31,-296.93 347.12,-303.34"/>
</g>
<!-- Node14 -->
<g id="node14" class="node">
<title>Node14</title>
<g id="a_node14"><a xlink:href="help_8cpp.html#a2ef30c42cbc289d899a8be5d2d8f77d0" target="_top" xlink:title=" ">
<polygon fill="white" stroke="black" points="389.5,-190.5 389.5,-209.5 435.5,-209.5 435.5,-190.5 389.5,-190.5"/>
<text text-anchor="middle" x="412.5" y="-197.5" font-family="Helvetica,sans-Serif" font-size="10.00">usage</text>
</a>
</g>
</g>
<!-- Node13&#45;&gt;Node14 -->
<g id="edge13" class="edge">
<title>Node13&#45;&gt;Node14</title>
<path fill="none" stroke="midnightblue" d="M260.84,-289.45C273.49,-272.54 302.25,-237.38 335,-219 348.54,-211.4 365.11,-206.81 379.35,-204.05"/>
<polygon fill="midnightblue" stroke="midnightblue" points="379.98,-207.49 389.24,-202.34 378.8,-200.59 379.98,-207.49"/>
</g>
<!-- Node15 -->
<g id="node15" class="node">
<title>Node15</title>
<g id="a_node15"><a xlink:href="help_8cpp.html#ae0259929823a681afb82bc7391b0f69b" target="_top" xlink:title=" ">
<polygon fill="white" stroke="black" points="381.5,-228.5 381.5,-247.5 443.5,-247.5 443.5,-228.5 381.5,-228.5"/>
<text text-anchor="middle" x="412.5" y="-235.5" font-family="Helvetica,sans-Serif" font-size="10.00">usageArg</text>
</a>
</g>
</g>
<!-- Node13&#45;&gt;Node15 -->
<g id="edge14" class="edge">
<title>Node13&#45;&gt;Node15</title>
<path fill="none" stroke="midnightblue" d="M269.63,-289.49C285.58,-280.12 311.29,-265.95 335,-257 346.49,-252.66 359.32,-249.03 371.14,-246.15"/>
<polygon fill="midnightblue" stroke="midnightblue" points="372.27,-249.48 381.21,-243.8 370.68,-242.66 372.27,-249.48"/>
</g>
<!-- Node16 -->
<g id="node16" class="node">
<title>Node16</title>
<g id="a_node16"><a xlink:href="help_8cpp.html#aede32834476091f4eb0ae6749f41eacf" target="_top" xlink:title=" ">
<polygon fill="white" stroke="black" points="526,-456.5 526,-475.5 624,-475.5 624,-456.5 526,-456.5"/>
<text text-anchor="middle" x="575" y="-463.5" font-family="Helvetica,sans-Serif" font-size="10.00">usage_assembly</text>
</a>
</g>
</g>
<!-- Node15&#45;&gt;Node16 -->
<g id="edge15" class="edge">
<title>Node15&#45;&gt;Node16</title>
<path fill="none" stroke="midnightblue" d="M443.86,-238.07C459.73,-239.75 478.25,-244.57 490,-257 549.04,-319.46 471.25,-380.75 526,-447 527,-448.21 528.09,-449.34 529.24,-450.4"/>
<polygon fill="midnightblue" stroke="midnightblue" points="527.55,-453.5 537.74,-456.41 531.6,-447.78 527.55,-453.5"/>
</g>
<!-- Node17 -->
<g id="node17" class="node">
<title>Node17</title>
<g id="a_node17"><a xlink:href="help_8cpp.html#accc90fd0feeb842781a3e5f91b2d2146" target="_top" xlink:title=" ">
<polygon fill="white" stroke="black" points="536,-418.5 536,-437.5 614,-437.5 614,-418.5 536,-418.5"/>
<text text-anchor="middle" x="575" y="-425.5" font-family="Helvetica,sans-Serif" font-size="10.00">usage_blank</text>
</a>
</g>
</g>
<!-- Node15&#45;&gt;Node17 -->
<g id="edge16" class="edge">
<title>Node15&#45;&gt;Node17</title>
<path fill="none" stroke="midnightblue" d="M443.64,-238.28C459.45,-240.02 477.97,-244.84 490,-257 538.82,-306.36 480.58,-356.5 526,-409 527.03,-410.19 528.14,-411.3 529.31,-412.34"/>
<polygon fill="midnightblue" stroke="midnightblue" points="527.68,-415.47 537.9,-418.28 531.66,-409.71 527.68,-415.47"/>
</g>
<!-- Node18 -->
<g id="node18" class="node">
<title>Node18</title>
<g id="a_node18"><a xlink:href="help_8cpp.html#a5c779e76e21b34d6bb3b884ac1ef9083" target="_top" xlink:title=" ">
<polygon fill="white" stroke="black" points="532,-380.5 532,-399.5 618,-399.5 618,-380.5 532,-380.5"/>
<text text-anchor="middle" x="575" y="-387.5" font-family="Helvetica,sans-Serif" font-size="10.00">usage_change</text>
</a>
</g>
</g>
<!-- Node15&#45;&gt;Node18 -->
<g id="edge17" class="edge">
<title>Node15&#45;&gt;Node18</title>
<path fill="none" stroke="midnightblue" d="M443.68,-238.68C459.3,-240.56 477.63,-245.38 490,-257 528.73,-293.38 489.79,-332.12 526,-371 527.22,-372.31 528.54,-373.53 529.93,-374.66"/>
<polygon fill="midnightblue" stroke="midnightblue" points="528.34,-377.8 538.63,-380.31 532.15,-371.93 528.34,-377.8"/>
</g>
<!-- Node19 -->
<g id="node19" class="node">
<title>Node19</title>
<g id="a_node19"><a xlink:href="help_8cpp.html#a28714bd0b194f699df903e7bd994a768" target="_top" xlink:title=" ">
<polygon fill="white" stroke="black" points="533.5,-342.5 533.5,-361.5 616.5,-361.5 616.5,-342.5 533.5,-342.5"/>
<text text-anchor="middle" x="575" y="-349.5" font-family="Helvetica,sans-Serif" font-size="10.00">usage_device</text>
</a>
</g>
</g>
<!-- Node15&#45;&gt;Node19 -->
<g id="edge18" class="edge">
<title>Node15&#45;&gt;Node19</title>
<path fill="none" stroke="midnightblue" d="M443.82,-239.48C459.1,-241.61 477.08,-246.43 490,-257 518.92,-280.67 498.72,-307.45 526,-333 527.65,-334.54 529.44,-335.97 531.32,-337.28"/>
<polygon fill="midnightblue" stroke="midnightblue" points="529.66,-340.36 540.07,-342.35 533.17,-334.31 529.66,-340.36"/>
</g>
<!-- Node22 -->
<g id="node22" class="node">
<title>Node22</title>
<g id="a_node22"><a xlink:href="help_8cpp.html#a89a232fcf363da02884b15625ea242b1" target="_top" xlink:title=" ">
<polygon fill="white" stroke="black" points="540.5,-304.5 540.5,-323.5 609.5,-323.5 609.5,-304.5 540.5,-304.5"/>
<text text-anchor="middle" x="575" y="-311.5" font-family="Helvetica,sans-Serif" font-size="10.00">usage_end</text>
</a>
</g>
</g>
<!-- Node15&#45;&gt;Node22 -->
<g id="edge21" class="edge">
<title>Node15&#45;&gt;Node22</title>
<path fill="none" stroke="midnightblue" d="M443.69,-241.45C458.41,-244.11 475.93,-248.8 490,-257 510.1,-268.72 506.73,-281.97 526,-295 528.75,-296.86 531.7,-298.58 534.75,-300.15"/>
<polygon fill="midnightblue" stroke="midnightblue" points="533.5,-303.43 544.04,-304.48 536.45,-297.09 533.5,-303.43"/>
</g>
<!-- Node23 -->
<g id="node23" class="node">
<title>Node23</title>
<g id="a_node23"><a xlink:href="help_8cpp.html#af1a5368922439cb186899b545fd1965e" target="_top" xlink:title=" ">
<polygon fill="white" stroke="black" points="539,-266.5 539,-285.5 611,-285.5 611,-266.5 539,-266.5"/>
<text text-anchor="middle" x="575" y="-273.5" font-family="Helvetica,sans-Serif" font-size="10.00">usage_help</text>
</a>
</g>
</g>
<!-- Node15&#45;&gt;Node23 -->
<g id="edge22" class="edge">
<title>Node15&#45;&gt;Node23</title>
<path fill="none" stroke="midnightblue" d="M443.69,-245.15C467.68,-250.83 501.62,-258.86 528.85,-265.31"/>
<polygon fill="midnightblue" stroke="midnightblue" points="528.38,-268.8 538.92,-267.69 529.99,-261.98 528.38,-268.8"/>
</g>
<!-- Node24 -->
<g id="node24" class="node">
<title>Node24</title>
<g id="a_node24"><a xlink:href="help_8cpp.html#a120f05cbb24b01b4bcae94229814418b" target="_top" xlink:title=" ">
<polygon fill="white" stroke="black" points="537,-228.5 537,-247.5 613,-247.5 613,-228.5 537,-228.5"/>
<text text-anchor="middle" x="575" y="-235.5" font-family="Helvetica,sans-Serif" font-size="10.00">usage_input</text>
</a>
</g>
</g>
<!-- Node15&#45;&gt;Node24 -->
<g id="edge23" class="edge">
<title>Node15&#45;&gt;Node24</title>
<path fill="none" stroke="midnightblue" d="M443.69,-238C467.02,-238 499.74,-238 526.56,-238"/>
<polygon fill="midnightblue" stroke="midnightblue" points="526.89,-241.5 536.89,-238 526.89,-234.5 526.89,-241.5"/>
</g>
<!-- Node25 -->
<g id="node25" class="node">
<title>Node25</title>
<g id="a_node25"><a xlink:href="help_8cpp.html#a2aa5b9213acbbf68d4d14ed00ea4ee4c" target="_top" xlink:title=" ">
<polygon fill="white" stroke="black" points="533.5,-190.5 533.5,-209.5 616.5,-209.5 616.5,-190.5 533.5,-190.5"/>
<text text-anchor="middle" x="575" y="-197.5" font-family="Helvetica,sans-Serif" font-size="10.00">usage_merge</text>
</a>
</g>
</g>
<!-- Node15&#45;&gt;Node25 -->
<g id="edge24" class="edge">
<title>Node15&#45;&gt;Node25</title>
<path fill="none" stroke="midnightblue" d="M443.69,-230.85C466.23,-225.51 497.56,-218.1 523.84,-211.88"/>
<polygon fill="midnightblue" stroke="midnightblue" points="524.72,-215.27 533.64,-209.56 523.1,-208.45 524.72,-215.27"/>
</g>
<!-- Node26 -->
<g id="node26" class="node">
<title>Node26</title>
<g id="a_node26"><a xlink:href="help_8cpp.html#ac40cf37cc9ea9b9a8f099b4974724fad" target="_top" xlink:title=" ">
<polygon fill="white" stroke="black" points="533.5,-152.5 533.5,-171.5 616.5,-171.5 616.5,-152.5 533.5,-152.5"/>
<text text-anchor="middle" x="575" y="-159.5" font-family="Helvetica,sans-Serif" font-size="10.00">usage_output</text>
</a>
</g>
</g>
<!-- Node15&#45;&gt;Node26 -->
<g id="edge25" class="edge">
<title>Node15&#45;&gt;Node26</title>
<path fill="none" stroke="midnightblue" d="M443.69,-234.55C458.41,-231.89 475.93,-227.2 490,-219 510.1,-207.28 506.73,-194.03 526,-181 528.75,-179.14 531.7,-177.42 534.75,-175.85"/>
<polygon fill="midnightblue" stroke="midnightblue" points="536.45,-178.91 544.04,-171.52 533.5,-172.57 536.45,-178.91"/>
</g>
<!-- Node27 -->
<g id="node27" class="node">
<title>Node27</title>
<g id="a_node27"><a xlink:href="help_8cpp.html#adf57083eb4a99d6885783b9bb106890e" target="_top" xlink:title=" ">
<polygon fill="white" stroke="black" points="534,-114.5 534,-133.5 616,-133.5 616,-114.5 534,-114.5"/>
<text text-anchor="middle" x="575" y="-121.5" font-family="Helvetica,sans-Serif" font-size="10.00">usage_region</text>
</a>
</g>
</g>
<!-- Node15&#45;&gt;Node27 -->
<g id="edge26" class="edge">
<title>Node15&#45;&gt;Node27</title>
<path fill="none" stroke="midnightblue" d="M443.82,-236.52C459.1,-234.39 477.08,-229.57 490,-219 518.92,-195.33 498.72,-168.55 526,-143 527.65,-141.46 529.44,-140.03 531.32,-138.72"/>
<polygon fill="midnightblue" stroke="midnightblue" points="533.17,-141.69 540.07,-133.65 529.66,-135.64 533.17,-141.69"/>
</g>
<!-- Node28 -->
<g id="node28" class="node">
<title>Node28</title>
<g id="a_node28"><a xlink:href="help_8cpp.html#a49223a995301022ffb657717122d88de" target="_top" xlink:title=" ">
<polygon fill="white" stroke="black" points="537.5,-76.5 537.5,-95.5 612.5,-95.5 612.5,-76.5 537.5,-76.5"/>
<text text-anchor="middle" x="575" y="-83.5" font-family="Helvetica,sans-Serif" font-size="10.00">usage_stdin</text>
</a>
</g>
</g>
<!-- Node15&#45;&gt;Node28 -->
<g id="edge27" class="edge">
<title>Node15&#45;&gt;Node28</title>
<path fill="none" stroke="midnightblue" d="M443.68,-237.32C459.3,-235.44 477.63,-230.62 490,-219 528.73,-182.62 489.79,-143.88 526,-105 527.22,-103.69 528.54,-102.47 529.93,-101.34"/>
<polygon fill="midnightblue" stroke="midnightblue" points="532.15,-104.07 538.63,-95.69 528.34,-98.2 532.15,-104.07"/>
</g>
<!-- Node29 -->
<g id="node29" class="node">
<title>Node29</title>
<g id="a_node29"><a xlink:href="help_8cpp.html#a46c7d0d124e51b373e20ad7fc73278d4" target="_top" xlink:title=" ">
<polygon fill="white" stroke="black" points="530,-38.5 530,-57.5 620,-57.5 620,-38.5 530,-38.5"/>
<text text-anchor="middle" x="575" y="-45.5" font-family="Helvetica,sans-Serif" font-size="10.00">usage_verbose</text>
</a>
</g>
</g>
<!-- Node15&#45;&gt;Node29 -->
<g id="edge28" class="edge">
<title>Node15&#45;&gt;Node29</title>
<path fill="none" stroke="midnightblue" d="M443.64,-237.72C459.45,-235.98 477.97,-231.16 490,-219 538.82,-169.64 480.58,-119.5 526,-67 527.03,-65.81 528.14,-64.7 529.31,-63.66"/>
<polygon fill="midnightblue" stroke="midnightblue" points="531.66,-66.29 537.9,-57.72 527.68,-60.53 531.66,-66.29"/>
</g>
<!-- Node30 -->
<g id="node30" class="node">
<title>Node30</title>
<g id="a_node30"><a xlink:href="help_8cpp.html#a33a04cbd434c5ebe2c0113f5acb2c089" target="_top" xlink:title=" ">
<polygon fill="white" stroke="black" points="537.5,-0.5 537.5,-19.5 612.5,-19.5 612.5,-0.5 537.5,-0.5"/>
<text text-anchor="middle" x="575" y="-7.5" font-family="Helvetica,sans-Serif" font-size="10.00">usage_warn</text>
</a>
</g>
</g>
<!-- Node15&#45;&gt;Node30 -->
<g id="edge29" class="edge">
<title>Node15&#45;&gt;Node30</title>
<path fill="none" stroke="midnightblue" d="M443.86,-237.93C459.73,-236.25 478.25,-231.43 490,-219 549.04,-156.54 471.25,-95.25 526,-29 527,-27.79 528.09,-26.66 529.24,-25.6"/>
<polygon fill="midnightblue" stroke="midnightblue" points="531.6,-28.22 537.74,-19.59 527.55,-22.5 531.6,-28.22"/>
</g>
<!-- Node20 -->
<g id="node20" class="node">
<title>Node20</title>
<g id="a_node20"><a xlink:href="byteman_8cpp.html#a23beb5409443799c43ba81c405375f4f" target="_top" xlink:title=" ">
<polygon fill="white" stroke="black" points="660,-342.5 660,-361.5 750,-361.5 750,-342.5 660,-342.5"/>
<text text-anchor="middle" x="705" y="-349.5" font-family="Helvetica,sans-Serif" font-size="10.00">printDeviceList</text>
</a>
</g>
</g>
<!-- Node19&#45;&gt;Node20 -->
<g id="edge19" class="edge">
<title>Node19&#45;&gt;Node20</title>
<path fill="none" stroke="midnightblue" d="M616.85,-352C627.38,-352 638.88,-352 649.97,-352"/>
<polygon fill="midnightblue" stroke="midnightblue" points="650,-355.5 660,-352 650,-348.5 650,-355.5"/>
</g>
<!-- Node21 -->
<g id="node21" class="node">
<title>Node21</title>
<g id="a_node21"><a xlink:href="class_xilinx_ultra_scale_plus.html#ad7b956985959fc268e85fd2c528d81a5" target="_top" xlink:title=" ">
<polygon fill="white" stroke="black" points="786,-337 786,-367 901,-367 901,-337 786,-337"/>
<text text-anchor="start" x="794" y="-355" font-family="Helvetica,sans-Serif" font-size="10.00">XilinxUltraScalePlus</text>
<text text-anchor="middle" x="843.5" y="-344" font-family="Helvetica,sans-Serif" font-size="10.00">::printDeviceList</text>
</a>
</g>
</g>
<!-- Node20&#45;&gt;Node21 -->
<g id="edge20" class="edge">
<title>Node20&#45;&gt;Node21</title>
<path fill="none" stroke="midnightblue" d="M750.32,-352C758.49,-352 767.18,-352 775.84,-352"/>
<polygon fill="midnightblue" stroke="midnightblue" points="775.95,-355.5 785.95,-352 775.95,-348.5 775.95,-355.5"/>
</g>
<!-- Node31&#45;&gt;Node9 -->
<g id="edge31" class="edge">
<title>Node31&#45;&gt;Node9</title>
<path fill="none" stroke="midnightblue" d="M287.02,-428.74C302.16,-428.17 320.76,-427.46 338.92,-426.76"/>
<polygon fill="midnightblue" stroke="midnightblue" points="339.08,-430.26 348.94,-426.38 338.81,-423.27 339.08,-430.26"/>
</g>
<!-- Node31&#45;&gt;Node11 -->
<g id="edge32" class="edge">
<title>Node31&#45;&gt;Node11</title>
<path fill="none" stroke="midnightblue" d="M287.02,-436.71C306.58,-440.68 331.91,-445.83 354.61,-450.44"/>
<polygon fill="midnightblue" stroke="midnightblue" points="353.99,-453.89 364.49,-452.45 355.38,-447.03 353.99,-453.89"/>
</g>
<!-- Node32 -->
<g id="node32" class="node">
<title>Node32</title>
<g id="a_node32"><a xlink:href="class_xilinx_ultra_scale_plus.html#a0e5d08a2e5c37a29a1a04d50b48739d2" target="_top" xlink:title=" ">
<polygon fill="white" stroke="black" points="355,-365 355,-395 470,-395 470,-365 355,-365"/>
<text text-anchor="start" x="363" y="-383" font-family="Helvetica,sans-Serif" font-size="10.00">XilinxUltraScalePlus</text>
<text text-anchor="middle" x="412.5" y="-372" font-family="Helvetica,sans-Serif" font-size="10.00">::readBitstream</text>
</a>
</g>
</g>
<!-- Node31&#45;&gt;Node32 -->
<g id="edge33" class="edge">
<title>Node31&#45;&gt;Node32</title>
<path fill="none" stroke="midnightblue" d="M284,-420.48C303.84,-414.18 330.5,-405.71 354.31,-398.16"/>
<polygon fill="midnightblue" stroke="midnightblue" points="355.49,-401.45 363.96,-395.09 353.37,-394.78 355.49,-401.45"/>
</g>
<!-- Node33&#45;&gt;Node6 -->
<g id="edge35" class="edge">
<title>Node33&#45;&gt;Node6</title>
<path fill="none" stroke="midnightblue" d="M284.71,-591.66C289.85,-594.16 294.85,-597.24 299,-601 323.78,-623.42 308.68,-646.42 335,-667 343.11,-673.34 353.04,-677.68 363.01,-680.65"/>
<polygon fill="midnightblue" stroke="midnightblue" points="362.39,-684.11 372.95,-683.19 364.12,-677.33 362.39,-684.11"/>
</g>
<!-- Node34 -->
<g id="node34" class="node">
<title>Node34</title>
<g id="a_node34"><a xlink:href="byteman_8cpp.html#a7e6d949e69ac4f52a80dad0b6d62de02" target="_top" xlink:title=" ">
<polygon fill="white" stroke="black" points="381.5,-540.5 381.5,-559.5 443.5,-559.5 443.5,-540.5 381.5,-540.5"/>
<text text-anchor="middle" x="412.5" y="-547.5" font-family="Helvetica,sans-Serif" font-size="10.00">getNthInt</text>
</a>
</g>
</g>
<!-- Node33&#45;&gt;Node34 -->
<g id="edge36" class="edge">
<title>Node33&#45;&gt;Node34</title>
<path fill="none" stroke="midnightblue" d="M290.13,-574.66C314.4,-569.73 346.39,-563.23 371.44,-558.14"/>
<polygon fill="midnightblue" stroke="midnightblue" points="372.25,-561.55 381.35,-556.12 370.86,-554.69 372.25,-561.55"/>
</g>
<!-- Node35 -->
<g id="node35" class="node">
<title>Node35</title>
<g id="a_node35"><a xlink:href="class_xilinx_ultra_scale_plus.html#a2736a4556848cdea1b411ef5d4a2fd56" target="_top" xlink:title=" ">
<polygon fill="white" stroke="black" points="355,-579 355,-609 470,-609 470,-579 355,-579"/>
<text text-anchor="start" x="363" y="-597" font-family="Helvetica,sans-Serif" font-size="10.00">XilinxUltraScalePlus</text>
<text text-anchor="middle" x="412.5" y="-586" font-family="Helvetica,sans-Serif" font-size="10.00">::merge</text>
</a>
</g>
</g>
<!-- Node33&#45;&gt;Node35 -->
<g id="edge37" class="edge">
<title>Node33&#45;&gt;Node35</title>
<path fill="none" stroke="midnightblue" d="M290.13,-584.75C306.38,-585.99 326.08,-587.49 344.85,-588.92"/>
<polygon fill="midnightblue" stroke="midnightblue" points="344.61,-592.41 354.85,-589.68 345.14,-585.43 344.61,-592.41"/>
</g>
<!-- Node36&#45;&gt;Node9 -->
<g id="edge39" class="edge">
<title>Node36&#45;&gt;Node9</title>
<path fill="none" stroke="midnightblue" d="M283.51,-458.46C298.81,-453.62 317.84,-447.77 335,-443 343.53,-440.63 352.62,-438.24 361.46,-436"/>
<polygon fill="midnightblue" stroke="midnightblue" points="362.44,-439.36 371.29,-433.54 360.74,-432.57 362.44,-439.36"/>
</g>
<!-- Node36&#45;&gt;Node11 -->
<g id="edge40" class="edge">
<title>Node36&#45;&gt;Node11</title>
<path fill="none" stroke="midnightblue" d="M291.73,-466.56C310.1,-465.86 332.61,-465.01 353.13,-464.22"/>
<polygon fill="midnightblue" stroke="midnightblue" points="353.47,-467.71 363.33,-463.83 353.21,-460.72 353.47,-467.71"/>
</g>
<!-- Node36&#45;&gt;Node34 -->
<g id="edge41" class="edge">
<title>Node36&#45;&gt;Node34</title>
<path fill="none" stroke="midnightblue" d="M282.71,-477.71C288.38,-480.28 294.09,-483.37 299,-487 319.04,-501.82 313.95,-516.66 335,-530 345.87,-536.89 359.04,-541.41 371.36,-544.38"/>
<polygon fill="midnightblue" stroke="midnightblue" points="370.94,-547.87 381.45,-546.53 372.4,-541.02 370.94,-547.87"/>
</g>
<!-- Node37 -->
<g id="node37" class="node">
<title>Node37</title>
<g id="a_node37"><a xlink:href="class_xilinx_ultra_scale_plus.html#aecdb65a64d91cb6bcc3a920ac6e55692" target="_top" xlink:title=" ">
<polygon fill="white" stroke="black" points="355,-491 355,-521 470,-521 470,-491 355,-491"/>
<text text-anchor="start" x="363" y="-509" font-family="Helvetica,sans-Serif" font-size="10.00">XilinxUltraScalePlus</text>
<text text-anchor="middle" x="412.5" y="-498" font-family="Helvetica,sans-Serif" font-size="10.00">::writeBitstream</text>
</a>
</g>
</g>
<!-- Node36&#45;&gt;Node37 -->
<g id="edge42" class="edge">
<title>Node36&#45;&gt;Node37</title>
<path fill="none" stroke="midnightblue" d="M291.73,-477.1C307.77,-480.97 326.97,-485.61 345.25,-490.01"/>
<polygon fill="midnightblue" stroke="midnightblue" points="344.44,-493.42 354.99,-492.36 346.09,-486.62 344.44,-493.42"/>
</g>
<!-- Node38&#45;&gt;Node6 -->
<g id="edge44" class="edge">
<title>Node38&#45;&gt;Node6</title>
<path fill="none" stroke="midnightblue" d="M279.79,-629.53C286.23,-632.27 293,-635.48 299,-639 316.49,-649.25 316.82,-658.03 335,-667 343.68,-671.28 353.38,-674.72 362.88,-677.46"/>
<polygon fill="midnightblue" stroke="midnightblue" points="362.1,-680.87 372.66,-680.07 363.9,-674.11 362.1,-680.87"/>
</g>
<!-- Node38&#45;&gt;Node34 -->
<g id="edge45" class="edge">
<title>Node38&#45;&gt;Node34</title>
<path fill="none" stroke="midnightblue" d="M280.9,-610.34C287.04,-607.67 293.41,-604.53 299,-601 317.1,-589.57 316.06,-578.98 335,-569 346.16,-563.12 359.2,-559.01 371.33,-556.16"/>
<polygon fill="midnightblue" stroke="midnightblue" points="372.18,-559.55 381.23,-554.05 370.72,-552.71 372.18,-559.55"/>
</g>
<!-- Node39 -->
<g id="node39" class="node">
<title>Node39</title>
<g id="a_node39"><a xlink:href="class_xilinx_ultra_scale_plus.html#ab0f4022be98e6a142e5a9331e7ed79ea" target="_top" xlink:title=" ">
<polygon fill="white" stroke="black" points="355,-628 355,-658 470,-658 470,-628 355,-628"/>
<text text-anchor="start" x="363" y="-646" font-family="Helvetica,sans-Serif" font-size="10.00">XilinxUltraScalePlus</text>
<text text-anchor="middle" x="412.5" y="-635" font-family="Helvetica,sans-Serif" font-size="10.00">::region</text>
</a>
</g>
</g>
<!-- Node38&#45;&gt;Node39 -->
<g id="edge46" class="edge">
<title>Node38&#45;&gt;Node39</title>
<path fill="none" stroke="midnightblue" d="M291.73,-625.51C307.7,-627.84 326.79,-630.63 344.99,-633.29"/>
<polygon fill="midnightblue" stroke="midnightblue" points="344.59,-636.77 354.99,-634.75 345.6,-629.84 344.59,-636.77"/>
</g>
<!-- Node40&#45;&gt;Node34 -->
<g id="edge48" class="edge">
<title>Node40&#45;&gt;Node34</title>
<path fill="none" stroke="midnightblue" d="M294.56,-545.55C318.06,-546.44 347.55,-547.56 371.03,-548.46"/>
<polygon fill="midnightblue" stroke="midnightblue" points="370.9,-551.96 381.03,-548.84 371.17,-544.96 370.9,-551.96"/>
</g>
<!-- Node41&#45;&gt;Node34 -->
<g id="edge50" class="edge">
<title>Node41&#45;&gt;Node34</title>
<path fill="none" stroke="midnightblue" d="M285.47,-515.58C300.44,-520.07 318.61,-525.43 335,-530 346.76,-533.28 359.58,-536.69 371.31,-539.75"/>
<polygon fill="midnightblue" stroke="midnightblue" points="370.72,-543.22 381.28,-542.34 372.48,-536.44 370.72,-543.22"/>
</g>
</g>
</svg>
