<?xml version="1.0" encoding="UTF-8" standalone="no"?>
<!DOCTYPE svg PUBLIC "-//W3C//DTD SVG 1.1//EN"
 "http://www.w3.org/Graphics/SVG/1.1/DTD/svg11.dtd">
<!-- Generated by graphviz version 2.43.0 (0)
 -->
<!-- Title: src/byteman.cpp Pages: 1 -->
<!--zoomable 151 -->
<svg id="main" version="1.1" xmlns="http://www.w3.org/2000/svg" xmlns:xlink="http://www.w3.org/1999/xlink" xml:space="preserve" onload="init(evt)">
<style type="text/css"><![CDATA[
.edge:hover path { stroke: red; }
.edge:hover polygon { stroke: red; fill: red; }
]]></style>
<script type="text/javascript"><![CDATA[
var edges = document.getElementsByTagName('g');
if (edges && edges.length) {
  for (var i=0;i<edges.length;i++) {
    if (edges[i].id.substr(0,4)=='edge') {
      edges[i].setAttribute('class','edge');
    }
  }
}
]]></script>
        <defs>
                <circle id="rim" cx="0" cy="0" r="7"/>
                <circle id="rim2" cx="0" cy="0" r="3.5"/>
                <g id="zoomPlus">
                        <use xlink:href="#rim" fill="#404040">
                                <set attributeName="fill" to="#808080" begin="zoomplus.mouseover" end="zoomplus.mouseout"/>
                        </use>
                        <path d="M-4,0h8M0,-4v8" fill="none" stroke="white" stroke-width="1.5" pointer-events="none"/>
                </g>
                <g id="zoomMin">
                        <use xlink:href="#rim" fill="#404040">
                                <set attributeName="fill" to="#808080" begin="zoomminus.mouseover" end="zoomminus.mouseout"/>
                        </use>
                        <path d="M-4,0h8" fill="none" stroke="white" stroke-width="1.5" pointer-events="none"/>
                </g>
                <g id="dirArrow">
                        <path fill="none" stroke="white" stroke-width="1.5" d="M0,-3.0v7 M-2.5,-0.5L0,-3.0L2.5,-0.5"/>
                </g>
               <g id="resetDef">
                       <use xlink:href="#rim2" fill="#404040">
                               <set attributeName="fill" to="#808080" begin="reset.mouseover" end="reset.mouseout"/>
                       </use>
               </g>
        </defs>

<script type="text/javascript">
var viewWidth = 972;
var viewHeight = 151;
var sectionId = 'dynsection-0';
</script>
<script xlink:href="svgpan.js"/>
<svg id="graph" class="graph">
<g id="viewport">
<title>src/byteman.cpp</title>
<polygon fill="white" stroke="transparent" points="-4,4 -4,-147 967.89,-147 967.89,4 -4,4"/>
<!-- Node1 -->
<g id="node1" class="node">
<title>Node1</title>
<g id="a_node1"><a xlink:title=" ">
<polygon fill="#bfbfbf" stroke="black" points="304.39,-123.5 304.39,-142.5 402.39,-142.5 402.39,-123.5 304.39,-123.5"/>
<text text-anchor="middle" x="353.39" y="-130.5" font-family="Helvetica,sans-Serif" font-size="10.00">src/byteman.cpp</text>
</a>
</g>
</g>
<!-- Node2 -->
<g id="node2" class="node">
<title>Node2</title>
<g id="a_node2"><a xlink:title=" ">
<polygon fill="white" stroke="#bfbfbf" points="220.39,-0.5 220.39,-19.5 280.39,-19.5 280.39,-0.5 220.39,-0.5"/>
<text text-anchor="middle" x="250.39" y="-7.5" font-family="Helvetica,sans-Serif" font-size="10.00">iostream</text>
</a>
</g>
</g>
<!-- Node1&#45;&gt;Node2 -->
<g id="edge1" class="edge">
<title>Node1&#45;&gt;Node2</title>
<path fill="none" stroke="midnightblue" d="M304.21,-129.07C214.19,-123.19 30.39,-108.67 11.39,-87 -45.41,-22.24 128.3,-12.18 210.17,-10.96"/>
<polygon fill="midnightblue" stroke="midnightblue" points="210.42,-14.46 220.38,-10.84 210.35,-7.46 210.42,-14.46"/>
</g>
<!-- Node3 -->
<g id="node3" class="node">
<title>Node3</title>
<g id="a_node3"><a xlink:title=" ">
<polygon fill="white" stroke="#bfbfbf" points="20.89,-62 20.89,-81 85.89,-81 85.89,-62 20.89,-62"/>
<text text-anchor="middle" x="53.39" y="-69" font-family="Helvetica,sans-Serif" font-size="10.00">stdexcept</text>
</a>
</g>
</g>
<!-- Node1&#45;&gt;Node3 -->
<g id="edge2" class="edge">
<title>Node1&#45;&gt;Node3</title>
<path fill="none" stroke="midnightblue" d="M303.91,-125.76C251.6,-118.62 166.93,-105.46 95.39,-87 92.35,-86.22 89.21,-85.31 86.09,-84.35"/>
<polygon fill="midnightblue" stroke="midnightblue" points="86.88,-80.93 76.29,-81.15 84.71,-87.58 86.88,-80.93"/>
</g>
<!-- Node4 -->
<g id="node4" class="node">
<title>Node4</title>
<g id="a_node4"><a xlink:title=" ">
<polygon fill="white" stroke="#bfbfbf" points="104.39,-62 104.39,-81 168.39,-81 168.39,-62 104.39,-62"/>
<text text-anchor="middle" x="136.39" y="-69" font-family="Helvetica,sans-Serif" font-size="10.00">algorithm</text>
</a>
</g>
</g>
<!-- Node1&#45;&gt;Node4 -->
<g id="edge3" class="edge">
<title>Node1&#45;&gt;Node4</title>
<path fill="none" stroke="midnightblue" d="M316.04,-123.48C280.22,-115.06 224.76,-101.4 177.39,-87 174.77,-86.2 172.07,-85.34 169.36,-84.45"/>
<polygon fill="midnightblue" stroke="midnightblue" points="170.28,-81.06 159.68,-81.15 168.02,-87.69 170.28,-81.06"/>
</g>
<!-- Node5 -->
<g id="node5" class="node">
<title>Node5</title>
<g id="a_node5"><a xlink:title=" ">
<polygon fill="white" stroke="#bfbfbf" points="186.39,-62 186.39,-81 236.39,-81 236.39,-62 186.39,-62"/>
<text text-anchor="middle" x="211.39" y="-69" font-family="Helvetica,sans-Serif" font-size="10.00">stdio.h</text>
</a>
</g>
</g>
<!-- Node1&#45;&gt;Node5 -->
<g id="edge4" class="edge">
<title>Node1&#45;&gt;Node5</title>
<path fill="none" stroke="midnightblue" d="M332.66,-123.42C310.9,-114.41 275.71,-99.78 245.39,-87 243.98,-86.41 242.55,-85.8 241.09,-85.19"/>
<polygon fill="midnightblue" stroke="midnightblue" points="242.08,-81.8 231.51,-81.12 239.35,-88.25 242.08,-81.8"/>
</g>
<!-- Node6 -->
<g id="node6" class="node">
<title>Node6</title>
<g id="a_node6"><a xlink:title=" ">
<polygon fill="white" stroke="#bfbfbf" points="254.89,-62 254.89,-81 307.89,-81 307.89,-62 254.89,-62"/>
<text text-anchor="middle" x="281.39" y="-69" font-family="Helvetica,sans-Serif" font-size="10.00">string.h</text>
</a>
</g>
</g>
<!-- Node1&#45;&gt;Node6 -->
<g id="edge5" class="edge">
<title>Node1&#45;&gt;Node6</title>
<path fill="none" stroke="midnightblue" d="M343.07,-123.48C331.74,-114.11 313.31,-98.88 299.55,-87.51"/>
<polygon fill="midnightblue" stroke="midnightblue" points="301.62,-84.68 291.68,-81.01 297.16,-90.08 301.62,-84.68"/>
</g>
<!-- Node7 -->
<g id="node7" class="node">
<title>Node7</title>
<g id="a_node7"><a xlink:title=" ">
<polygon fill="white" stroke="#bfbfbf" points="326.39,-62 326.39,-81 380.39,-81 380.39,-62 326.39,-62"/>
<text text-anchor="middle" x="353.39" y="-69" font-family="Helvetica,sans-Serif" font-size="10.00">istream</text>
</a>
</g>
</g>
<!-- Node1&#45;&gt;Node7 -->
<g id="edge6" class="edge">
<title>Node1&#45;&gt;Node7</title>
<path fill="none" stroke="midnightblue" d="M353.39,-123.48C353.39,-115.08 353.39,-101.98 353.39,-91.16"/>
<polygon fill="midnightblue" stroke="midnightblue" points="356.89,-91.01 353.39,-81.01 349.89,-91.01 356.89,-91.01"/>
</g>
<!-- Node8 -->
<g id="node8" class="node">
<title>Node8</title>
<g id="a_node8"><a xlink:title=" ">
<polygon fill="white" stroke="#bfbfbf" points="398.89,-62 398.89,-81 455.89,-81 455.89,-62 398.89,-62"/>
<text text-anchor="middle" x="427.39" y="-69" font-family="Helvetica,sans-Serif" font-size="10.00">ostream</text>
</a>
</g>
</g>
<!-- Node1&#45;&gt;Node8 -->
<g id="edge7" class="edge">
<title>Node1&#45;&gt;Node8</title>
<path fill="none" stroke="midnightblue" d="M363.99,-123.48C375.64,-114.11 394.57,-98.88 408.72,-87.51"/>
<polygon fill="midnightblue" stroke="midnightblue" points="411.2,-90 416.8,-81.01 406.82,-84.55 411.2,-90"/>
</g>
<!-- Node9 -->
<g id="node9" class="node">
<title>Node9</title>
<g id="a_node9"><a xlink:title=" ">
<polygon fill="white" stroke="#bfbfbf" points="616.39,-0.5 616.39,-19.5 660.39,-19.5 660.39,-0.5 616.39,-0.5"/>
<text text-anchor="middle" x="638.39" y="-7.5" font-family="Helvetica,sans-Serif" font-size="10.00">string</text>
</a>
</g>
</g>
<!-- Node1&#45;&gt;Node9 -->
<g id="edge8" class="edge">
<title>Node1&#45;&gt;Node9</title>
<path fill="none" stroke="midnightblue" d="M402.64,-130.59C472.65,-127.51 595.84,-117.76 626.39,-87 641.13,-72.15 642.33,-47.01 641.03,-29.74"/>
<polygon fill="midnightblue" stroke="midnightblue" points="644.5,-29.27 639.94,-19.71 637.54,-30.03 644.5,-29.27"/>
</g>
<!-- Node10 -->
<g id="node10" class="node">
<title>Node10</title>
<g id="a_node10"><a xlink:title=" ">
<polygon fill="white" stroke="#bfbfbf" points="561.39,-62 561.39,-81 617.39,-81 617.39,-62 561.39,-62"/>
<text text-anchor="middle" x="589.39" y="-69" font-family="Helvetica,sans-Serif" font-size="10.00">sstream</text>
</a>
</g>
</g>
<!-- Node1&#45;&gt;Node10 -->
<g id="edge9" class="edge">
<title>Node1&#45;&gt;Node10</title>
<path fill="none" stroke="midnightblue" d="M399.48,-123.44C439.92,-115.48 500.1,-102.53 551.39,-87 553.96,-86.22 556.61,-85.35 559.25,-84.44"/>
<polygon fill="midnightblue" stroke="midnightblue" points="560.46,-87.72 568.66,-81.01 558.07,-81.15 560.46,-87.72"/>
</g>
<!-- Node11 -->
<g id="node11" class="node">
<title>Node11</title>
<g id="a_node11"><a xlink:href="byteman_8h.html" target="_top" xlink:title=" ">
<polygon fill="white" stroke="black" points="473.89,-62 473.89,-81 542.89,-81 542.89,-62 473.89,-62"/>
<text text-anchor="middle" x="508.39" y="-69" font-family="Helvetica,sans-Serif" font-size="10.00">byteman.h</text>
</a>
</g>
</g>
<!-- Node1&#45;&gt;Node11 -->
<g id="edge10" class="edge">
<title>Node1&#45;&gt;Node11</title>
<path fill="none" stroke="midnightblue" d="M375.59,-123.48C402.07,-113.31 446.5,-96.26 476.61,-84.7"/>
<polygon fill="midnightblue" stroke="midnightblue" points="478.14,-87.86 486.22,-81.01 475.63,-81.33 478.14,-87.86"/>
</g>
<!-- Node12 -->
<g id="node12" class="node">
<title>Node12</title>
<g id="a_node12"><a xlink:href="_xilinx_ultra_scale_plus_8h.html" target="_top" xlink:title=" ">
<polygon fill="white" stroke="black" points="680.89,-56.5 680.89,-86.5 827.89,-86.5 827.89,-56.5 680.89,-56.5"/>
<text text-anchor="start" x="688.89" y="-74.5" font-family="Helvetica,sans-Serif" font-size="10.00">Devices/Xilinx/UltraScale</text>
<text text-anchor="middle" x="754.39" y="-63.5" font-family="Helvetica,sans-Serif" font-size="10.00">Plus/XilinxUltraScalePlus.h</text>
</a>
</g>
</g>
<!-- Node1&#45;&gt;Node12 -->
<g id="edge12" class="edge">
<title>Node1&#45;&gt;Node12</title>
<path fill="none" stroke="midnightblue" d="M402.42,-124.87C462.86,-116.07 568.71,-100.59 659.39,-87 663.07,-86.45 666.83,-85.88 670.63,-85.31"/>
<polygon fill="midnightblue" stroke="midnightblue" points="671.38,-88.74 680.75,-83.78 670.33,-81.81 671.38,-88.74"/>
</g>
<!-- Node11&#45;&gt;Node2 -->
<g id="edge11" class="edge">
<title>Node11&#45;&gt;Node2</title>
<path fill="none" stroke="midnightblue" d="M483.86,-61.88C477.56,-59.82 470.75,-57.71 464.39,-56 404.31,-39.84 333.46,-25.93 290.25,-18.01"/>
<polygon fill="midnightblue" stroke="midnightblue" points="290.87,-14.57 280.41,-16.22 289.62,-21.45 290.87,-14.57"/>
</g>
<!-- Node12&#45;&gt;Node9 -->
<g id="edge15" class="edge">
<title>Node12&#45;&gt;Node9</title>
<path fill="none" stroke="midnightblue" d="M726.9,-56.4C707.95,-46.68 682.94,-33.86 664.34,-24.31"/>
<polygon fill="midnightblue" stroke="midnightblue" points="665.76,-21.11 655.26,-19.66 662.57,-27.34 665.76,-21.11"/>
</g>
<!-- Node13 -->
<g id="node13" class="node">
<title>Node13</title>
<g id="a_node13"><a xlink:title=" ">
<polygon fill="white" stroke="#bfbfbf" points="848.39,-0.5 848.39,-19.5 898.39,-19.5 898.39,-0.5 848.39,-0.5"/>
<text text-anchor="middle" x="873.39" y="-7.5" font-family="Helvetica,sans-Serif" font-size="10.00">cstdint</text>
</a>
</g>
</g>
<!-- Node12&#45;&gt;Node13 -->
<g id="edge13" class="edge">
<title>Node12&#45;&gt;Node13</title>
<path fill="none" stroke="midnightblue" d="M782.59,-56.4C802.11,-46.64 827.91,-33.74 847.02,-24.18"/>
<polygon fill="midnightblue" stroke="midnightblue" points="848.69,-27.26 856.07,-19.66 845.56,-21 848.69,-27.26"/>
</g>
<!-- Node14 -->
<g id="node14" class="node">
<title>Node14</title>
<g id="a_node14"><a xlink:title=" ">
<polygon fill="white" stroke="#bfbfbf" points="916.89,-0.5 916.89,-19.5 963.89,-19.5 963.89,-0.5 916.89,-0.5"/>
<text text-anchor="middle" x="940.39" y="-7.5" font-family="Helvetica,sans-Serif" font-size="10.00">vector</text>
</a>
</g>
</g>
<!-- Node12&#45;&gt;Node14 -->
<g id="edge14" class="edge">
<title>Node12&#45;&gt;Node14</title>
<path fill="none" stroke="midnightblue" d="M798.47,-56.4C831.76,-45.75 876.76,-31.35 907.08,-21.65"/>
<polygon fill="midnightblue" stroke="midnightblue" points="908.31,-24.94 916.77,-18.56 906.18,-18.27 908.31,-24.94"/>
</g>
<!-- Node15 -->
<g id="node15" class="node">
<title>Node15</title>
<g id="a_node15"><a xlink:href="_xilinx_ultra_scale_plus_fabric_8h.html" target="_top" xlink:title=" ">
<polygon fill="white" stroke="black" points="678.39,-0.5 678.39,-19.5 830.39,-19.5 830.39,-0.5 678.39,-0.5"/>
<text text-anchor="middle" x="754.39" y="-7.5" font-family="Helvetica,sans-Serif" font-size="10.00">XilinxUltraScalePlusFabric.h</text>
</a>
</g>
</g>
<!-- Node12&#45;&gt;Node15 -->
<g id="edge16" class="edge">
<title>Node12&#45;&gt;Node15</title>
<path fill="none" stroke="midnightblue" d="M754.39,-56.4C754.39,-48.47 754.39,-38.46 754.39,-29.86"/>
<polygon fill="midnightblue" stroke="midnightblue" points="757.89,-29.66 754.39,-19.66 750.89,-29.66 757.89,-29.66"/>
</g>
</g>
</svg>
        <g id="navigator" transform="translate(0 0)" fill="#404254">
                <rect fill="#f2f5e9" fill-opacity="0.5" stroke="#606060" stroke-width=".5" x="0" y="0" width="60" height="60"/>
                <use id="zoomplus" xlink:href="#zoomPlus" x="17" y="9" onmousedown="handleZoom(evt,'in')"/>
                <use id="zoomminus" xlink:href="#zoomMin" x="42" y="9" onmousedown="handleZoom(evt,'out')"/>
                <use id="reset" xlink:href="#resetDef" x="30" y="36" onmousedown="handleReset()"/>
                <g id="arrowUp" xlink:href="#dirArrow" transform="translate(30 24)" onmousedown="handlePan(0,-1)">
                  <use xlink:href="#rim" fill="#404040">
                        <set attributeName="fill" to="#808080" begin="arrowUp.mouseover" end="arrowUp.mouseout"/>
                  </use>
                  <path fill="none" stroke="white" stroke-width="1.5" d="M0,-3.0v7 M-2.5,-0.5L0,-3.0L2.5,-0.5"/>
                </g>
                <g id="arrowRight" xlink:href="#dirArrow" transform="rotate(90) translate(36 -43)" onmousedown="handlePan(1,0)">
                  <use xlink:href="#rim" fill="#404040">
                        <set attributeName="fill" to="#808080" begin="arrowRight.mouseover" end="arrowRight.mouseout"/>
                  </use>
                  <path fill="none" stroke="white" stroke-width="1.5" d="M0,-3.0v7 M-2.5,-0.5L0,-3.0L2.5,-0.5"/>
                </g>
                <g id="arrowDown" xlink:href="#dirArrow" transform="rotate(180) translate(-30 -48)" onmousedown="handlePan(0,1)">
                  <use xlink:href="#rim" fill="#404040">
                        <set attributeName="fill" to="#808080" begin="arrowDown.mouseover" end="arrowDown.mouseout"/>
                  </use>
                  <path fill="none" stroke="white" stroke-width="1.5" d="M0,-3.0v7 M-2.5,-0.5L0,-3.0L2.5,-0.5"/>
                </g>
                <g id="arrowLeft" xlink:href="#dirArrow" transform="rotate(270) translate(-36 17)" onmousedown="handlePan(-1,0)">
                  <use xlink:href="#rim" fill="#404040">
                        <set attributeName="fill" to="#808080" begin="arrowLeft.mouseover" end="arrowLeft.mouseout"/>
                  </use>
                  <path fill="none" stroke="white" stroke-width="1.5" d="M0,-3.0v7 M-2.5,-0.5L0,-3.0L2.5,-0.5"/>
                </g>
        </g>
        <svg viewBox="0 0 15 15" width="100%" height="30px" preserveAspectRatio="xMaxYMin meet">
         <g id="arrow_out" transform="scale(0.3 0.3)">
          <a xlink:href="byteman_8cpp__incl_org.svg" target="_base">
           <rect id="button" ry="5" rx="5" y="6" x="6" height="38" width="38"
                fill="#f2f5e9" fill-opacity="0.5" stroke="#606060" stroke-width="1.0"/>
           <path id="arrow"
             d="M 11.500037,31.436501 C 11.940474,20.09759 22.043105,11.32322 32.158766,21.979434 L 37.068811,17.246167 C 37.068811,17.246167 37.088388,32 37.088388,32 L 22.160133,31.978069 C 22.160133,31.978069 26.997745,27.140456 26.997745,27.140456 C 18.528582,18.264221 13.291696,25.230495 11.500037,31.436501 z"
             style="fill:#404040;"/>
          </a>
         </g>
        </svg>
</svg>
