<?xml version="1.0" encoding="UTF-8" standalone="no"?>
<!DOCTYPE svg PUBLIC "-//W3C//DTD SVG 1.1//EN"
 "http://www.w3.org/Graphics/SVG/1.1/DTD/svg11.dtd">
<!-- Generated by graphviz version 2.43.0 (0)
 -->
<!-- Title: parseCommand Pages: 1 -->
<svg width="832pt" height="756pt"
 viewBox="0.00 0.00 832.00 755.50" xmlns="http://www.w3.org/2000/svg" xmlns:xlink="http://www.w3.org/1999/xlink">
<g id="graph0" class="graph" transform="scale(1 1) rotate(0) translate(4 751.5)">
<title>parseCommand</title>
<polygon fill="white" stroke="transparent" points="-4,4 -4,-751.5 828,-751.5 828,4 -4,4"/>
<!-- Node1 -->
<g id="node1" class="node">
<title>Node1</title>
<g id="a_node1"><a xlink:title=" ">
<polygon fill="#bfbfbf" stroke="black" points="0,-461.5 0,-480.5 94,-480.5 94,-461.5 0,-461.5"/>
<text text-anchor="middle" x="47" y="-468.5" font-family="Helvetica,sans-Serif" font-size="10.00">parseCommand</text>
</a>
</g>
</g>
<!-- Node2 -->
<g id="node2" class="node">
<title>Node2</title>
<g id="a_node2"><a xlink:href="byteman_8cpp.html#abdebe35e6ba3749eaa14350ca0942419" target="_top" xlink:title=" ">
<polygon fill="white" stroke="black" points="130,-670.5 130,-689.5 222,-689.5 222,-670.5 130,-670.5"/>
<text text-anchor="middle" x="176" y="-677.5" font-family="Helvetica,sans-Serif" font-size="10.00">parseAssembly</text>
</a>
</g>
</g>
<!-- Node1&#45;&gt;Node2 -->
<g id="edge1" class="edge">
<title>Node1&#45;&gt;Node2</title>
<path fill="none" stroke="midnightblue" d="M49.57,-480.72C54.98,-511.36 75.68,-607.1 130,-661 131.44,-662.43 133.01,-663.77 134.67,-665"/>
<polygon fill="midnightblue" stroke="midnightblue" points="133.18,-668.19 143.53,-670.42 136.83,-662.22 133.18,-668.19"/>
</g>
<!-- Node3 -->
<g id="node3" class="node">
<title>Node3</title>
<g id="a_node3"><a xlink:href="byteman_8cpp.html#a51215e0def41bcc5f36f859b140a165f" target="_top" xlink:title=" ">
<polygon fill="white" stroke="black" points="140.5,-632.5 140.5,-651.5 211.5,-651.5 211.5,-632.5 140.5,-632.5"/>
<text text-anchor="middle" x="176" y="-639.5" font-family="Helvetica,sans-Serif" font-size="10.00">parseBlank</text>
</a>
</g>
</g>
<!-- Node1&#45;&gt;Node3 -->
<g id="edge2" class="edge">
<title>Node1&#45;&gt;Node3</title>
<path fill="none" stroke="midnightblue" d="M50.7,-480.6C58.56,-506.92 83.85,-581.05 130,-623 131.68,-624.53 133.51,-625.95 135.42,-627.26"/>
<polygon fill="midnightblue" stroke="midnightblue" points="133.86,-630.4 144.27,-632.36 137.36,-624.33 133.86,-630.4"/>
</g>
<!-- Node6 -->
<g id="node6" class="node">
<title>Node6</title>
<g id="a_node6"><a xlink:href="byteman_8cpp.html#aa23bea1bf8345e70d7eed43601105803" target="_top" xlink:title=" ">
<polygon fill="white" stroke="black" points="136,-328.5 136,-347.5 216,-347.5 216,-328.5 136,-328.5"/>
<text text-anchor="middle" x="176" y="-335.5" font-family="Helvetica,sans-Serif" font-size="10.00">parseChange</text>
</a>
</g>
</g>
<!-- Node1&#45;&gt;Node6 -->
<g id="edge5" class="edge">
<title>Node1&#45;&gt;Node6</title>
<path fill="none" stroke="midnightblue" d="M52.58,-461.39C63.28,-439.88 91.88,-387.41 130,-357 132.03,-355.38 134.22,-353.88 136.5,-352.48"/>
<polygon fill="midnightblue" stroke="midnightblue" points="138.41,-355.43 145.6,-347.65 135.13,-349.25 138.41,-355.43"/>
</g>
<!-- Node7 -->
<g id="node7" class="node">
<title>Node7</title>
<g id="a_node7"><a xlink:href="byteman_8cpp.html#a883440ce4fd99a9d8375dd36b34346ee" target="_top" xlink:title=" ">
<polygon fill="white" stroke="black" points="137.5,-404.5 137.5,-423.5 214.5,-423.5 214.5,-404.5 137.5,-404.5"/>
<text text-anchor="middle" x="176" y="-411.5" font-family="Helvetica,sans-Serif" font-size="10.00">parseDevice</text>
</a>
</g>
</g>
<!-- Node1&#45;&gt;Node7 -->
<g id="edge6" class="edge">
<title>Node1&#45;&gt;Node7</title>
<path fill="none" stroke="midnightblue" d="M68.13,-461.44C84.68,-453.63 108.77,-442.4 130,-433 134.12,-431.17 138.48,-429.29 142.79,-427.44"/>
<polygon fill="midnightblue" stroke="midnightblue" points="144.2,-430.64 152.04,-423.51 141.47,-424.2 144.2,-430.64"/>
</g>
<!-- Node12 -->
<g id="node12" class="node">
<title>Node12</title>
<g id="a_node12"><a xlink:href="byteman_8h.html#a452ea4eb7e81dcb75c487904fd71c8f1" target="_top" xlink:title=" ">
<polygon fill="white" stroke="black" points="143,-259.5 143,-278.5 209,-278.5 209,-259.5 143,-259.5"/>
<text text-anchor="middle" x="176" y="-266.5" font-family="Helvetica,sans-Serif" font-size="10.00">parseHelp</text>
</a>
</g>
</g>
<!-- Node1&#45;&gt;Node12 -->
<g id="edge11" class="edge">
<title>Node1&#45;&gt;Node12</title>
<path fill="none" stroke="midnightblue" d="M52.25,-461.29C63.31,-436.49 94.6,-369.25 130,-319 138.22,-307.33 148.85,-295.41 157.71,-286.14"/>
<polygon fill="midnightblue" stroke="midnightblue" points="160.45,-288.34 164.94,-278.74 155.44,-283.45 160.45,-288.34"/>
</g>
<!-- Node30 -->
<g id="node30" class="node">
<title>Node30</title>
<g id="a_node30"><a xlink:href="byteman_8cpp.html#a4dbd88e4909b2f0429f9d0b2fc2608bb" target="_top" xlink:title=" ">
<polygon fill="white" stroke="black" points="142,-366.5 142,-385.5 210,-385.5 210,-366.5 142,-366.5"/>
<text text-anchor="middle" x="176" y="-373.5" font-family="Helvetica,sans-Serif" font-size="10.00">parseInput</text>
</a>
</g>
</g>
<!-- Node1&#45;&gt;Node30 -->
<g id="edge29" class="edge">
<title>Node1&#45;&gt;Node30</title>
<path fill="none" stroke="midnightblue" d="M56.24,-461.45C70.13,-445.83 99.67,-414.59 130,-395 132.78,-393.21 135.75,-391.52 138.8,-389.94"/>
<polygon fill="midnightblue" stroke="midnightblue" points="140.5,-393.01 148.05,-385.58 137.51,-386.68 140.5,-393.01"/>
</g>
<!-- Node32 -->
<g id="node32" class="node">
<title>Node32</title>
<g id="a_node32"><a xlink:href="byteman_8cpp.html#a8c6afae26d72a7030f5f568b832170cc" target="_top" xlink:title=" ">
<polygon fill="white" stroke="black" points="139,-556.5 139,-575.5 213,-575.5 213,-556.5 139,-556.5"/>
<text text-anchor="middle" x="176" y="-563.5" font-family="Helvetica,sans-Serif" font-size="10.00">parseMerge</text>
</a>
</g>
</g>
<!-- Node1&#45;&gt;Node32 -->
<g id="edge33" class="edge">
<title>Node1&#45;&gt;Node32</title>
<path fill="none" stroke="midnightblue" d="M56.24,-480.55C70.13,-496.17 99.67,-527.41 130,-547 132.78,-548.79 135.75,-550.48 138.8,-552.06"/>
<polygon fill="midnightblue" stroke="midnightblue" points="137.51,-555.32 148.05,-556.42 140.5,-548.99 137.51,-555.32"/>
</g>
<!-- Node35 -->
<g id="node35" class="node">
<title>Node35</title>
<g id="a_node35"><a xlink:href="byteman_8cpp.html#a6864a632485326d2049256aeb01cc4cf" target="_top" xlink:title=" ">
<polygon fill="white" stroke="black" points="137.5,-442.5 137.5,-461.5 214.5,-461.5 214.5,-442.5 137.5,-442.5"/>
<text text-anchor="middle" x="176" y="-449.5" font-family="Helvetica,sans-Serif" font-size="10.00">parseOutput</text>
</a>
</g>
</g>
<!-- Node1&#45;&gt;Node35 -->
<g id="edge37" class="edge">
<title>Node1&#45;&gt;Node35</title>
<path fill="none" stroke="midnightblue" d="M94.21,-464.09C104.96,-462.48 116.42,-460.76 127.24,-459.15"/>
<polygon fill="midnightblue" stroke="midnightblue" points="127.99,-462.57 137.36,-457.63 126.96,-455.65 127.99,-462.57"/>
</g>
<!-- Node37 -->
<g id="node37" class="node">
<title>Node37</title>
<g id="a_node37"><a xlink:href="byteman_8cpp.html#a65e06ace3e66b81b8ec14ec72dae1830" target="_top" xlink:title=" ">
<polygon fill="white" stroke="black" points="137.5,-594.5 137.5,-613.5 214.5,-613.5 214.5,-594.5 137.5,-594.5"/>
<text text-anchor="middle" x="176" y="-601.5" font-family="Helvetica,sans-Serif" font-size="10.00">parseRegion</text>
</a>
</g>
</g>
<!-- Node1&#45;&gt;Node37 -->
<g id="edge42" class="edge">
<title>Node1&#45;&gt;Node37</title>
<path fill="none" stroke="midnightblue" d="M52.58,-480.61C63.28,-502.12 91.88,-554.59 130,-585 132.03,-586.62 134.22,-588.12 136.5,-589.52"/>
<polygon fill="midnightblue" stroke="midnightblue" points="135.13,-592.75 145.6,-594.35 138.41,-586.57 135.13,-592.75"/>
</g>
<!-- Node39 -->
<g id="node39" class="node">
<title>Node39</title>
<g id="a_node39"><a xlink:href="byteman_8cpp.html#acd26748fd11d0a0c11b892dbbb8dde7c" target="_top" xlink:title=" ">
<polygon fill="white" stroke="black" points="134.5,-518.5 134.5,-537.5 217.5,-537.5 217.5,-518.5 134.5,-518.5"/>
<text text-anchor="middle" x="176" y="-525.5" font-family="Helvetica,sans-Serif" font-size="10.00">parseVerbose</text>
</a>
</g>
</g>
<!-- Node1&#45;&gt;Node39 -->
<g id="edge46" class="edge">
<title>Node1&#45;&gt;Node39</title>
<path fill="none" stroke="midnightblue" d="M68.13,-480.56C84.68,-488.37 108.77,-499.6 130,-509 134.12,-510.83 138.48,-512.71 142.79,-514.56"/>
<polygon fill="midnightblue" stroke="midnightblue" points="141.47,-517.8 152.04,-518.49 144.2,-511.36 141.47,-517.8"/>
</g>
<!-- Node40 -->
<g id="node40" class="node">
<title>Node40</title>
<g id="a_node40"><a xlink:href="byteman_8cpp.html#a8f7be31e158a1af17d28b26fdcb8653d" target="_top" xlink:title=" ">
<polygon fill="white" stroke="black" points="142,-480.5 142,-499.5 210,-499.5 210,-480.5 142,-480.5"/>
<text text-anchor="middle" x="176" y="-487.5" font-family="Helvetica,sans-Serif" font-size="10.00">parseWarn</text>
</a>
</g>
</g>
<!-- Node1&#45;&gt;Node40 -->
<g id="edge48" class="edge">
<title>Node1&#45;&gt;Node40</title>
<path fill="none" stroke="midnightblue" d="M94.21,-477.91C106.39,-479.74 119.48,-481.69 131.51,-483.49"/>
<polygon fill="midnightblue" stroke="midnightblue" points="131.35,-487.01 141.76,-485.03 132.39,-480.09 131.35,-487.01"/>
</g>
<!-- Node41 -->
<g id="node41" class="node">
<title>Node41</title>
<g id="a_node41"><a xlink:href="byteman_8cpp.html#a098d934d069c59b7087c186b8fae2ef6" target="_top" xlink:title=" ">
<polygon fill="white" stroke="black" points="149.5,-221.5 149.5,-240.5 202.5,-240.5 202.5,-221.5 149.5,-221.5"/>
<text text-anchor="middle" x="176" y="-228.5" font-family="Helvetica,sans-Serif" font-size="10.00">setArch</text>
</a>
</g>
</g>
<!-- Node1&#45;&gt;Node41 -->
<g id="edge50" class="edge">
<title>Node1&#45;&gt;Node41</title>
<path fill="none" stroke="midnightblue" d="M48.9,-461.18C52.53,-427.29 68.89,-313.87 130,-250 132.97,-246.9 136.52,-244.28 140.31,-242.08"/>
<polygon fill="midnightblue" stroke="midnightblue" points="141.96,-245.17 149.43,-237.65 138.91,-238.87 141.96,-245.17"/>
</g>
<!-- Node4 -->
<g id="node4" class="node">
<title>Node4</title>
<g id="a_node4"><a xlink:href="class_xilinx_ultra_scale_plus.html#a15434be327a556f42ae679ad8715f876" target="_top" xlink:title=" ">
<polygon fill="white" stroke="black" points="278,-717 278,-747 393,-747 393,-717 278,-717"/>
<text text-anchor="start" x="286" y="-735" font-family="Helvetica,sans-Serif" font-size="10.00">XilinxUltraScalePlus</text>
<text text-anchor="middle" x="335.5" y="-724" font-family="Helvetica,sans-Serif" font-size="10.00">::blank</text>
</a>
</g>
</g>
<!-- Node3&#45;&gt;Node4 -->
<g id="edge3" class="edge">
<title>Node3&#45;&gt;Node4</title>
<path fill="none" stroke="midnightblue" d="M205.84,-651.55C211.5,-654.13 217.17,-657.26 222,-661 242.81,-677.1 236.44,-692.91 258,-708 261.31,-710.31 264.84,-712.41 268.52,-714.31"/>
<polygon fill="midnightblue" stroke="midnightblue" points="267.34,-717.62 277.88,-718.64 270.27,-711.27 267.34,-717.62"/>
</g>
<!-- Node5 -->
<g id="node5" class="node">
<title>Node5</title>
<g id="a_node5"><a xlink:href="byteman_8cpp.html#a7387d6a5da2c3ae1a51a14b1c0855112" target="_top" xlink:title=" ">
<polygon fill="white" stroke="black" points="296,-629.5 296,-648.5 375,-648.5 375,-629.5 296,-629.5"/>
<text text-anchor="middle" x="335.5" y="-636.5" font-family="Helvetica,sans-Serif" font-size="10.00">getAllStrings</text>
</a>
</g>
</g>
<!-- Node3&#45;&gt;Node5 -->
<g id="edge4" class="edge">
<title>Node3&#45;&gt;Node5</title>
<path fill="none" stroke="midnightblue" d="M211.56,-641.34C233.35,-640.93 261.81,-640.38 285.86,-639.93"/>
<polygon fill="midnightblue" stroke="midnightblue" points="285.94,-643.43 295.87,-639.74 285.8,-636.43 285.94,-643.43"/>
</g>
<!-- Node8 -->
<g id="node8" class="node">
<title>Node8</title>
<g id="a_node8"><a xlink:href="byteman_8cpp.html#abb94c0ff14dd633ff41b3b9f83ae0bd3" target="_top" xlink:title=" ">
<polygon fill="white" stroke="black" points="272,-404.5 272,-423.5 399,-423.5 399,-404.5 272,-404.5"/>
<text text-anchor="middle" x="335.5" y="-411.5" font-family="Helvetica,sans-Serif" font-size="10.00">getAllButLastStringArg</text>
</a>
</g>
</g>
<!-- Node7&#45;&gt;Node8 -->
<g id="edge7" class="edge">
<title>Node7&#45;&gt;Node8</title>
<path fill="none" stroke="midnightblue" d="M214.73,-414C228.89,-414 245.52,-414 261.8,-414"/>
<polygon fill="midnightblue" stroke="midnightblue" points="261.87,-417.5 271.87,-414 261.87,-410.5 261.87,-417.5"/>
</g>
<!-- Node9 -->
<g id="node9" class="node">
<title>Node9</title>
<g id="a_node9"><a xlink:href="class_xilinx_ultra_scale_plus.html#aa7161a5191cf43caf46263dbc82a45ef" target="_top" xlink:title=" ">
<polygon fill="white" stroke="black" points="258,-443 258,-473 413,-473 413,-443 258,-443"/>
<text text-anchor="start" x="266" y="-461" font-family="Helvetica,sans-Serif" font-size="10.00">XilinxUltraScalePlus</text>
<text text-anchor="middle" x="335.5" y="-450" font-family="Helvetica,sans-Serif" font-size="10.00">::getDeviceByNameOrThrow</text>
</a>
</g>
</g>
<!-- Node7&#45;&gt;Node9 -->
<g id="edge8" class="edge">
<title>Node7&#45;&gt;Node9</title>
<path fill="none" stroke="midnightblue" d="M211.18,-423.55C228.59,-428.41 250.34,-434.49 270.71,-440.18"/>
<polygon fill="midnightblue" stroke="midnightblue" points="270,-443.61 280.57,-442.93 271.88,-436.87 270,-443.61"/>
</g>
<!-- Node10 -->
<g id="node10" class="node">
<title>Node10</title>
<g id="a_node10"><a xlink:href="byteman_8cpp.html#a00471d4a59c1bf585fbc1cdf2398a02d" target="_top" xlink:title=" ">
<polygon fill="white" stroke="black" points="286.5,-316.5 286.5,-335.5 384.5,-335.5 384.5,-316.5 286.5,-316.5"/>
<text text-anchor="middle" x="335.5" y="-323.5" font-family="Helvetica,sans-Serif" font-size="10.00">getLastStringArg</text>
</a>
</g>
</g>
<!-- Node7&#45;&gt;Node10 -->
<g id="edge9" class="edge">
<title>Node7&#45;&gt;Node10</title>
<path fill="none" stroke="midnightblue" d="M206.37,-404.31C211.87,-401.77 217.34,-398.68 222,-395 243.21,-378.25 235.64,-361.18 258,-346 263.65,-342.17 269.99,-339.07 276.53,-336.56"/>
<polygon fill="midnightblue" stroke="midnightblue" points="277.86,-339.81 286.22,-333.3 275.63,-333.17 277.86,-339.81"/>
</g>
<!-- Node11 -->
<g id="node11" class="node">
<title>Node11</title>
<g id="a_node11"><a xlink:href="class_xilinx_ultra_scale_plus.html#a762297dd90b02efcbb4a4aa0274dd34b" target="_top" xlink:title=" ">
<polygon fill="white" stroke="black" points="278,-355 278,-385 393,-385 393,-355 278,-355"/>
<text text-anchor="start" x="286" y="-373" font-family="Helvetica,sans-Serif" font-size="10.00">XilinxUltraScalePlus</text>
<text text-anchor="middle" x="335.5" y="-362" font-family="Helvetica,sans-Serif" font-size="10.00">::setDevice</text>
</a>
</g>
</g>
<!-- Node7&#45;&gt;Node11 -->
<g id="edge10" class="edge">
<title>Node7&#45;&gt;Node11</title>
<path fill="none" stroke="midnightblue" d="M211.18,-404.45C228.59,-399.59 250.34,-393.51 270.71,-387.82"/>
<polygon fill="midnightblue" stroke="midnightblue" points="271.88,-391.13 280.57,-385.07 270,-384.39 271.88,-391.13"/>
</g>
<!-- Node13 -->
<g id="node13" class="node">
<title>Node13</title>
<g id="a_node13"><a xlink:href="help_8cpp.html#a2ef30c42cbc289d899a8be5d2d8f77d0" target="_top" xlink:title=" ">
<polygon fill="white" stroke="black" points="312.5,-190.5 312.5,-209.5 358.5,-209.5 358.5,-190.5 312.5,-190.5"/>
<text text-anchor="middle" x="335.5" y="-197.5" font-family="Helvetica,sans-Serif" font-size="10.00">usage</text>
</a>
</g>
</g>
<!-- Node12&#45;&gt;Node13 -->
<g id="edge12" class="edge">
<title>Node12&#45;&gt;Node13</title>
<path fill="none" stroke="midnightblue" d="M203.39,-259.48C209.68,-256.77 216.23,-253.58 222,-250 239.94,-238.87 239.24,-228.7 258,-219 271.79,-211.87 288.39,-207.33 302.59,-204.48"/>
<polygon fill="midnightblue" stroke="midnightblue" points="303.22,-207.92 312.43,-202.69 301.97,-201.03 303.22,-207.92"/>
</g>
<!-- Node14 -->
<g id="node14" class="node">
<title>Node14</title>
<g id="a_node14"><a xlink:href="help_8cpp.html#ae0259929823a681afb82bc7391b0f69b" target="_top" xlink:title=" ">
<polygon fill="white" stroke="black" points="304.5,-228.5 304.5,-247.5 366.5,-247.5 366.5,-228.5 304.5,-228.5"/>
<text text-anchor="middle" x="335.5" y="-235.5" font-family="Helvetica,sans-Serif" font-size="10.00">usageArg</text>
</a>
</g>
</g>
<!-- Node12&#45;&gt;Node14 -->
<g id="edge13" class="edge">
<title>Node12&#45;&gt;Node14</title>
<path fill="none" stroke="midnightblue" d="M209.25,-262.65C233.88,-257.8 267.97,-251.1 294.36,-245.9"/>
<polygon fill="midnightblue" stroke="midnightblue" points="295.29,-249.28 304.42,-243.92 293.94,-242.42 295.29,-249.28"/>
</g>
<!-- Node15 -->
<g id="node15" class="node">
<title>Node15</title>
<g id="a_node15"><a xlink:href="help_8cpp.html#aede32834476091f4eb0ae6749f41eacf" target="_top" xlink:title=" ">
<polygon fill="white" stroke="black" points="449,-456.5 449,-475.5 547,-475.5 547,-456.5 449,-456.5"/>
<text text-anchor="middle" x="498" y="-463.5" font-family="Helvetica,sans-Serif" font-size="10.00">usage_assembly</text>
</a>
</g>
</g>
<!-- Node14&#45;&gt;Node15 -->
<g id="edge14" class="edge">
<title>Node14&#45;&gt;Node15</title>
<path fill="none" stroke="midnightblue" d="M366.51,-238.46C382.47,-240.32 401.19,-245.36 413,-258 471.39,-320.47 394.5,-381.11 449,-447 450,-448.21 451.09,-449.34 452.25,-450.4"/>
<polygon fill="midnightblue" stroke="midnightblue" points="450.56,-453.49 460.74,-456.41 454.6,-447.78 450.56,-453.49"/>
</g>
<!-- Node16 -->
<g id="node16" class="node">
<title>Node16</title>
<g id="a_node16"><a xlink:href="help_8cpp.html#accc90fd0feeb842781a3e5f91b2d2146" target="_top" xlink:title=" ">
<polygon fill="white" stroke="black" points="459,-418.5 459,-437.5 537,-437.5 537,-418.5 459,-418.5"/>
<text text-anchor="middle" x="498" y="-425.5" font-family="Helvetica,sans-Serif" font-size="10.00">usage_blank</text>
</a>
</g>
</g>
<!-- Node14&#45;&gt;Node16 -->
<g id="edge15" class="edge">
<title>Node14&#45;&gt;Node16</title>
<path fill="none" stroke="midnightblue" d="M366.67,-238.72C382.48,-240.68 401,-245.74 413,-258 461.25,-307.31 403.82,-356.86 449,-409 450.03,-410.19 451.14,-411.3 452.32,-412.34"/>
<polygon fill="midnightblue" stroke="midnightblue" points="450.69,-415.47 460.9,-418.28 454.67,-409.71 450.69,-415.47"/>
</g>
<!-- Node17 -->
<g id="node17" class="node">
<title>Node17</title>
<g id="a_node17"><a xlink:href="help_8cpp.html#a5c779e76e21b34d6bb3b884ac1ef9083" target="_top" xlink:title=" ">
<polygon fill="white" stroke="black" points="455,-380.5 455,-399.5 541,-399.5 541,-380.5 455,-380.5"/>
<text text-anchor="middle" x="498" y="-387.5" font-family="Helvetica,sans-Serif" font-size="10.00">usage_change</text>
</a>
</g>
</g>
<!-- Node14&#45;&gt;Node17 -->
<g id="edge16" class="edge">
<title>Node14&#45;&gt;Node17</title>
<path fill="none" stroke="midnightblue" d="M366.69,-239.12C382.32,-241.23 400.65,-246.28 413,-258 451.24,-294.28 413.03,-332.47 449,-371 450.22,-372.31 451.54,-373.52 452.94,-374.66"/>
<polygon fill="midnightblue" stroke="midnightblue" points="451.35,-377.8 461.64,-380.3 455.16,-371.93 451.35,-377.8"/>
</g>
<!-- Node18 -->
<g id="node18" class="node">
<title>Node18</title>
<g id="a_node18"><a xlink:href="help_8cpp.html#a28714bd0b194f699df903e7bd994a768" target="_top" xlink:title=" ">
<polygon fill="white" stroke="black" points="456.5,-342.5 456.5,-361.5 539.5,-361.5 539.5,-342.5 456.5,-342.5"/>
<text text-anchor="middle" x="498" y="-349.5" font-family="Helvetica,sans-Serif" font-size="10.00">usage_device</text>
</a>
</g>
</g>
<!-- Node14&#45;&gt;Node18 -->
<g id="edge17" class="edge">
<title>Node14&#45;&gt;Node18</title>
<path fill="none" stroke="midnightblue" d="M366.82,-239.95C382.1,-242.3 400.08,-247.35 413,-258 441.53,-281.52 421.95,-307.79 449,-333 450.65,-334.54 452.44,-335.96 454.33,-337.27"/>
<polygon fill="midnightblue" stroke="midnightblue" points="452.68,-340.36 463.09,-342.33 456.18,-334.3 452.68,-340.36"/>
</g>
<!-- Node21 -->
<g id="node21" class="node">
<title>Node21</title>
<g id="a_node21"><a xlink:href="help_8cpp.html#a89a232fcf363da02884b15625ea242b1" target="_top" xlink:title=" ">
<polygon fill="white" stroke="black" points="463.5,-304.5 463.5,-323.5 532.5,-323.5 532.5,-304.5 463.5,-304.5"/>
<text text-anchor="middle" x="498" y="-311.5" font-family="Helvetica,sans-Serif" font-size="10.00">usage_end</text>
</a>
</g>
</g>
<!-- Node14&#45;&gt;Node21 -->
<g id="edge20" class="edge">
<title>Node14&#45;&gt;Node21</title>
<path fill="none" stroke="midnightblue" d="M366.65,-241.99C381.36,-244.88 398.88,-249.78 413,-258 432.83,-269.55 429.91,-282.27 449,-295 451.76,-296.84 454.72,-298.54 457.78,-300.11"/>
<polygon fill="midnightblue" stroke="midnightblue" points="456.54,-303.4 467.08,-304.42 459.48,-297.05 456.54,-303.4"/>
</g>
<!-- Node22 -->
<g id="node22" class="node">
<title>Node22</title>
<g id="a_node22"><a xlink:href="help_8cpp.html#af1a5368922439cb186899b545fd1965e" target="_top" xlink:title=" ">
<polygon fill="white" stroke="black" points="462,-266.5 462,-285.5 534,-285.5 534,-266.5 462,-266.5"/>
<text text-anchor="middle" x="498" y="-273.5" font-family="Helvetica,sans-Serif" font-size="10.00">usage_help</text>
</a>
</g>
</g>
<!-- Node14&#45;&gt;Node22 -->
<g id="edge21" class="edge">
<title>Node14&#45;&gt;Node22</title>
<path fill="none" stroke="midnightblue" d="M366.69,-245.15C390.68,-250.83 424.62,-258.86 451.85,-265.31"/>
<polygon fill="midnightblue" stroke="midnightblue" points="451.38,-268.8 461.92,-267.69 452.99,-261.98 451.38,-268.8"/>
</g>
<!-- Node23 -->
<g id="node23" class="node">
<title>Node23</title>
<g id="a_node23"><a xlink:href="help_8cpp.html#a120f05cbb24b01b4bcae94229814418b" target="_top" xlink:title=" ">
<polygon fill="white" stroke="black" points="460,-228.5 460,-247.5 536,-247.5 536,-228.5 460,-228.5"/>
<text text-anchor="middle" x="498" y="-235.5" font-family="Helvetica,sans-Serif" font-size="10.00">usage_input</text>
</a>
</g>
</g>
<!-- Node14&#45;&gt;Node23 -->
<g id="edge22" class="edge">
<title>Node14&#45;&gt;Node23</title>
<path fill="none" stroke="midnightblue" d="M366.69,-238C390.02,-238 422.74,-238 449.56,-238"/>
<polygon fill="midnightblue" stroke="midnightblue" points="449.89,-241.5 459.89,-238 449.89,-234.5 449.89,-241.5"/>
</g>
<!-- Node24 -->
<g id="node24" class="node">
<title>Node24</title>
<g id="a_node24"><a xlink:href="help_8cpp.html#a2aa5b9213acbbf68d4d14ed00ea4ee4c" target="_top" xlink:title=" ">
<polygon fill="white" stroke="black" points="456.5,-190.5 456.5,-209.5 539.5,-209.5 539.5,-190.5 456.5,-190.5"/>
<text text-anchor="middle" x="498" y="-197.5" font-family="Helvetica,sans-Serif" font-size="10.00">usage_merge</text>
</a>
</g>
</g>
<!-- Node14&#45;&gt;Node24 -->
<g id="edge23" class="edge">
<title>Node14&#45;&gt;Node24</title>
<path fill="none" stroke="midnightblue" d="M366.69,-230.85C389.23,-225.51 420.56,-218.1 446.84,-211.88"/>
<polygon fill="midnightblue" stroke="midnightblue" points="447.72,-215.27 456.64,-209.56 446.1,-208.45 447.72,-215.27"/>
</g>
<!-- Node25 -->
<g id="node25" class="node">
<title>Node25</title>
<g id="a_node25"><a xlink:href="help_8cpp.html#ac40cf37cc9ea9b9a8f099b4974724fad" target="_top" xlink:title=" ">
<polygon fill="white" stroke="black" points="456.5,-152.5 456.5,-171.5 539.5,-171.5 539.5,-152.5 456.5,-152.5"/>
<text text-anchor="middle" x="498" y="-159.5" font-family="Helvetica,sans-Serif" font-size="10.00">usage_output</text>
</a>
</g>
</g>
<!-- Node14&#45;&gt;Node25 -->
<g id="edge24" class="edge">
<title>Node14&#45;&gt;Node25</title>
<path fill="none" stroke="midnightblue" d="M366.69,-234.55C381.41,-231.89 398.93,-227.2 413,-219 433.1,-207.28 429.73,-194.03 449,-181 451.75,-179.14 454.7,-177.42 457.75,-175.85"/>
<polygon fill="midnightblue" stroke="midnightblue" points="459.45,-178.91 467.04,-171.52 456.5,-172.57 459.45,-178.91"/>
</g>
<!-- Node26 -->
<g id="node26" class="node">
<title>Node26</title>
<g id="a_node26"><a xlink:href="help_8cpp.html#adf57083eb4a99d6885783b9bb106890e" target="_top" xlink:title=" ">
<polygon fill="white" stroke="black" points="457,-114.5 457,-133.5 539,-133.5 539,-114.5 457,-114.5"/>
<text text-anchor="middle" x="498" y="-121.5" font-family="Helvetica,sans-Serif" font-size="10.00">usage_region</text>
</a>
</g>
</g>
<!-- Node14&#45;&gt;Node26 -->
<g id="edge25" class="edge">
<title>Node14&#45;&gt;Node26</title>
<path fill="none" stroke="midnightblue" d="M366.82,-236.52C382.1,-234.39 400.08,-229.57 413,-219 441.92,-195.33 421.72,-168.55 449,-143 450.65,-141.46 452.44,-140.03 454.32,-138.72"/>
<polygon fill="midnightblue" stroke="midnightblue" points="456.17,-141.69 463.07,-133.65 452.66,-135.64 456.17,-141.69"/>
</g>
<!-- Node27 -->
<g id="node27" class="node">
<title>Node27</title>
<g id="a_node27"><a xlink:href="help_8cpp.html#a49223a995301022ffb657717122d88de" target="_top" xlink:title=" ">
<polygon fill="white" stroke="black" points="460.5,-76.5 460.5,-95.5 535.5,-95.5 535.5,-76.5 460.5,-76.5"/>
<text text-anchor="middle" x="498" y="-83.5" font-family="Helvetica,sans-Serif" font-size="10.00">usage_stdin</text>
</a>
</g>
</g>
<!-- Node14&#45;&gt;Node27 -->
<g id="edge26" class="edge">
<title>Node14&#45;&gt;Node27</title>
<path fill="none" stroke="midnightblue" d="M366.68,-237.32C382.3,-235.44 400.63,-230.62 413,-219 451.73,-182.62 412.79,-143.88 449,-105 450.22,-103.69 451.54,-102.47 452.93,-101.34"/>
<polygon fill="midnightblue" stroke="midnightblue" points="455.15,-104.07 461.63,-95.69 451.34,-98.2 455.15,-104.07"/>
</g>
<!-- Node28 -->
<g id="node28" class="node">
<title>Node28</title>
<g id="a_node28"><a xlink:href="help_8cpp.html#a46c7d0d124e51b373e20ad7fc73278d4" target="_top" xlink:title=" ">
<polygon fill="white" stroke="black" points="453,-38.5 453,-57.5 543,-57.5 543,-38.5 453,-38.5"/>
<text text-anchor="middle" x="498" y="-45.5" font-family="Helvetica,sans-Serif" font-size="10.00">usage_verbose</text>
</a>
</g>
</g>
<!-- Node14&#45;&gt;Node28 -->
<g id="edge27" class="edge">
<title>Node14&#45;&gt;Node28</title>
<path fill="none" stroke="midnightblue" d="M366.64,-237.72C382.45,-235.98 400.97,-231.16 413,-219 461.82,-169.64 403.58,-119.5 449,-67 450.03,-65.81 451.14,-64.7 452.31,-63.66"/>
<polygon fill="midnightblue" stroke="midnightblue" points="454.66,-66.29 460.9,-57.72 450.68,-60.53 454.66,-66.29"/>
</g>
<!-- Node29 -->
<g id="node29" class="node">
<title>Node29</title>
<g id="a_node29"><a xlink:href="help_8cpp.html#a33a04cbd434c5ebe2c0113f5acb2c089" target="_top" xlink:title=" ">
<polygon fill="white" stroke="black" points="460.5,-0.5 460.5,-19.5 535.5,-19.5 535.5,-0.5 460.5,-0.5"/>
<text text-anchor="middle" x="498" y="-7.5" font-family="Helvetica,sans-Serif" font-size="10.00">usage_warn</text>
</a>
</g>
</g>
<!-- Node14&#45;&gt;Node29 -->
<g id="edge28" class="edge">
<title>Node14&#45;&gt;Node29</title>
<path fill="none" stroke="midnightblue" d="M366.86,-237.93C382.73,-236.25 401.25,-231.43 413,-219 472.04,-156.54 394.25,-95.25 449,-29 450,-27.79 451.09,-26.66 452.24,-25.6"/>
<polygon fill="midnightblue" stroke="midnightblue" points="454.6,-28.22 460.74,-19.59 450.55,-22.5 454.6,-28.22"/>
</g>
<!-- Node19 -->
<g id="node19" class="node">
<title>Node19</title>
<g id="a_node19"><a xlink:href="byteman_8cpp.html#a23beb5409443799c43ba81c405375f4f" target="_top" xlink:title=" ">
<polygon fill="white" stroke="black" points="583,-342.5 583,-361.5 673,-361.5 673,-342.5 583,-342.5"/>
<text text-anchor="middle" x="628" y="-349.5" font-family="Helvetica,sans-Serif" font-size="10.00">printDeviceList</text>
</a>
</g>
</g>
<!-- Node18&#45;&gt;Node19 -->
<g id="edge18" class="edge">
<title>Node18&#45;&gt;Node19</title>
<path fill="none" stroke="midnightblue" d="M539.85,-352C550.38,-352 561.88,-352 572.97,-352"/>
<polygon fill="midnightblue" stroke="midnightblue" points="573,-355.5 583,-352 573,-348.5 573,-355.5"/>
</g>
<!-- Node20 -->
<g id="node20" class="node">
<title>Node20</title>
<g id="a_node20"><a xlink:href="class_xilinx_ultra_scale_plus.html#ad7b956985959fc268e85fd2c528d81a5" target="_top" xlink:title=" ">
<polygon fill="white" stroke="black" points="709,-337 709,-367 824,-367 824,-337 709,-337"/>
<text text-anchor="start" x="717" y="-355" font-family="Helvetica,sans-Serif" font-size="10.00">XilinxUltraScalePlus</text>
<text text-anchor="middle" x="766.5" y="-344" font-family="Helvetica,sans-Serif" font-size="10.00">::printDeviceList</text>
</a>
</g>
</g>
<!-- Node19&#45;&gt;Node20 -->
<g id="edge19" class="edge">
<title>Node19&#45;&gt;Node20</title>
<path fill="none" stroke="midnightblue" d="M673.32,-352C681.49,-352 690.18,-352 698.84,-352"/>
<polygon fill="midnightblue" stroke="midnightblue" points="698.95,-355.5 708.95,-352 698.95,-348.5 698.95,-355.5"/>
</g>
<!-- Node30&#45;&gt;Node8 -->
<g id="edge30" class="edge">
<title>Node30&#45;&gt;Node8</title>
<path fill="none" stroke="midnightblue" d="M210.02,-383.97C231.82,-389.23 260.78,-396.21 285.28,-402.12"/>
<polygon fill="midnightblue" stroke="midnightblue" points="284.58,-405.56 295.12,-404.5 286.22,-398.75 284.58,-405.56"/>
</g>
<!-- Node30&#45;&gt;Node10 -->
<g id="edge31" class="edge">
<title>Node30&#45;&gt;Node10</title>
<path fill="none" stroke="midnightblue" d="M200.89,-366.44C216.9,-360.21 238.55,-352.13 258,-346 266.75,-343.24 276.14,-340.56 285.25,-338.11"/>
<polygon fill="midnightblue" stroke="midnightblue" points="286.2,-341.48 294.98,-335.54 284.41,-334.71 286.2,-341.48"/>
</g>
<!-- Node31 -->
<g id="node31" class="node">
<title>Node31</title>
<g id="a_node31"><a xlink:href="class_xilinx_ultra_scale_plus.html#a0e5d08a2e5c37a29a1a04d50b48739d2" target="_top" xlink:title=" ">
<polygon fill="white" stroke="black" points="278,-267 278,-297 393,-297 393,-267 278,-267"/>
<text text-anchor="start" x="286" y="-285" font-family="Helvetica,sans-Serif" font-size="10.00">XilinxUltraScalePlus</text>
<text text-anchor="middle" x="335.5" y="-274" font-family="Helvetica,sans-Serif" font-size="10.00">::readBitstream</text>
</a>
</g>
</g>
<!-- Node30&#45;&gt;Node31 -->
<g id="edge32" class="edge">
<title>Node30&#45;&gt;Node31</title>
<path fill="none" stroke="midnightblue" d="M206.4,-366.35C211.89,-363.8 217.36,-360.7 222,-357 243.41,-339.93 235.9,-323.16 258,-307 261.27,-304.61 264.78,-302.44 268.43,-300.47"/>
<polygon fill="midnightblue" stroke="midnightblue" points="270.26,-303.48 277.76,-295.98 267.23,-297.17 270.26,-303.48"/>
</g>
<!-- Node32&#45;&gt;Node5 -->
<g id="edge34" class="edge">
<title>Node32&#45;&gt;Node5</title>
<path fill="none" stroke="midnightblue" d="M204.49,-575.69C210.48,-578.32 216.63,-581.44 222,-585 240.6,-597.33 238.5,-609.16 258,-620 266.52,-624.74 276.23,-628.31 285.79,-631"/>
<polygon fill="midnightblue" stroke="midnightblue" points="285.11,-634.43 295.66,-633.49 286.82,-627.65 285.11,-634.43"/>
</g>
<!-- Node33 -->
<g id="node33" class="node">
<title>Node33</title>
<g id="a_node33"><a xlink:href="byteman_8cpp.html#a7e6d949e69ac4f52a80dad0b6d62de02" target="_top" xlink:title=" ">
<polygon fill="white" stroke="black" points="304.5,-541.5 304.5,-560.5 366.5,-560.5 366.5,-541.5 304.5,-541.5"/>
<text text-anchor="middle" x="335.5" y="-548.5" font-family="Helvetica,sans-Serif" font-size="10.00">getNthInt</text>
</a>
</g>
</g>
<!-- Node32&#45;&gt;Node33 -->
<g id="edge35" class="edge">
<title>Node32&#45;&gt;Node33</title>
<path fill="none" stroke="midnightblue" d="M213.13,-562.56C237.29,-560.26 269.11,-557.23 294.1,-554.85"/>
<polygon fill="midnightblue" stroke="midnightblue" points="294.73,-558.3 304.35,-553.87 294.07,-551.34 294.73,-558.3"/>
</g>
<!-- Node34 -->
<g id="node34" class="node">
<title>Node34</title>
<g id="a_node34"><a xlink:href="class_xilinx_ultra_scale_plus.html#a2736a4556848cdea1b411ef5d4a2fd56" target="_top" xlink:title=" ">
<polygon fill="white" stroke="black" points="278,-580 278,-610 393,-610 393,-580 278,-580"/>
<text text-anchor="start" x="286" y="-598" font-family="Helvetica,sans-Serif" font-size="10.00">XilinxUltraScalePlus</text>
<text text-anchor="middle" x="335.5" y="-587" font-family="Helvetica,sans-Serif" font-size="10.00">::merge</text>
</a>
</g>
</g>
<!-- Node32&#45;&gt;Node34 -->
<g id="edge36" class="edge">
<title>Node32&#45;&gt;Node34</title>
<path fill="none" stroke="midnightblue" d="M213.13,-572.65C229.38,-575.64 249.08,-579.27 267.85,-582.73"/>
<polygon fill="midnightblue" stroke="midnightblue" points="267.38,-586.2 277.85,-584.57 268.65,-579.32 267.38,-586.2"/>
</g>
<!-- Node35&#45;&gt;Node8 -->
<g id="edge38" class="edge">
<title>Node35&#45;&gt;Node8</title>
<path fill="none" stroke="midnightblue" d="M214.73,-442.9C235.81,-437.81 262.34,-431.41 285.07,-425.93"/>
<polygon fill="midnightblue" stroke="midnightblue" points="285.98,-429.31 294.88,-423.56 284.34,-422.5 285.98,-429.31"/>
</g>
<!-- Node35&#45;&gt;Node10 -->
<g id="edge39" class="edge">
<title>Node35&#45;&gt;Node10</title>
<path fill="none" stroke="midnightblue" d="M208.52,-442.47C213.45,-439.96 218.18,-436.85 222,-433 251.48,-403.3 226.46,-373.5 258,-346 263.48,-341.22 269.96,-337.57 276.8,-334.77"/>
<polygon fill="midnightblue" stroke="midnightblue" points="277.99,-338.06 286.28,-331.47 275.69,-331.45 277.99,-338.06"/>
</g>
<!-- Node35&#45;&gt;Node33 -->
<g id="edge40" class="edge">
<title>Node35&#45;&gt;Node33</title>
<path fill="none" stroke="midnightblue" d="M207.14,-461.55C212.45,-464.08 217.66,-467.2 222,-471 245.7,-491.72 232.76,-513.19 258,-532 268.48,-539.81 281.78,-544.44 294.34,-547.17"/>
<polygon fill="midnightblue" stroke="midnightblue" points="293.72,-550.61 304.19,-548.98 294.99,-543.73 293.72,-550.61"/>
</g>
<!-- Node36 -->
<g id="node36" class="node">
<title>Node36</title>
<g id="a_node36"><a xlink:href="class_xilinx_ultra_scale_plus.html#aecdb65a64d91cb6bcc3a920ac6e55692" target="_top" xlink:title=" ">
<polygon fill="white" stroke="black" points="278,-492 278,-522 393,-522 393,-492 278,-492"/>
<text text-anchor="start" x="286" y="-510" font-family="Helvetica,sans-Serif" font-size="10.00">XilinxUltraScalePlus</text>
<text text-anchor="middle" x="335.5" y="-499" font-family="Helvetica,sans-Serif" font-size="10.00">::writeBitstream</text>
</a>
</g>
</g>
<!-- Node35&#45;&gt;Node36 -->
<g id="edge41" class="edge">
<title>Node35&#45;&gt;Node36</title>
<path fill="none" stroke="midnightblue" d="M200.96,-461.61C217.01,-467.94 238.66,-476.27 258,-483 263.56,-484.93 269.37,-486.88 275.19,-488.79"/>
<polygon fill="midnightblue" stroke="midnightblue" points="274.38,-492.21 284.97,-491.95 276.53,-485.55 274.38,-492.21"/>
</g>
<!-- Node37&#45;&gt;Node5 -->
<g id="edge43" class="edge">
<title>Node37&#45;&gt;Node5</title>
<path fill="none" stroke="midnightblue" d="M214.73,-612.38C236.13,-617.14 263.14,-623.14 286.1,-628.24"/>
<polygon fill="midnightblue" stroke="midnightblue" points="285.47,-631.69 295.99,-630.44 286.99,-624.86 285.47,-631.69"/>
</g>
<!-- Node37&#45;&gt;Node33 -->
<g id="edge44" class="edge">
<title>Node37&#45;&gt;Node33</title>
<path fill="none" stroke="midnightblue" d="M199.66,-594.38C219.5,-586.03 246.83,-574.72 258,-571 269.69,-567.11 282.58,-563.49 294.39,-560.43"/>
<polygon fill="midnightblue" stroke="midnightblue" points="295.61,-563.73 304.44,-557.89 293.89,-556.95 295.61,-563.73"/>
</g>
<!-- Node38 -->
<g id="node38" class="node">
<title>Node38</title>
<g id="a_node38"><a xlink:href="class_xilinx_ultra_scale_plus.html#ab0f4022be98e6a142e5a9331e7ed79ea" target="_top" xlink:title=" ">
<polygon fill="white" stroke="black" points="278,-668 278,-698 393,-698 393,-668 278,-668"/>
<text text-anchor="start" x="286" y="-686" font-family="Helvetica,sans-Serif" font-size="10.00">XilinxUltraScalePlus</text>
<text text-anchor="middle" x="335.5" y="-675" font-family="Helvetica,sans-Serif" font-size="10.00">::region</text>
</a>
</g>
</g>
<!-- Node37&#45;&gt;Node38 -->
<g id="edge45" class="edge">
<title>Node37&#45;&gt;Node38</title>
<path fill="none" stroke="midnightblue" d="M204.49,-613.69C210.48,-616.32 216.63,-619.44 222,-623 240.6,-635.33 238.9,-646.46 258,-658 261.57,-660.15 265.34,-662.15 269.22,-663.98"/>
<polygon fill="midnightblue" stroke="midnightblue" points="267.87,-667.21 278.44,-668 270.66,-660.79 267.87,-667.21"/>
</g>
<!-- Node39&#45;&gt;Node33 -->
<g id="edge47" class="edge">
<title>Node39&#45;&gt;Node33</title>
<path fill="none" stroke="midnightblue" d="M217.56,-533.92C241.06,-537.35 270.55,-541.66 294.03,-545.09"/>
<polygon fill="midnightblue" stroke="midnightblue" points="293.63,-548.57 304.03,-546.55 294.64,-541.64 293.63,-548.57"/>
</g>
<!-- Node40&#45;&gt;Node33 -->
<g id="edge49" class="edge">
<title>Node40&#45;&gt;Node33</title>
<path fill="none" stroke="midnightblue" d="M201.64,-499.52C208.35,-502.35 215.54,-505.61 222,-509 238.81,-517.84 240.56,-524.5 258,-532 269.49,-536.94 282.53,-540.77 294.55,-543.66"/>
<polygon fill="midnightblue" stroke="midnightblue" points="293.82,-547.09 304.34,-545.87 295.36,-540.26 293.82,-547.09"/>
</g>
</g>
</svg>
