<?xml version="1.0" encoding="UTF-8" standalone="no"?>
<!DOCTYPE svg PUBLIC "-//W3C//DTD SVG 1.1//EN"
 "http://www.w3.org/Graphics/SVG/1.1/DTD/svg11.dtd">
<!-- Generated by graphviz version 2.43.0 (0)
 -->
<!-- Title: parseMerge Pages: 1 -->
<svg width="233pt" height="116pt"
 viewBox="0.00 0.00 233.00 115.50" xmlns="http://www.w3.org/2000/svg" xmlns:xlink="http://www.w3.org/1999/xlink">
<g id="graph0" class="graph" transform="scale(1 1) rotate(0) translate(4 111.5)">
<title>parseMerge</title>
<polygon fill="white" stroke="transparent" points="-4,4 -4,-111.5 229,-111.5 229,4 -4,4"/>
<!-- Node1 -->
<g id="node1" class="node">
<title>Node1</title>
<g id="a_node1"><a xlink:title=" ">
<polygon fill="#bfbfbf" stroke="black" points="0,-50 0,-69 74,-69 74,-50 0,-50"/>
<text text-anchor="middle" x="37" y="-57" font-family="Helvetica,sans-Serif" font-size="10.00">parseMerge</text>
</a>
</g>
</g>
<!-- Node2 -->
<g id="node2" class="node">
<title>Node2</title>
<g id="a_node2"><a xlink:href="byteman_8cpp.html#a7387d6a5da2c3ae1a51a14b1c0855112" target="_top" xlink:title=" ">
<polygon fill="white" stroke="black" points="128,-88 128,-107 207,-107 207,-88 128,-88"/>
<text text-anchor="middle" x="167.5" y="-95" font-family="Helvetica,sans-Serif" font-size="10.00">getAllStrings</text>
</a>
</g>
</g>
<!-- Node1&#45;&gt;Node2 -->
<g id="edge1" class="edge">
<title>Node1&#45;&gt;Node2</title>
<path fill="none" stroke="midnightblue" d="M70.43,-69.09C86.71,-73.9 106.64,-79.8 124.12,-84.97"/>
<polygon fill="midnightblue" stroke="midnightblue" points="123.5,-88.43 134.08,-87.91 125.49,-81.72 123.5,-88.43"/>
</g>
<!-- Node3 -->
<g id="node3" class="node">
<title>Node3</title>
<g id="a_node3"><a xlink:href="byteman_8cpp.html#a7e6d949e69ac4f52a80dad0b6d62de02" target="_top" xlink:title=" ">
<polygon fill="white" stroke="black" points="136.5,-50 136.5,-69 198.5,-69 198.5,-50 136.5,-50"/>
<text text-anchor="middle" x="167.5" y="-57" font-family="Helvetica,sans-Serif" font-size="10.00">getNthInt</text>
</a>
</g>
</g>
<!-- Node1&#45;&gt;Node3 -->
<g id="edge2" class="edge">
<title>Node1&#45;&gt;Node3</title>
<path fill="none" stroke="midnightblue" d="M74.14,-59.5C90.37,-59.5 109.58,-59.5 126.26,-59.5"/>
<polygon fill="midnightblue" stroke="midnightblue" points="126.28,-63 136.28,-59.5 126.28,-56 126.28,-63"/>
</g>
<!-- Node4 -->
<g id="node4" class="node">
<title>Node4</title>
<g id="a_node4"><a xlink:href="class_xilinx_ultra_scale_plus.html#a2736a4556848cdea1b411ef5d4a2fd56" target="_top" xlink:title=" ">
<polygon fill="white" stroke="black" points="110,-0.5 110,-30.5 225,-30.5 225,-0.5 110,-0.5"/>
<text text-anchor="start" x="118" y="-18.5" font-family="Helvetica,sans-Serif" font-size="10.00">XilinxUltraScalePlus</text>
<text text-anchor="middle" x="167.5" y="-7.5" font-family="Helvetica,sans-Serif" font-size="10.00">::merge</text>
</a>
</g>
</g>
<!-- Node1&#45;&gt;Node4 -->
<g id="edge3" class="edge">
<title>Node1&#45;&gt;Node4</title>
<path fill="none" stroke="midnightblue" d="M65.88,-49.95C79.58,-45.26 96.55,-39.45 112.64,-33.94"/>
<polygon fill="midnightblue" stroke="midnightblue" points="114.18,-37.12 122.5,-30.57 111.91,-30.49 114.18,-37.12"/>
</g>
</g>
</svg>
