<?xml version="1.0" encoding="UTF-8" standalone="no"?>
<!DOCTYPE svg PUBLIC "-//W3C//DTD SVG 1.1//EN"
 "http://www.w3.org/Graphics/SVG/1.1/DTD/svg11.dtd">
<!-- Generated by graphviz version 2.43.0 (0)
 -->
<!-- Title: getAllButLastStringArg Pages: 1 -->
<svg width="455pt" height="104pt"
 viewBox="0.00 0.00 455.00 104.00" xmlns="http://www.w3.org/2000/svg" xmlns:xlink="http://www.w3.org/1999/xlink">
<g id="graph0" class="graph" transform="scale(1 1) rotate(0) translate(4 100)">
<title>getAllButLastStringArg</title>
<polygon fill="white" stroke="transparent" points="-4,4 -4,-100 451,-100 451,4 -4,4"/>
<!-- Node1 -->
<g id="node1" class="node">
<title>Node1</title>
<g id="a_node1"><a xlink:title=" ">
<polygon fill="#bfbfbf" stroke="black" points="320,-38.5 320,-57.5 447,-57.5 447,-38.5 320,-38.5"/>
<text text-anchor="middle" x="383.5" y="-45.5" font-family="Helvetica,sans-Serif" font-size="10.00">getAllButLastStringArg</text>
</a>
</g>
</g>
<!-- Node2 -->
<g id="node2" class="node">
<title>Node2</title>
<g id="a_node2"><a xlink:href="byteman_8cpp.html#a883440ce4fd99a9d8375dd36b34346ee" target="_top" xlink:title=" ">
<polygon fill="white" stroke="black" points="207,-76.5 207,-95.5 284,-95.5 284,-76.5 207,-76.5"/>
<text text-anchor="middle" x="245.5" y="-83.5" font-family="Helvetica,sans-Serif" font-size="10.00">parseDevice</text>
</a>
</g>
</g>
<!-- Node1&#45;&gt;Node2 -->
<g id="edge1" class="edge">
<title>Node1&#45;&gt;Node2</title>
<path fill="none" stroke="midnightblue" d="M338.41,-60.32C319.73,-65.54 298.28,-71.53 280.81,-76.41"/>
<polygon fill="midnightblue" stroke="midnightblue" points="339.49,-63.65 348.18,-57.59 337.61,-56.91 339.49,-63.65"/>
</g>
<!-- Node5 -->
<g id="node5" class="node">
<title>Node5</title>
<g id="a_node5"><a xlink:href="byteman_8cpp.html#a4dbd88e4909b2f0429f9d0b2fc2608bb" target="_top" xlink:title=" ">
<polygon fill="white" stroke="black" points="211.5,-38.5 211.5,-57.5 279.5,-57.5 279.5,-38.5 211.5,-38.5"/>
<text text-anchor="middle" x="245.5" y="-45.5" font-family="Helvetica,sans-Serif" font-size="10.00">parseInput</text>
</a>
</g>
</g>
<!-- Node1&#45;&gt;Node5 -->
<g id="edge4" class="edge">
<title>Node1&#45;&gt;Node5</title>
<path fill="none" stroke="midnightblue" d="M309.65,-48C299.2,-48 288.91,-48 279.76,-48"/>
<polygon fill="midnightblue" stroke="midnightblue" points="309.68,-51.5 319.68,-48 309.68,-44.5 309.68,-51.5"/>
</g>
<!-- Node6 -->
<g id="node6" class="node">
<title>Node6</title>
<g id="a_node6"><a xlink:href="byteman_8cpp.html#a6864a632485326d2049256aeb01cc4cf" target="_top" xlink:title=" ">
<polygon fill="white" stroke="black" points="207,-0.5 207,-19.5 284,-19.5 284,-0.5 207,-0.5"/>
<text text-anchor="middle" x="245.5" y="-7.5" font-family="Helvetica,sans-Serif" font-size="10.00">parseOutput</text>
</a>
</g>
</g>
<!-- Node1&#45;&gt;Node6 -->
<g id="edge6" class="edge">
<title>Node1&#45;&gt;Node6</title>
<path fill="none" stroke="midnightblue" d="M338.41,-35.68C319.73,-30.46 298.28,-24.47 280.81,-19.59"/>
<polygon fill="midnightblue" stroke="midnightblue" points="337.61,-39.09 348.18,-38.41 339.49,-32.35 337.61,-39.09"/>
</g>
<!-- Node3 -->
<g id="node3" class="node">
<title>Node3</title>
<g id="a_node3"><a xlink:href="byteman_8cpp.html#a913ad3944130fafece24fe460db9b6aa" target="_top" xlink:title=" ">
<polygon fill="white" stroke="black" points="77,-38.5 77,-57.5 171,-57.5 171,-38.5 77,-38.5"/>
<text text-anchor="middle" x="124" y="-45.5" font-family="Helvetica,sans-Serif" font-size="10.00">parseCommand</text>
</a>
</g>
</g>
<!-- Node2&#45;&gt;Node3 -->
<g id="edge2" class="edge">
<title>Node2&#45;&gt;Node3</title>
<path fill="none" stroke="midnightblue" d="M204.62,-73.32C188.48,-68.19 170.15,-62.36 155.15,-57.59"/>
<polygon fill="midnightblue" stroke="midnightblue" points="203.75,-76.72 214.35,-76.41 205.88,-70.05 203.75,-76.72"/>
</g>
<!-- Node4 -->
<g id="node4" class="node">
<title>Node4</title>
<g id="a_node4"><a xlink:href="byteman_8cpp.html#a0ddf1224851353fc92bfbff6f499fa97" target="_top" xlink:title=" ">
<polygon fill="white" stroke="black" points="0,-38.5 0,-57.5 41,-57.5 41,-38.5 0,-38.5"/>
<text text-anchor="middle" x="20.5" y="-45.5" font-family="Helvetica,sans-Serif" font-size="10.00">main</text>
</a>
</g>
</g>
<!-- Node3&#45;&gt;Node4 -->
<g id="edge3" class="edge">
<title>Node3&#45;&gt;Node4</title>
<path fill="none" stroke="midnightblue" d="M66.69,-48C57.49,-48 48.54,-48 41.06,-48"/>
<polygon fill="midnightblue" stroke="midnightblue" points="66.71,-51.5 76.71,-48 66.71,-44.5 66.71,-51.5"/>
</g>
<!-- Node5&#45;&gt;Node3 -->
<g id="edge5" class="edge">
<title>Node5&#45;&gt;Node3</title>
<path fill="none" stroke="midnightblue" d="M200.96,-48C191.23,-48 180.88,-48 171.06,-48"/>
<polygon fill="midnightblue" stroke="midnightblue" points="201.21,-51.5 211.21,-48 201.21,-44.5 201.21,-51.5"/>
</g>
<!-- Node6&#45;&gt;Node3 -->
<g id="edge7" class="edge">
<title>Node6&#45;&gt;Node3</title>
<path fill="none" stroke="midnightblue" d="M204.62,-22.68C188.48,-27.81 170.15,-33.64 155.15,-38.41"/>
<polygon fill="midnightblue" stroke="midnightblue" points="205.88,-25.95 214.35,-19.59 203.75,-19.28 205.88,-25.95"/>
</g>
</g>
</svg>
