<?xml version="1.0" encoding="UTF-8" standalone="no"?>
<!DOCTYPE svg PUBLIC "-//W3C//DTD SVG 1.1//EN"
 "http://www.w3.org/Graphics/SVG/1.1/DTD/svg11.dtd">
<!-- Generated by graphviz version 2.43.0 (0)
 -->
<!-- Title: parseDevice Pages: 1 -->
<svg width="276pt" height="166pt"
 viewBox="0.00 0.00 276.00 165.50" xmlns="http://www.w3.org/2000/svg" xmlns:xlink="http://www.w3.org/1999/xlink">
<g id="graph0" class="graph" transform="scale(1 1) rotate(0) translate(4 161.5)">
<title>parseDevice</title>
<polygon fill="white" stroke="transparent" points="-4,4 -4,-161.5 272,-161.5 272,4 -4,4"/>
<!-- Node1 -->
<g id="node1" class="node">
<title>Node1</title>
<g id="a_node1"><a xlink:title=" ">
<polygon fill="#bfbfbf" stroke="black" points="0,-72 0,-91 77,-91 77,-72 0,-72"/>
<text text-anchor="middle" x="38.5" y="-79" font-family="Helvetica,sans-Serif" font-size="10.00">parseDevice</text>
</a>
</g>
</g>
<!-- Node2 -->
<g id="node2" class="node">
<title>Node2</title>
<g id="a_node2"><a xlink:href="byteman_8cpp.html#abb94c0ff14dd633ff41b3b9f83ae0bd3" target="_top" xlink:title=" ">
<polygon fill="white" stroke="black" points="127,-138 127,-157 254,-157 254,-138 127,-138"/>
<text text-anchor="middle" x="190.5" y="-145" font-family="Helvetica,sans-Serif" font-size="10.00">getAllButLastStringArg</text>
</a>
</g>
</g>
<!-- Node1&#45;&gt;Node2 -->
<g id="edge1" class="edge">
<title>Node1&#45;&gt;Node2</title>
<path fill="none" stroke="midnightblue" d="M51.8,-91.16C65.86,-101.75 89.9,-118.57 113,-128.5 118.77,-130.98 124.94,-133.19 131.17,-135.13"/>
<polygon fill="midnightblue" stroke="midnightblue" points="130.39,-138.55 140.97,-137.98 132.34,-131.83 130.39,-138.55"/>
</g>
<!-- Node3 -->
<g id="node3" class="node">
<title>Node3</title>
<g id="a_node3"><a xlink:href="class_xilinx_ultra_scale_plus.html#aa7161a5191cf43caf46263dbc82a45ef" target="_top" xlink:title=" ">
<polygon fill="white" stroke="black" points="113,-88.5 113,-118.5 268,-118.5 268,-88.5 113,-88.5"/>
<text text-anchor="start" x="121" y="-106.5" font-family="Helvetica,sans-Serif" font-size="10.00">XilinxUltraScalePlus</text>
<text text-anchor="middle" x="190.5" y="-95.5" font-family="Helvetica,sans-Serif" font-size="10.00">::getDeviceByNameOrThrow</text>
</a>
</g>
</g>
<!-- Node1&#45;&gt;Node3 -->
<g id="edge2" class="edge">
<title>Node1&#45;&gt;Node3</title>
<path fill="none" stroke="midnightblue" d="M77.35,-87.05C85.23,-88.21 93.85,-89.47 102.69,-90.77"/>
<polygon fill="midnightblue" stroke="midnightblue" points="102.33,-94.25 112.74,-92.24 103.35,-87.33 102.33,-94.25"/>
</g>
<!-- Node4 -->
<g id="node4" class="node">
<title>Node4</title>
<g id="a_node4"><a xlink:href="byteman_8cpp.html#a00471d4a59c1bf585fbc1cdf2398a02d" target="_top" xlink:title=" ">
<polygon fill="white" stroke="black" points="141.5,-50 141.5,-69 239.5,-69 239.5,-50 141.5,-50"/>
<text text-anchor="middle" x="190.5" y="-57" font-family="Helvetica,sans-Serif" font-size="10.00">getLastStringArg</text>
</a>
</g>
</g>
<!-- Node1&#45;&gt;Node4 -->
<g id="edge3" class="edge">
<title>Node1&#45;&gt;Node4</title>
<path fill="none" stroke="midnightblue" d="M77.35,-75.95C93.75,-73.54 113.33,-70.67 131.5,-68.01"/>
<polygon fill="midnightblue" stroke="midnightblue" points="132.03,-71.47 141.42,-66.55 131.02,-64.54 132.03,-71.47"/>
</g>
<!-- Node5 -->
<g id="node5" class="node">
<title>Node5</title>
<g id="a_node5"><a xlink:href="class_xilinx_ultra_scale_plus.html#a762297dd90b02efcbb4a4aa0274dd34b" target="_top" xlink:title=" ">
<polygon fill="white" stroke="black" points="133,-0.5 133,-30.5 248,-30.5 248,-0.5 133,-0.5"/>
<text text-anchor="start" x="141" y="-18.5" font-family="Helvetica,sans-Serif" font-size="10.00">XilinxUltraScalePlus</text>
<text text-anchor="middle" x="190.5" y="-7.5" font-family="Helvetica,sans-Serif" font-size="10.00">::setDevice</text>
</a>
</g>
</g>
<!-- Node1&#45;&gt;Node5 -->
<g id="edge4" class="edge">
<title>Node1&#45;&gt;Node5</title>
<path fill="none" stroke="midnightblue" d="M54.54,-71.97C69.1,-63.03 91.98,-49.69 113,-40.5 118.25,-38.2 123.78,-36 129.36,-33.92"/>
<polygon fill="midnightblue" stroke="midnightblue" points="130.55,-37.22 138.78,-30.55 128.18,-30.63 130.55,-37.22"/>
</g>
</g>
</svg>
