<?xml version="1.0" encoding="UTF-8" standalone="no"?>
<!DOCTYPE svg PUBLIC "-//W3C//DTD SVG 1.1//EN"
 "http://www.w3.org/Graphics/SVG/1.1/DTD/svg11.dtd">
<!-- Generated by graphviz version 2.43.0 (0)
 -->
<!-- Title: parseInput Pages: 1 -->
<svg width="239pt" height="116pt"
 viewBox="0.00 0.00 239.00 115.50" xmlns="http://www.w3.org/2000/svg" xmlns:xlink="http://www.w3.org/1999/xlink">
<g id="graph0" class="graph" transform="scale(1 1) rotate(0) translate(4 111.5)">
<title>parseInput</title>
<polygon fill="white" stroke="transparent" points="-4,4 -4,-111.5 235,-111.5 235,4 -4,4"/>
<!-- Node1 -->
<g id="node1" class="node">
<title>Node1</title>
<g id="a_node1"><a xlink:title=" ">
<polygon fill="#bfbfbf" stroke="black" points="0,-50 0,-69 68,-69 68,-50 0,-50"/>
<text text-anchor="middle" x="34" y="-57" font-family="Helvetica,sans-Serif" font-size="10.00">parseInput</text>
</a>
</g>
</g>
<!-- Node2 -->
<g id="node2" class="node">
<title>Node2</title>
<g id="a_node2"><a xlink:href="byteman_8cpp.html#abb94c0ff14dd633ff41b3b9f83ae0bd3" target="_top" xlink:title=" ">
<polygon fill="white" stroke="black" points="104,-88 104,-107 231,-107 231,-88 104,-88"/>
<text text-anchor="middle" x="167.5" y="-95" font-family="Helvetica,sans-Serif" font-size="10.00">getAllButLastStringArg</text>
</a>
</g>
</g>
<!-- Node1&#45;&gt;Node2 -->
<g id="edge1" class="edge">
<title>Node1&#45;&gt;Node2</title>
<path fill="none" stroke="midnightblue" d="M68.18,-69.09C85,-73.95 105.63,-79.91 123.63,-85.11"/>
<polygon fill="midnightblue" stroke="midnightblue" points="122.75,-88.5 133.33,-87.91 124.69,-81.78 122.75,-88.5"/>
</g>
<!-- Node3 -->
<g id="node3" class="node">
<title>Node3</title>
<g id="a_node3"><a xlink:href="byteman_8cpp.html#a00471d4a59c1bf585fbc1cdf2398a02d" target="_top" xlink:title=" ">
<polygon fill="white" stroke="black" points="118.5,-50 118.5,-69 216.5,-69 216.5,-50 118.5,-50"/>
<text text-anchor="middle" x="167.5" y="-57" font-family="Helvetica,sans-Serif" font-size="10.00">getLastStringArg</text>
</a>
</g>
</g>
<!-- Node1&#45;&gt;Node3 -->
<g id="edge2" class="edge">
<title>Node1&#45;&gt;Node3</title>
<path fill="none" stroke="midnightblue" d="M68.18,-59.5C80.31,-59.5 94.41,-59.5 108.09,-59.5"/>
<polygon fill="midnightblue" stroke="midnightblue" points="108.42,-63 118.42,-59.5 108.42,-56 108.42,-63"/>
</g>
<!-- Node4 -->
<g id="node4" class="node">
<title>Node4</title>
<g id="a_node4"><a xlink:href="class_xilinx_ultra_scale_plus.html#a0e5d08a2e5c37a29a1a04d50b48739d2" target="_top" xlink:title=" ">
<polygon fill="white" stroke="black" points="110,-0.5 110,-30.5 225,-30.5 225,-0.5 110,-0.5"/>
<text text-anchor="start" x="118" y="-18.5" font-family="Helvetica,sans-Serif" font-size="10.00">XilinxUltraScalePlus</text>
<text text-anchor="middle" x="167.5" y="-7.5" font-family="Helvetica,sans-Serif" font-size="10.00">::readBitstream</text>
</a>
</g>
</g>
<!-- Node1&#45;&gt;Node4 -->
<g id="edge3" class="edge">
<title>Node1&#45;&gt;Node4</title>
<path fill="none" stroke="midnightblue" d="M63.53,-49.95C77.68,-45.22 95.25,-39.34 111.85,-33.79"/>
<polygon fill="midnightblue" stroke="midnightblue" points="113.1,-37.06 121.48,-30.57 110.88,-30.42 113.1,-37.06"/>
</g>
</g>
</svg>
