<?xml version="1.0" encoding="UTF-8" standalone="no"?>
<!DOCTYPE svg PUBLIC "-//W3C//DTD SVG 1.1//EN"
 "http://www.w3.org/Graphics/SVG/1.1/DTD/svg11.dtd">
<!-- Generated by graphviz version 2.43.0 (0)
 -->
<!-- Title: src/byteman.h Pages: 1 -->
<svg width="363pt" height="106pt"
 viewBox="0.00 0.00 362.50 106.00" xmlns="http://www.w3.org/2000/svg" xmlns:xlink="http://www.w3.org/1999/xlink">
<g id="graph0" class="graph" transform="scale(1 1) rotate(0) translate(4 102)">
<title>src/byteman.h</title>
<polygon fill="white" stroke="transparent" points="-4,4 -4,-102 358.5,-102 358.5,4 -4,4"/>
<!-- Node1 -->
<g id="node1" class="node">
<title>Node1</title>
<g id="a_node1"><a xlink:title=" ">
<polygon fill="#bfbfbf" stroke="black" points="111,-78.5 111,-97.5 197,-97.5 197,-78.5 111,-78.5"/>
<text text-anchor="middle" x="154" y="-85.5" font-family="Helvetica,sans-Serif" font-size="10.00">src/byteman.h</text>
</a>
</g>
</g>
<!-- Node2 -->
<g id="node2" class="node">
<title>Node2</title>
<g id="a_node2"><a xlink:href="byteman_8cpp.html" target="_top" xlink:title=" ">
<polygon fill="white" stroke="black" points="0,-11.5 0,-30.5 98,-30.5 98,-11.5 0,-11.5"/>
<text text-anchor="middle" x="49" y="-18.5" font-family="Helvetica,sans-Serif" font-size="10.00">src/byteman.cpp</text>
</a>
</g>
</g>
<!-- Node1&#45;&gt;Node2 -->
<g id="edge1" class="edge">
<title>Node1&#45;&gt;Node2</title>
<path fill="none" stroke="midnightblue" d="M131.29,-72.94C110.5,-60.07 80.38,-41.43 62.94,-30.63"/>
<polygon fill="midnightblue" stroke="midnightblue" points="129.49,-75.95 139.84,-78.23 133.18,-69.99 129.49,-75.95"/>
</g>
<!-- Node3 -->
<g id="node3" class="node">
<title>Node3</title>
<g id="a_node3"><a xlink:href="help_8cpp.html" target="_top" xlink:title=" ">
<polygon fill="white" stroke="black" points="116.5,-11.5 116.5,-30.5 191.5,-30.5 191.5,-11.5 116.5,-11.5"/>
<text text-anchor="middle" x="154" y="-18.5" font-family="Helvetica,sans-Serif" font-size="10.00">src/help.cpp</text>
</a>
</g>
</g>
<!-- Node1&#45;&gt;Node3 -->
<g id="edge2" class="edge">
<title>Node1&#45;&gt;Node3</title>
<path fill="none" stroke="midnightblue" d="M154,-68.04C154,-55.67 154,-40.12 154,-30.63"/>
<polygon fill="midnightblue" stroke="midnightblue" points="150.5,-68.23 154,-78.23 157.5,-68.23 150.5,-68.23"/>
</g>
<!-- Node4 -->
<g id="node4" class="node">
<title>Node4</title>
<g id="a_node4"><a xlink:href="_xilinx_ultra_scale_plus_8cpp.html" target="_top" xlink:title=" ">
<polygon fill="white" stroke="black" points="209.5,-0.5 209.5,-41.5 354.5,-41.5 354.5,-0.5 209.5,-0.5"/>
<text text-anchor="start" x="217.5" y="-29.5" font-family="Helvetica,sans-Serif" font-size="10.00">src/Devices/Xilinx</text>
<text text-anchor="start" x="217.5" y="-18.5" font-family="Helvetica,sans-Serif" font-size="10.00">/UltraScalePlus/XilinxUltra</text>
<text text-anchor="middle" x="282" y="-7.5" font-family="Helvetica,sans-Serif" font-size="10.00">ScalePlus.cpp</text>
</a>
</g>
</g>
<!-- Node1&#45;&gt;Node4 -->
<g id="edge3" class="edge">
<title>Node1&#45;&gt;Node4</title>
<path fill="none" stroke="midnightblue" d="M180.38,-73.6C198.55,-64.38 222.99,-51.96 243.35,-41.63"/>
<polygon fill="midnightblue" stroke="midnightblue" points="178.33,-70.72 171,-78.37 181.5,-76.96 178.33,-70.72"/>
</g>
</g>
</svg>
