<?xml version="1.0" encoding="UTF-8" standalone="no"?>
<!DOCTYPE svg PUBLIC "-//W3C//DTD SVG 1.1//EN"
 "http://www.w3.org/Graphics/SVG/1.1/DTD/svg11.dtd">
<!-- Generated by graphviz version 2.43.0 (0)
 -->
<!-- Title: src/Devices/Xilinx Pages: 1 -->
<svg width="216pt" height="159pt"
 viewBox="0.00 0.00 216.00 159.00" xmlns="http://www.w3.org/2000/svg" xmlns:xlink="http://www.w3.org/1999/xlink">
<g id="graph0" class="graph" transform="scale(1 1) rotate(0) translate(4 155)">
<title>src/Devices/Xilinx</title>
<polygon fill="white" stroke="transparent" points="-4,4 -4,-155 212,-155 212,4 -4,4"/>
<g id="clust1" class="cluster">
<title>clusterdir_27b17494125eb78195473abe004504ab</title>
<g id="a_clust1"><a xlink:href="dir_27b17494125eb78195473abe004504ab.html" target="_top" xlink:title="Devices">
<polygon fill="#ddddee" stroke="black" points="8,-56 8,-143 200,-143 200,-56 8,-56"/>
<text text-anchor="middle" x="104" y="-131" font-family="Helvetica,sans-Serif" font-size="10.00">Devices</text>
</a>
</g>
</g>
<g id="clust2" class="cluster">
<title>clusterdir_3b80f9b66070ce327ebd8ab923ef7ff0</title>
<g id="a_clust2"><a xlink:href="dir_3b80f9b66070ce327ebd8ab923ef7ff0.html" target="_top">
<polygon fill="#eeeeff" stroke="black" points="16,-64 16,-116 192,-116 192,-64 16,-64"/>
</a>
</g>
</g>
<!-- dir_3b80f9b66070ce327ebd8ab923ef7ff0 -->
<g id="node1" class="node">
<title>dir_3b80f9b66070ce327ebd8ab923ef7ff0</title>
<text text-anchor="middle" x="157" y="-87.5" font-family="Helvetica,sans-Serif" font-size="10.00">Xilinx</text>
</g>
<!-- dir_21f1379af401b02d6de0cd697d1b0560 -->
<g id="node2" class="node">
<title>dir_21f1379af401b02d6de0cd697d1b0560</title>
<g id="a_node2"><a xlink:href="dir_21f1379af401b02d6de0cd697d1b0560.html" target="_top" xlink:title="UltraScalePlus">
<polygon fill="white" stroke="black" points="111.5,-108 24.5,-108 24.5,-72 111.5,-72 111.5,-108"/>
<text text-anchor="middle" x="68" y="-87.5" font-family="Helvetica,sans-Serif" font-size="10.00">UltraScalePlus</text>
</a>
</g>
</g>
<!-- dir_ba210d1fa67db7bee1bb22e0a3c11d9f -->
<g id="node3" class="node">
<title>dir_ba210d1fa67db7bee1bb22e0a3c11d9f</title>
<g id="a_node3"><a xlink:href="dir_ba210d1fa67db7bee1bb22e0a3c11d9f.html" target="_top" xlink:title="Common">
<polygon fill="none" stroke="black" points="98.5,-36 37.5,-36 37.5,0 98.5,0 98.5,-36"/>
<text text-anchor="middle" x="68" y="-15.5" font-family="Helvetica,sans-Serif" font-size="10.00">Common</text>
</a>
</g>
</g>
<!-- dir_21f1379af401b02d6de0cd697d1b0560&#45;&gt;dir_ba210d1fa67db7bee1bb22e0a3c11d9f -->
<g id="edge1" class="edge">
<title>dir_21f1379af401b02d6de0cd697d1b0560&#45;&gt;dir_ba210d1fa67db7bee1bb22e0a3c11d9f</title>
<path fill="none" stroke="black" d="M68,-71.7C68,-63.98 68,-54.71 68,-46.11"/>
<polygon fill="black" stroke="black" points="71.5,-46.1 68,-36.1 64.5,-46.1 71.5,-46.1"/>
<g id="a_edge1&#45;headlabel"><a xlink:href="dir_000004_000001.html" target="_top" xlink:title="1">
<text text-anchor="middle" x="74.34" y="-47.2" font-family="Helvetica,sans-Serif" font-size="10.00">1</text>
</a>
</g>
</g>
</g>
</svg>
