<?xml version="1.0" encoding="UTF-8" standalone="no"?>
<!DOCTYPE svg PUBLIC "-//W3C//DTD SVG 1.1//EN"
 "http://www.w3.org/Graphics/SVG/1.1/DTD/svg11.dtd">
<!-- Generated by graphviz version 2.43.0 (0)
 -->
<!-- Title: src/Devices Pages: 1 -->
<svg width="184pt" height="159pt"
 viewBox="0.00 0.00 184.00 159.00" xmlns="http://www.w3.org/2000/svg" xmlns:xlink="http://www.w3.org/1999/xlink">
<g id="graph0" class="graph" transform="scale(1 1) rotate(0) translate(4 155)">
<title>src/Devices</title>
<polygon fill="white" stroke="transparent" points="-4,4 -4,-155 180,-155 180,4 -4,4"/>
<g id="clust1" class="cluster">
<title>clusterdir_68267d1309a1af8e8297ef4c3efbcdba</title>
<g id="a_clust1"><a xlink:href="dir_68267d1309a1af8e8297ef4c3efbcdba.html" target="_top" xlink:title="src">
<polygon fill="#ddddee" stroke="black" points="8,-56 8,-143 168,-143 168,-56 8,-56"/>
<text text-anchor="middle" x="88" y="-131" font-family="Helvetica,sans-Serif" font-size="10.00">src</text>
</a>
</g>
</g>
<g id="clust2" class="cluster">
<title>clusterdir_27b17494125eb78195473abe004504ab</title>
<g id="a_clust2"><a xlink:href="dir_27b17494125eb78195473abe004504ab.html" target="_top">
<polygon fill="#eeeeff" stroke="black" points="16,-64 16,-116 160,-116 160,-64 16,-64"/>
</a>
</g>
</g>
<!-- dir_27b17494125eb78195473abe004504ab -->
<g id="node1" class="node">
<title>dir_27b17494125eb78195473abe004504ab</title>
<text text-anchor="middle" x="124" y="-87.5" font-family="Helvetica,sans-Serif" font-size="10.00">Devices</text>
</g>
<!-- dir_3b80f9b66070ce327ebd8ab923ef7ff0 -->
<g id="node2" class="node">
<title>dir_3b80f9b66070ce327ebd8ab923ef7ff0</title>
<g id="a_node2"><a xlink:href="dir_3b80f9b66070ce327ebd8ab923ef7ff0.html" target="_top" xlink:title="Xilinx">
<polygon fill="white" stroke="red" points="78,-108 24,-108 24,-72 78,-72 78,-108"/>
<text text-anchor="middle" x="51" y="-87.5" font-family="Helvetica,sans-Serif" font-size="10.00">Xilinx</text>
</a>
</g>
</g>
<!-- dir_ba210d1fa67db7bee1bb22e0a3c11d9f -->
<g id="node3" class="node">
<title>dir_ba210d1fa67db7bee1bb22e0a3c11d9f</title>
<g id="a_node3"><a xlink:href="dir_ba210d1fa67db7bee1bb22e0a3c11d9f.html" target="_top" xlink:title="Common">
<polygon fill="none" stroke="black" points="81.5,-36 20.5,-36 20.5,0 81.5,0 81.5,-36"/>
<text text-anchor="middle" x="51" y="-15.5" font-family="Helvetica,sans-Serif" font-size="10.00">Common</text>
</a>
</g>
</g>
<!-- dir_3b80f9b66070ce327ebd8ab923ef7ff0&#45;&gt;dir_ba210d1fa67db7bee1bb22e0a3c11d9f -->
<g id="edge1" class="edge">
<title>dir_3b80f9b66070ce327ebd8ab923ef7ff0&#45;&gt;dir_ba210d1fa67db7bee1bb22e0a3c11d9f</title>
<path fill="none" stroke="black" d="M51,-71.7C51,-63.98 51,-54.71 51,-46.11"/>
<polygon fill="black" stroke="black" points="54.5,-46.1 51,-36.1 47.5,-46.1 54.5,-46.1"/>
<g id="a_edge1&#45;headlabel"><a xlink:href="dir_000003_000001.html" target="_top" xlink:title="1">
<text text-anchor="middle" x="57.34" y="-47.2" font-family="Helvetica,sans-Serif" font-size="10.00">1</text>
</a>
</g>
</g>
</g>
</svg>
