<?xml version="1.0" encoding="UTF-8" standalone="no"?>
<!DOCTYPE svg PUBLIC "-//W3C//DTD SVG 1.1//EN"
 "http://www.w3.org/Graphics/SVG/1.1/DTD/svg11.dtd">
<!-- Generated by graphviz version 2.43.0 (0)
 -->
<!-- Title: src/Devices/Xilinx/UltraScalePlus Pages: 1 -->
<svg width="128pt" height="151pt"
 viewBox="0.00 0.00 128.00 151.00" xmlns="http://www.w3.org/2000/svg" xmlns:xlink="http://www.w3.org/1999/xlink">
<g id="graph0" class="graph" transform="scale(1 1) rotate(0) translate(4 147)">
<title>src/Devices/Xilinx/UltraScalePlus</title>
<polygon fill="white" stroke="transparent" points="-4,4 -4,-147 124,-147 124,4 -4,4"/>
<g id="clust1" class="cluster">
<title>clusterdir_3b80f9b66070ce327ebd8ab923ef7ff0</title>
<g id="a_clust1"><a xlink:href="dir_3b80f9b66070ce327ebd8ab923ef7ff0.html" target="_top" xlink:title="Xilinx">
<polygon fill="#ddddee" stroke="black" points="8,-64 8,-135 112,-135 112,-64 8,-64"/>
<text text-anchor="middle" x="60" y="-123" font-family="Helvetica,sans-Serif" font-size="10.00">Xilinx</text>
</a>
</g>
</g>
<!-- dir_21f1379af401b02d6de0cd697d1b0560 -->
<g id="node1" class="node">
<title>dir_21f1379af401b02d6de0cd697d1b0560</title>
<g id="a_node1"><a xlink:href="dir_21f1379af401b02d6de0cd697d1b0560.html" target="_top" xlink:title="UltraScalePlus">
<polygon fill="#eeeeff" stroke="black" points="103.5,-108 16.5,-108 16.5,-72 103.5,-72 103.5,-108"/>
<text text-anchor="middle" x="60" y="-87.5" font-family="Helvetica,sans-Serif" font-size="10.00">UltraScalePlus</text>
</a>
</g>
</g>
<!-- dir_ba210d1fa67db7bee1bb22e0a3c11d9f -->
<g id="node2" class="node">
<title>dir_ba210d1fa67db7bee1bb22e0a3c11d9f</title>
<g id="a_node2"><a xlink:href="dir_ba210d1fa67db7bee1bb22e0a3c11d9f.html" target="_top" xlink:title="Common">
<polygon fill="none" stroke="black" points="90.5,-36 29.5,-36 29.5,0 90.5,0 90.5,-36"/>
<text text-anchor="middle" x="60" y="-15.5" font-family="Helvetica,sans-Serif" font-size="10.00">Common</text>
</a>
</g>
</g>
<!-- dir_21f1379af401b02d6de0cd697d1b0560&#45;&gt;dir_ba210d1fa67db7bee1bb22e0a3c11d9f -->
<g id="edge1" class="edge">
<title>dir_21f1379af401b02d6de0cd697d1b0560&#45;&gt;dir_ba210d1fa67db7bee1bb22e0a3c11d9f</title>
<path fill="none" stroke="black" d="M60,-71.7C60,-63.98 60,-54.71 60,-46.11"/>
<polygon fill="black" stroke="black" points="63.5,-46.1 60,-36.1 56.5,-46.1 63.5,-46.1"/>
<g id="a_edge1&#45;headlabel"><a xlink:href="dir_000004_000001.html" target="_top" xlink:title="1">
<text text-anchor="middle" x="66.34" y="-47.2" font-family="Helvetica,sans-Serif" font-size="10.00">1</text>
</a>
</g>
</g>
</g>
</svg>
