<?xml version="1.0" encoding="UTF-8" standalone="no"?>
<!DOCTYPE svg PUBLIC "-//W3C//DTD SVG 1.1//EN"
 "http://www.w3.org/Graphics/SVG/1.1/DTD/svg11.dtd">
<!-- Generated by graphviz version 2.43.0 (0)
 -->
<!-- Title: src/Common/endianess.h Pages: 1 -->
<svg width="153pt" height="162pt"
 viewBox="0.00 0.00 153.00 162.00" xmlns="http://www.w3.org/2000/svg" xmlns:xlink="http://www.w3.org/1999/xlink">
<g id="graph0" class="graph" transform="scale(1 1) rotate(0) translate(4 158)">
<title>src/Common/endianess.h</title>
<polygon fill="white" stroke="transparent" points="-4,4 -4,-158 149,-158 149,4 -4,4"/>
<!-- Node1 -->
<g id="node1" class="node">
<title>Node1</title>
<g id="a_node1"><a xlink:title=" ">
<polygon fill="#bfbfbf" stroke="black" points="2.5,-134.5 2.5,-153.5 142.5,-153.5 142.5,-134.5 2.5,-134.5"/>
<text text-anchor="middle" x="72.5" y="-141.5" font-family="Helvetica,sans-Serif" font-size="10.00">src/Common/endianess.h</text>
</a>
</g>
</g>
<!-- Node2 -->
<g id="node2" class="node">
<title>Node2</title>
<g id="a_node2"><a xlink:href="file_i_o_8h.html" target="_top" xlink:title=" ">
<polygon fill="white" stroke="black" points="14.5,-78.5 14.5,-97.5 130.5,-97.5 130.5,-78.5 14.5,-78.5"/>
<text text-anchor="middle" x="72.5" y="-85.5" font-family="Helvetica,sans-Serif" font-size="10.00">src/Common/fileIO.h</text>
</a>
</g>
</g>
<!-- Node1&#45;&gt;Node2 -->
<g id="edge1" class="edge">
<title>Node1&#45;&gt;Node2</title>
<path fill="none" stroke="midnightblue" d="M72.5,-123.8C72.5,-114.91 72.5,-104.78 72.5,-97.75"/>
<polygon fill="midnightblue" stroke="midnightblue" points="69,-124.08 72.5,-134.08 76,-124.08 69,-124.08"/>
</g>
<!-- Node3 -->
<g id="node3" class="node">
<title>Node3</title>
<g id="a_node3"><a xlink:href="_xilinx_ultra_scale_plus_8cpp.html" target="_top" xlink:title=" ">
<polygon fill="white" stroke="black" points="0,-0.5 0,-41.5 145,-41.5 145,-0.5 0,-0.5"/>
<text text-anchor="start" x="8" y="-29.5" font-family="Helvetica,sans-Serif" font-size="10.00">src/Devices/Xilinx</text>
<text text-anchor="start" x="8" y="-18.5" font-family="Helvetica,sans-Serif" font-size="10.00">/UltraScalePlus/XilinxUltra</text>
<text text-anchor="middle" x="72.5" y="-7.5" font-family="Helvetica,sans-Serif" font-size="10.00">ScalePlus.cpp</text>
</a>
</g>
</g>
<!-- Node2&#45;&gt;Node3 -->
<g id="edge2" class="edge">
<title>Node2&#45;&gt;Node3</title>
<path fill="none" stroke="midnightblue" d="M72.5,-68.04C72.5,-59.71 72.5,-49.94 72.5,-41.54"/>
<polygon fill="midnightblue" stroke="midnightblue" points="69,-68.23 72.5,-78.23 76,-68.23 69,-68.23"/>
</g>
</g>
</svg>
