<?xml version="1.0" encoding="UTF-8" standalone="no"?>
<!DOCTYPE svg PUBLIC "-//W3C//DTD SVG 1.1//EN"
 "http://www.w3.org/Graphics/SVG/1.1/DTD/svg11.dtd">
<!-- Generated by graphviz version 2.43.0 (0)
 -->
<!-- Title: parseHelp Pages: 1 -->
<svg width="583pt" height="484pt"
 viewBox="0.00 0.00 583.00 484.00" xmlns="http://www.w3.org/2000/svg" xmlns:xlink="http://www.w3.org/1999/xlink">
<g id="graph0" class="graph" transform="scale(1 1) rotate(0) translate(4 480)">
<title>parseHelp</title>
<polygon fill="white" stroke="transparent" points="-4,4 -4,-480 579,-480 579,4 -4,4"/>
<!-- Node1 -->
<g id="node1" class="node">
<title>Node1</title>
<g id="a_node1"><a xlink:title=" ">
<polygon fill="#bfbfbf" stroke="black" points="0,-247.5 0,-266.5 66,-266.5 66,-247.5 0,-247.5"/>
<text text-anchor="middle" x="33" y="-254.5" font-family="Helvetica,sans-Serif" font-size="10.00">parseHelp</text>
</a>
</g>
</g>
<!-- Node2 -->
<g id="node2" class="node">
<title>Node2</title>
<g id="a_node2"><a xlink:href="help_8cpp.html#a2ef30c42cbc289d899a8be5d2d8f77d0" target="_top" xlink:title=" ">
<polygon fill="white" stroke="black" points="110,-266.5 110,-285.5 156,-285.5 156,-266.5 110,-266.5"/>
<text text-anchor="middle" x="133" y="-273.5" font-family="Helvetica,sans-Serif" font-size="10.00">usage</text>
</a>
</g>
</g>
<!-- Node1&#45;&gt;Node2 -->
<g id="edge1" class="edge">
<title>Node1&#45;&gt;Node2</title>
<path fill="none" stroke="midnightblue" d="M66.09,-263.22C76.92,-265.32 89,-267.66 99.84,-269.76"/>
<polygon fill="midnightblue" stroke="midnightblue" points="99.28,-273.22 109.76,-271.69 100.61,-266.35 99.28,-273.22"/>
</g>
<!-- Node3 -->
<g id="node3" class="node">
<title>Node3</title>
<g id="a_node3"><a xlink:href="help_8cpp.html#ae0259929823a681afb82bc7391b0f69b" target="_top" xlink:title=" ">
<polygon fill="white" stroke="black" points="102,-228.5 102,-247.5 164,-247.5 164,-228.5 102,-228.5"/>
<text text-anchor="middle" x="133" y="-235.5" font-family="Helvetica,sans-Serif" font-size="10.00">usageArg</text>
</a>
</g>
</g>
<!-- Node1&#45;&gt;Node3 -->
<g id="edge2" class="edge">
<title>Node1&#45;&gt;Node3</title>
<path fill="none" stroke="midnightblue" d="M66.09,-250.78C74.35,-249.18 83.35,-247.43 91.97,-245.76"/>
<polygon fill="midnightblue" stroke="midnightblue" points="92.68,-249.19 101.83,-243.85 91.35,-242.32 92.68,-249.19"/>
</g>
<!-- Node4 -->
<g id="node4" class="node">
<title>Node4</title>
<g id="a_node4"><a xlink:href="help_8cpp.html#aede32834476091f4eb0ae6749f41eacf" target="_top" xlink:title=" ">
<polygon fill="white" stroke="black" points="200,-456.5 200,-475.5 298,-475.5 298,-456.5 200,-456.5"/>
<text text-anchor="middle" x="249" y="-463.5" font-family="Helvetica,sans-Serif" font-size="10.00">usage_assembly</text>
</a>
</g>
</g>
<!-- Node3&#45;&gt;Node4 -->
<g id="edge3" class="edge">
<title>Node3&#45;&gt;Node4</title>
<path fill="none" stroke="midnightblue" d="M154.35,-247.65C158.04,-250.22 161.51,-253.33 164,-257 212.3,-328.09 145.25,-380.75 200,-447 201,-448.21 202.09,-449.34 203.24,-450.4"/>
<polygon fill="midnightblue" stroke="midnightblue" points="201.55,-453.5 211.74,-456.41 205.6,-447.78 201.55,-453.5"/>
</g>
<!-- Node5 -->
<g id="node5" class="node">
<title>Node5</title>
<g id="a_node5"><a xlink:href="help_8cpp.html#accc90fd0feeb842781a3e5f91b2d2146" target="_top" xlink:title=" ">
<polygon fill="white" stroke="black" points="210,-418.5 210,-437.5 288,-437.5 288,-418.5 210,-418.5"/>
<text text-anchor="middle" x="249" y="-425.5" font-family="Helvetica,sans-Serif" font-size="10.00">usage_blank</text>
</a>
</g>
</g>
<!-- Node3&#45;&gt;Node5 -->
<g id="edge4" class="edge">
<title>Node3&#45;&gt;Node5</title>
<path fill="none" stroke="midnightblue" d="M153.91,-247.52C157.73,-250.13 161.35,-253.29 164,-257 204.3,-313.53 154.58,-356.5 200,-409 201.03,-410.19 202.14,-411.3 203.31,-412.34"/>
<polygon fill="midnightblue" stroke="midnightblue" points="201.68,-415.47 211.9,-418.28 205.66,-409.71 201.68,-415.47"/>
</g>
<!-- Node6 -->
<g id="node6" class="node">
<title>Node6</title>
<g id="a_node6"><a xlink:href="help_8cpp.html#a5c779e76e21b34d6bb3b884ac1ef9083" target="_top" xlink:title=" ">
<polygon fill="white" stroke="black" points="206,-380.5 206,-399.5 292,-399.5 292,-380.5 206,-380.5"/>
<text text-anchor="middle" x="249" y="-387.5" font-family="Helvetica,sans-Serif" font-size="10.00">usage_change</text>
</a>
</g>
</g>
<!-- Node3&#45;&gt;Node6 -->
<g id="edge5" class="edge">
<title>Node3&#45;&gt;Node6</title>
<path fill="none" stroke="midnightblue" d="M153.71,-247.67C157.54,-250.27 161.22,-253.38 164,-257 196.41,-299.1 163.79,-332.12 200,-371 201.22,-372.31 202.54,-373.53 203.93,-374.66"/>
<polygon fill="midnightblue" stroke="midnightblue" points="202.34,-377.8 212.63,-380.31 206.15,-371.93 202.34,-377.8"/>
</g>
<!-- Node7 -->
<g id="node7" class="node">
<title>Node7</title>
<g id="a_node7"><a xlink:href="help_8cpp.html#a28714bd0b194f699df903e7bd994a768" target="_top" xlink:title=" ">
<polygon fill="white" stroke="black" points="207.5,-342.5 207.5,-361.5 290.5,-361.5 290.5,-342.5 207.5,-342.5"/>
<text text-anchor="middle" x="249" y="-349.5" font-family="Helvetica,sans-Serif" font-size="10.00">usage_device</text>
</a>
</g>
</g>
<!-- Node3&#45;&gt;Node7 -->
<g id="edge6" class="edge">
<title>Node3&#45;&gt;Node7</title>
<path fill="none" stroke="midnightblue" d="M152.72,-247.56C156.78,-250.23 160.81,-253.4 164,-257 188.77,-284.99 172.72,-307.45 200,-333 201.65,-334.54 203.44,-335.97 205.32,-337.28"/>
<polygon fill="midnightblue" stroke="midnightblue" points="203.66,-340.36 214.07,-342.35 207.17,-334.31 203.66,-340.36"/>
</g>
<!-- Node10 -->
<g id="node10" class="node">
<title>Node10</title>
<g id="a_node10"><a xlink:href="help_8cpp.html#a89a232fcf363da02884b15625ea242b1" target="_top" xlink:title=" ">
<polygon fill="white" stroke="black" points="214.5,-304.5 214.5,-323.5 283.5,-323.5 283.5,-304.5 214.5,-304.5"/>
<text text-anchor="middle" x="249" y="-311.5" font-family="Helvetica,sans-Serif" font-size="10.00">usage_end</text>
</a>
</g>
</g>
<!-- Node3&#45;&gt;Node10 -->
<g id="edge9" class="edge">
<title>Node3&#45;&gt;Node10</title>
<path fill="none" stroke="midnightblue" d="M150.7,-247.55C155.18,-250.38 159.91,-253.63 164,-257 181.96,-271.78 180.73,-281.97 200,-295 202.75,-296.86 205.7,-298.58 208.75,-300.15"/>
<polygon fill="midnightblue" stroke="midnightblue" points="207.5,-303.43 218.04,-304.48 210.45,-297.09 207.5,-303.43"/>
</g>
<!-- Node11 -->
<g id="node11" class="node">
<title>Node11</title>
<g id="a_node11"><a xlink:href="help_8cpp.html#af1a5368922439cb186899b545fd1965e" target="_top" xlink:title=" ">
<polygon fill="white" stroke="black" points="213,-266.5 213,-285.5 285,-285.5 285,-266.5 213,-266.5"/>
<text text-anchor="middle" x="249" y="-273.5" font-family="Helvetica,sans-Serif" font-size="10.00">usage_help</text>
</a>
</g>
</g>
<!-- Node3&#45;&gt;Node11 -->
<g id="edge10" class="edge">
<title>Node3&#45;&gt;Node11</title>
<path fill="none" stroke="midnightblue" d="M162.77,-247.59C176.94,-252.31 194.24,-258.08 209.53,-263.18"/>
<polygon fill="midnightblue" stroke="midnightblue" points="208.65,-266.57 219.24,-266.41 210.86,-259.93 208.65,-266.57"/>
</g>
<!-- Node12 -->
<g id="node12" class="node">
<title>Node12</title>
<g id="a_node12"><a xlink:href="help_8cpp.html#a120f05cbb24b01b4bcae94229814418b" target="_top" xlink:title=" ">
<polygon fill="white" stroke="black" points="211,-228.5 211,-247.5 287,-247.5 287,-228.5 211,-228.5"/>
<text text-anchor="middle" x="249" y="-235.5" font-family="Helvetica,sans-Serif" font-size="10.00">usage_input</text>
</a>
</g>
</g>
<!-- Node3&#45;&gt;Node12 -->
<g id="edge11" class="edge">
<title>Node3&#45;&gt;Node12</title>
<path fill="none" stroke="midnightblue" d="M164.25,-238C175.38,-238 188.27,-238 200.56,-238"/>
<polygon fill="midnightblue" stroke="midnightblue" points="200.68,-241.5 210.68,-238 200.68,-234.5 200.68,-241.5"/>
</g>
<!-- Node13 -->
<g id="node13" class="node">
<title>Node13</title>
<g id="a_node13"><a xlink:href="help_8cpp.html#a2aa5b9213acbbf68d4d14ed00ea4ee4c" target="_top" xlink:title=" ">
<polygon fill="white" stroke="black" points="207.5,-190.5 207.5,-209.5 290.5,-209.5 290.5,-190.5 207.5,-190.5"/>
<text text-anchor="middle" x="249" y="-197.5" font-family="Helvetica,sans-Serif" font-size="10.00">usage_merge</text>
</a>
</g>
</g>
<!-- Node3&#45;&gt;Node13 -->
<g id="edge12" class="edge">
<title>Node3&#45;&gt;Node13</title>
<path fill="none" stroke="midnightblue" d="M162.77,-228.41C176.94,-223.69 194.24,-217.92 209.53,-212.82"/>
<polygon fill="midnightblue" stroke="midnightblue" points="210.86,-216.07 219.24,-209.59 208.65,-209.43 210.86,-216.07"/>
</g>
<!-- Node14 -->
<g id="node14" class="node">
<title>Node14</title>
<g id="a_node14"><a xlink:href="help_8cpp.html#ac40cf37cc9ea9b9a8f099b4974724fad" target="_top" xlink:title=" ">
<polygon fill="white" stroke="black" points="207.5,-152.5 207.5,-171.5 290.5,-171.5 290.5,-152.5 207.5,-152.5"/>
<text text-anchor="middle" x="249" y="-159.5" font-family="Helvetica,sans-Serif" font-size="10.00">usage_output</text>
</a>
</g>
</g>
<!-- Node3&#45;&gt;Node14 -->
<g id="edge13" class="edge">
<title>Node3&#45;&gt;Node14</title>
<path fill="none" stroke="midnightblue" d="M143.04,-228.4C155.07,-216.08 177.47,-194.65 200,-181 203.18,-179.08 206.58,-177.28 210.06,-175.61"/>
<polygon fill="midnightblue" stroke="midnightblue" points="211.59,-178.77 219.32,-171.53 208.76,-172.36 211.59,-178.77"/>
</g>
<!-- Node15 -->
<g id="node15" class="node">
<title>Node15</title>
<g id="a_node15"><a xlink:href="help_8cpp.html#adf57083eb4a99d6885783b9bb106890e" target="_top" xlink:title=" ">
<polygon fill="white" stroke="black" points="208,-114.5 208,-133.5 290,-133.5 290,-114.5 208,-114.5"/>
<text text-anchor="middle" x="249" y="-121.5" font-family="Helvetica,sans-Serif" font-size="10.00">usage_region</text>
</a>
</g>
</g>
<!-- Node3&#45;&gt;Node15 -->
<g id="edge14" class="edge">
<title>Node3&#45;&gt;Node15</title>
<path fill="none" stroke="midnightblue" d="M138.37,-228.24C147.31,-209.28 169.47,-167.2 200,-143 202.16,-141.28 204.5,-139.71 206.94,-138.26"/>
<polygon fill="midnightblue" stroke="midnightblue" points="208.79,-141.24 216.09,-133.57 205.59,-135.02 208.79,-141.24"/>
</g>
<!-- Node16 -->
<g id="node16" class="node">
<title>Node16</title>
<g id="a_node16"><a xlink:href="help_8cpp.html#a49223a995301022ffb657717122d88de" target="_top" xlink:title=" ">
<polygon fill="white" stroke="black" points="211.5,-76.5 211.5,-95.5 286.5,-95.5 286.5,-76.5 211.5,-76.5"/>
<text text-anchor="middle" x="249" y="-83.5" font-family="Helvetica,sans-Serif" font-size="10.00">usage_stdin</text>
</a>
</g>
</g>
<!-- Node3&#45;&gt;Node16 -->
<g id="edge15" class="edge">
<title>Node3&#45;&gt;Node16</title>
<path fill="none" stroke="midnightblue" d="M136.27,-228.17C142.36,-203.92 161.29,-140.59 200,-105 201.66,-103.47 203.46,-102.06 205.35,-100.76"/>
<polygon fill="midnightblue" stroke="midnightblue" points="207.2,-103.73 214.13,-95.72 203.71,-97.66 207.2,-103.73"/>
</g>
<!-- Node17 -->
<g id="node17" class="node">
<title>Node17</title>
<g id="a_node17"><a xlink:href="help_8cpp.html#a46c7d0d124e51b373e20ad7fc73278d4" target="_top" xlink:title=" ">
<polygon fill="white" stroke="black" points="204,-38.5 204,-57.5 294,-57.5 294,-38.5 204,-38.5"/>
<text text-anchor="middle" x="249" y="-45.5" font-family="Helvetica,sans-Serif" font-size="10.00">usage_verbose</text>
</a>
</g>
</g>
<!-- Node3&#45;&gt;Node17 -->
<g id="edge16" class="edge">
<title>Node3&#45;&gt;Node17</title>
<path fill="none" stroke="midnightblue" d="M135.02,-228.43C138.54,-199.93 152.73,-114.68 200,-67 201.42,-65.57 202.96,-64.24 204.59,-63.01"/>
<polygon fill="midnightblue" stroke="midnightblue" points="206.64,-65.86 213.33,-57.64 202.98,-59.89 206.64,-65.86"/>
</g>
<!-- Node18 -->
<g id="node18" class="node">
<title>Node18</title>
<g id="a_node18"><a xlink:href="help_8cpp.html#a33a04cbd434c5ebe2c0113f5acb2c089" target="_top" xlink:title=" ">
<polygon fill="white" stroke="black" points="211.5,-0.5 211.5,-19.5 286.5,-19.5 286.5,-0.5 211.5,-0.5"/>
<text text-anchor="middle" x="249" y="-7.5" font-family="Helvetica,sans-Serif" font-size="10.00">usage_warn</text>
</a>
</g>
</g>
<!-- Node3&#45;&gt;Node18 -->
<g id="edge17" class="edge">
<title>Node3&#45;&gt;Node18</title>
<path fill="none" stroke="midnightblue" d="M134.25,-228.24C135.59,-195.59 144.24,-88.87 200,-29 201.22,-27.69 202.54,-26.47 203.93,-25.34"/>
<polygon fill="midnightblue" stroke="midnightblue" points="206.15,-28.07 212.63,-19.69 202.34,-22.2 206.15,-28.07"/>
</g>
<!-- Node8 -->
<g id="node8" class="node">
<title>Node8</title>
<g id="a_node8"><a xlink:href="byteman_8cpp.html#a23beb5409443799c43ba81c405375f4f" target="_top" xlink:title=" ">
<polygon fill="white" stroke="black" points="334,-342.5 334,-361.5 424,-361.5 424,-342.5 334,-342.5"/>
<text text-anchor="middle" x="379" y="-349.5" font-family="Helvetica,sans-Serif" font-size="10.00">printDeviceList</text>
</a>
</g>
</g>
<!-- Node7&#45;&gt;Node8 -->
<g id="edge7" class="edge">
<title>Node7&#45;&gt;Node8</title>
<path fill="none" stroke="midnightblue" d="M290.85,-352C301.38,-352 312.88,-352 323.97,-352"/>
<polygon fill="midnightblue" stroke="midnightblue" points="324,-355.5 334,-352 324,-348.5 324,-355.5"/>
</g>
<!-- Node9 -->
<g id="node9" class="node">
<title>Node9</title>
<g id="a_node9"><a xlink:href="class_xilinx_ultra_scale_plus.html#ad7b956985959fc268e85fd2c528d81a5" target="_top" xlink:title=" ">
<polygon fill="white" stroke="black" points="460,-337 460,-367 575,-367 575,-337 460,-337"/>
<text text-anchor="start" x="468" y="-355" font-family="Helvetica,sans-Serif" font-size="10.00">XilinxUltraScalePlus</text>
<text text-anchor="middle" x="517.5" y="-344" font-family="Helvetica,sans-Serif" font-size="10.00">::printDeviceList</text>
</a>
</g>
</g>
<!-- Node8&#45;&gt;Node9 -->
<g id="edge8" class="edge">
<title>Node8&#45;&gt;Node9</title>
<path fill="none" stroke="midnightblue" d="M424.32,-352C432.49,-352 441.18,-352 449.84,-352"/>
<polygon fill="midnightblue" stroke="midnightblue" points="449.95,-355.5 459.95,-352 449.95,-348.5 449.95,-355.5"/>
</g>
</g>
</svg>
