<?xml version="1.0" encoding="UTF-8" standalone="no"?>
<!DOCTYPE svg PUBLIC "-//W3C//DTD SVG 1.1//EN"
 "http://www.w3.org/Graphics/SVG/1.1/DTD/svg11.dtd">
<!-- Generated by graphviz version 2.43.0 (0)
 -->
<!-- Title: usage Pages: 1 -->
<svg width="363pt" height="47pt"
 viewBox="0.00 0.00 363.00 47.00" xmlns="http://www.w3.org/2000/svg" xmlns:xlink="http://www.w3.org/1999/xlink">
<g id="graph0" class="graph" transform="scale(1 1) rotate(0) translate(4 43)">
<title>usage</title>
<polygon fill="white" stroke="transparent" points="-4,4 -4,-43 359,-43 359,4 -4,4"/>
<!-- Node1 -->
<g id="node1" class="node">
<title>Node1</title>
<g id="a_node1"><a xlink:title=" ">
<polygon fill="#bfbfbf" stroke="black" points="309,-19.5 309,-38.5 355,-38.5 355,-19.5 309,-19.5"/>
<text text-anchor="middle" x="332" y="-26.5" font-family="Helvetica,sans-Serif" font-size="10.00">usage</text>
</a>
</g>
</g>
<!-- Node2 -->
<g id="node2" class="node">
<title>Node2</title>
<g id="a_node2"><a xlink:href="help_8cpp.html#a259146dc95fb61f516d8308865d49e0e" target="_top" xlink:title=" ">
<polygon fill="white" stroke="black" points="207,-19.5 207,-38.5 273,-38.5 273,-19.5 207,-19.5"/>
<text text-anchor="middle" x="240" y="-26.5" font-family="Helvetica,sans-Serif" font-size="10.00">parseHelp</text>
</a>
</g>
</g>
<!-- Node1&#45;&gt;Node2 -->
<g id="edge1" class="edge">
<title>Node1&#45;&gt;Node2</title>
<path fill="none" stroke="midnightblue" d="M298.68,-29C290.39,-29 281.47,-29 273.18,-29"/>
<polygon fill="midnightblue" stroke="midnightblue" points="298.75,-32.5 308.75,-29 298.75,-25.5 298.75,-32.5"/>
</g>
<!-- Node3 -->
<g id="node3" class="node">
<title>Node3</title>
<g id="a_node3"><a xlink:href="byteman_8cpp.html#a0ddf1224851353fc92bfbff6f499fa97" target="_top" xlink:title=" ">
<polygon fill="white" stroke="black" points="0,-19.5 0,-38.5 41,-38.5 41,-19.5 0,-19.5"/>
<text text-anchor="middle" x="20.5" y="-26.5" font-family="Helvetica,sans-Serif" font-size="10.00">main</text>
</a>
</g>
</g>
<!-- Node2&#45;&gt;Node3 -->
<g id="edge2" class="edge">
<title>Node2&#45;&gt;Node3</title>
<path fill="none" stroke="midnightblue" d="M196.74,-29C149.79,-29 76.01,-29 41.08,-29"/>
<polygon fill="midnightblue" stroke="midnightblue" points="196.91,-32.5 206.91,-29 196.91,-25.5 196.91,-32.5"/>
</g>
<!-- Node4 -->
<g id="node4" class="node">
<title>Node4</title>
<g id="a_node4"><a xlink:href="byteman_8cpp.html#a913ad3944130fafece24fe460db9b6aa" target="_top" xlink:title=" ">
<polygon fill="white" stroke="black" points="77,-0.5 77,-19.5 171,-19.5 171,-0.5 77,-0.5"/>
<text text-anchor="middle" x="124" y="-7.5" font-family="Helvetica,sans-Serif" font-size="10.00">parseCommand</text>
</a>
</g>
</g>
<!-- Node2&#45;&gt;Node4 -->
<g id="edge3" class="edge">
<title>Node2&#45;&gt;Node4</title>
<path fill="none" stroke="midnightblue" d="M197.01,-22C188.63,-20.61 179.79,-19.13 171.28,-17.71"/>
<polygon fill="midnightblue" stroke="midnightblue" points="196.5,-25.47 206.94,-23.66 197.65,-18.56 196.5,-25.47"/>
</g>
<!-- Node4&#45;&gt;Node3 -->
<g id="edge4" class="edge">
<title>Node4&#45;&gt;Node3</title>
<path fill="none" stroke="midnightblue" d="M66.69,-20.54C57.49,-22.26 48.54,-23.94 41.06,-25.34"/>
<polygon fill="midnightblue" stroke="midnightblue" points="67.52,-23.95 76.71,-18.67 66.23,-17.07 67.52,-23.95"/>
</g>
</g>
</svg>
