<?xml version="1.0" encoding="UTF-8" standalone="no"?>
<!DOCTYPE svg PUBLIC "-//W3C//DTD SVG 1.1//EN"
 "http://www.w3.org/Graphics/SVG/1.1/DTD/svg11.dtd">
<!-- Generated by graphviz version 2.43.0 (0)
 -->
<!-- Title: src/help.cpp Pages: 1 -->
<svg width="263pt" height="140pt"
 viewBox="0.00 0.00 262.50 140.00" xmlns="http://www.w3.org/2000/svg" xmlns:xlink="http://www.w3.org/1999/xlink">
<g id="graph0" class="graph" transform="scale(1 1) rotate(0) translate(4 136)">
<title>src/help.cpp</title>
<polygon fill="white" stroke="transparent" points="-4,4 -4,-136 258.5,-136 258.5,4 -4,4"/>
<!-- Node1 -->
<g id="node1" class="node">
<title>Node1</title>
<g id="a_node1"><a xlink:title=" ">
<polygon fill="#bfbfbf" stroke="black" points="64.5,-112.5 64.5,-131.5 139.5,-131.5 139.5,-112.5 64.5,-112.5"/>
<text text-anchor="middle" x="102" y="-119.5" font-family="Helvetica,sans-Serif" font-size="10.00">src/help.cpp</text>
</a>
</g>
</g>
<!-- Node2 -->
<g id="node2" class="node">
<title>Node2</title>
<g id="a_node2"><a xlink:title=" ">
<polygon fill="white" stroke="#bfbfbf" points="0,-0.5 0,-19.5 60,-19.5 60,-0.5 0,-0.5"/>
<text text-anchor="middle" x="30" y="-7.5" font-family="Helvetica,sans-Serif" font-size="10.00">iostream</text>
</a>
</g>
</g>
<!-- Node1&#45;&gt;Node2 -->
<g id="edge1" class="edge">
<title>Node1&#45;&gt;Node2</title>
<path fill="none" stroke="midnightblue" d="M69.01,-112.44C50.54,-105.77 29.05,-94.45 18,-76 9.45,-61.72 14.44,-42.76 20.37,-29"/>
<polygon fill="midnightblue" stroke="midnightblue" points="23.69,-30.19 24.88,-19.66 17.38,-27.14 23.69,-30.19"/>
</g>
<!-- Node3 -->
<g id="node3" class="node">
<title>Node3</title>
<g id="a_node3"><a xlink:href="byteman_8h.html" target="_top" xlink:title=" ">
<polygon fill="white" stroke="black" points="27.5,-56.5 27.5,-75.5 96.5,-75.5 96.5,-56.5 27.5,-56.5"/>
<text text-anchor="middle" x="62" y="-63.5" font-family="Helvetica,sans-Serif" font-size="10.00">byteman.h</text>
</a>
</g>
</g>
<!-- Node1&#45;&gt;Node3 -->
<g id="edge2" class="edge">
<title>Node1&#45;&gt;Node3</title>
<path fill="none" stroke="midnightblue" d="M95.39,-112.08C89.74,-104.46 81.46,-93.26 74.55,-83.94"/>
<polygon fill="midnightblue" stroke="midnightblue" points="77.25,-81.7 68.48,-75.75 71.62,-85.87 77.25,-81.7"/>
</g>
<!-- Node4 -->
<g id="node4" class="node">
<title>Node4</title>
<g id="a_node4"><a xlink:title=" ">
<polygon fill="white" stroke="#bfbfbf" points="115,-56.5 115,-75.5 171,-75.5 171,-56.5 115,-56.5"/>
<text text-anchor="middle" x="143" y="-63.5" font-family="Helvetica,sans-Serif" font-size="10.00">sstream</text>
</a>
</g>
</g>
<!-- Node1&#45;&gt;Node4 -->
<g id="edge4" class="edge">
<title>Node1&#45;&gt;Node4</title>
<path fill="none" stroke="midnightblue" d="M108.77,-112.08C114.56,-104.46 123.06,-93.26 130.14,-83.94"/>
<polygon fill="midnightblue" stroke="midnightblue" points="133.1,-85.83 136.36,-75.75 127.52,-81.6 133.1,-85.83"/>
</g>
<!-- Node5 -->
<g id="node5" class="node">
<title>Node5</title>
<g id="a_node5"><a xlink:title=" ">
<polygon fill="white" stroke="#bfbfbf" points="189.5,-56.5 189.5,-75.5 254.5,-75.5 254.5,-56.5 189.5,-56.5"/>
<text text-anchor="middle" x="222" y="-63.5" font-family="Helvetica,sans-Serif" font-size="10.00">stdexcept</text>
</a>
</g>
</g>
<!-- Node1&#45;&gt;Node5 -->
<g id="edge5" class="edge">
<title>Node1&#45;&gt;Node5</title>
<path fill="none" stroke="midnightblue" d="M121.01,-112.44C140.59,-103.64 171.31,-89.81 193.73,-79.72"/>
<polygon fill="midnightblue" stroke="midnightblue" points="195.39,-82.81 203.07,-75.52 192.52,-76.43 195.39,-82.81"/>
</g>
<!-- Node3&#45;&gt;Node2 -->
<g id="edge3" class="edge">
<title>Node3&#45;&gt;Node2</title>
<path fill="none" stroke="midnightblue" d="M56.72,-56.08C52.29,-48.61 45.84,-37.72 40.38,-28.52"/>
<polygon fill="midnightblue" stroke="midnightblue" points="43.29,-26.57 35.19,-19.75 37.27,-30.14 43.29,-26.57"/>
</g>
</g>
</svg>
