<?xml version="1.0" encoding="UTF-8" standalone="no"?>
<!DOCTYPE svg PUBLIC "-//W3C//DTD SVG 1.1//EN"
 "http://www.w3.org/Graphics/SVG/1.1/DTD/svg11.dtd">
<!-- Generated by graphviz version 2.43.0 (0)
 -->
<!-- Title: usageArg Pages: 1 -->
<svg width="481pt" height="484pt"
 viewBox="0.00 0.00 481.00 484.00" xmlns="http://www.w3.org/2000/svg" xmlns:xlink="http://www.w3.org/1999/xlink">
<g id="graph0" class="graph" transform="scale(1 1) rotate(0) translate(4 480)">
<title>usageArg</title>
<polygon fill="white" stroke="transparent" points="-4,4 -4,-480 477,-480 477,4 -4,4"/>
<!-- Node1 -->
<g id="node1" class="node">
<title>Node1</title>
<g id="a_node1"><a xlink:title=" ">
<polygon fill="#bfbfbf" stroke="black" points="0,-228.5 0,-247.5 62,-247.5 62,-228.5 0,-228.5"/>
<text text-anchor="middle" x="31" y="-235.5" font-family="Helvetica,sans-Serif" font-size="10.00">usageArg</text>
</a>
</g>
</g>
<!-- Node2 -->
<g id="node2" class="node">
<title>Node2</title>
<g id="a_node2"><a xlink:href="help_8cpp.html#aede32834476091f4eb0ae6749f41eacf" target="_top" xlink:title=" ">
<polygon fill="white" stroke="black" points="98,-456.5 98,-475.5 196,-475.5 196,-456.5 98,-456.5"/>
<text text-anchor="middle" x="147" y="-463.5" font-family="Helvetica,sans-Serif" font-size="10.00">usage_assembly</text>
</a>
</g>
</g>
<!-- Node1&#45;&gt;Node2 -->
<g id="edge1" class="edge">
<title>Node1&#45;&gt;Node2</title>
<path fill="none" stroke="midnightblue" d="M32.25,-247.76C33.59,-280.41 42.24,-387.13 98,-447 99.22,-448.31 100.54,-449.53 101.93,-450.66"/>
<polygon fill="midnightblue" stroke="midnightblue" points="100.34,-453.8 110.63,-456.31 104.15,-447.93 100.34,-453.8"/>
</g>
<!-- Node3 -->
<g id="node3" class="node">
<title>Node3</title>
<g id="a_node3"><a xlink:href="help_8cpp.html#accc90fd0feeb842781a3e5f91b2d2146" target="_top" xlink:title=" ">
<polygon fill="white" stroke="black" points="108,-418.5 108,-437.5 186,-437.5 186,-418.5 108,-418.5"/>
<text text-anchor="middle" x="147" y="-425.5" font-family="Helvetica,sans-Serif" font-size="10.00">usage_blank</text>
</a>
</g>
</g>
<!-- Node1&#45;&gt;Node3 -->
<g id="edge2" class="edge">
<title>Node1&#45;&gt;Node3</title>
<path fill="none" stroke="midnightblue" d="M33.02,-247.57C36.54,-276.07 50.73,-361.32 98,-409 99.42,-410.43 100.96,-411.76 102.59,-412.99"/>
<polygon fill="midnightblue" stroke="midnightblue" points="100.98,-416.11 111.33,-418.36 104.64,-410.14 100.98,-416.11"/>
</g>
<!-- Node4 -->
<g id="node4" class="node">
<title>Node4</title>
<g id="a_node4"><a xlink:href="help_8cpp.html#a5c779e76e21b34d6bb3b884ac1ef9083" target="_top" xlink:title=" ">
<polygon fill="white" stroke="black" points="104,-380.5 104,-399.5 190,-399.5 190,-380.5 104,-380.5"/>
<text text-anchor="middle" x="147" y="-387.5" font-family="Helvetica,sans-Serif" font-size="10.00">usage_change</text>
</a>
</g>
</g>
<!-- Node1&#45;&gt;Node4 -->
<g id="edge3" class="edge">
<title>Node1&#45;&gt;Node4</title>
<path fill="none" stroke="midnightblue" d="M34.27,-247.83C40.36,-272.08 59.29,-335.41 98,-371 99.66,-372.53 101.46,-373.94 103.35,-375.24"/>
<polygon fill="midnightblue" stroke="midnightblue" points="101.71,-378.34 112.13,-380.28 105.2,-372.27 101.71,-378.34"/>
</g>
<!-- Node5 -->
<g id="node5" class="node">
<title>Node5</title>
<g id="a_node5"><a xlink:href="help_8cpp.html#a28714bd0b194f699df903e7bd994a768" target="_top" xlink:title=" ">
<polygon fill="white" stroke="black" points="105.5,-342.5 105.5,-361.5 188.5,-361.5 188.5,-342.5 105.5,-342.5"/>
<text text-anchor="middle" x="147" y="-349.5" font-family="Helvetica,sans-Serif" font-size="10.00">usage_device</text>
</a>
</g>
</g>
<!-- Node1&#45;&gt;Node5 -->
<g id="edge4" class="edge">
<title>Node1&#45;&gt;Node5</title>
<path fill="none" stroke="midnightblue" d="M36.37,-247.76C45.31,-266.72 67.47,-308.8 98,-333 100.16,-334.72 102.5,-336.29 104.94,-337.74"/>
<polygon fill="midnightblue" stroke="midnightblue" points="103.59,-340.98 114.09,-342.43 106.79,-334.76 103.59,-340.98"/>
</g>
<!-- Node8 -->
<g id="node8" class="node">
<title>Node8</title>
<g id="a_node8"><a xlink:href="help_8cpp.html#a89a232fcf363da02884b15625ea242b1" target="_top" xlink:title=" ">
<polygon fill="white" stroke="black" points="112.5,-304.5 112.5,-323.5 181.5,-323.5 181.5,-304.5 112.5,-304.5"/>
<text text-anchor="middle" x="147" y="-311.5" font-family="Helvetica,sans-Serif" font-size="10.00">usage_end</text>
</a>
</g>
</g>
<!-- Node1&#45;&gt;Node8 -->
<g id="edge7" class="edge">
<title>Node1&#45;&gt;Node8</title>
<path fill="none" stroke="midnightblue" d="M41.04,-247.6C53.07,-259.92 75.47,-281.35 98,-295 101.18,-296.92 104.58,-298.72 108.06,-300.39"/>
<polygon fill="midnightblue" stroke="midnightblue" points="106.76,-303.64 117.32,-304.47 109.59,-297.23 106.76,-303.64"/>
</g>
<!-- Node9 -->
<g id="node9" class="node">
<title>Node9</title>
<g id="a_node9"><a xlink:href="help_8cpp.html#af1a5368922439cb186899b545fd1965e" target="_top" xlink:title=" ">
<polygon fill="white" stroke="black" points="111,-266.5 111,-285.5 183,-285.5 183,-266.5 111,-266.5"/>
<text text-anchor="middle" x="147" y="-273.5" font-family="Helvetica,sans-Serif" font-size="10.00">usage_help</text>
</a>
</g>
</g>
<!-- Node1&#45;&gt;Node9 -->
<g id="edge8" class="edge">
<title>Node1&#45;&gt;Node9</title>
<path fill="none" stroke="midnightblue" d="M60.77,-247.59C74.94,-252.31 92.24,-258.08 107.53,-263.18"/>
<polygon fill="midnightblue" stroke="midnightblue" points="106.65,-266.57 117.24,-266.41 108.86,-259.93 106.65,-266.57"/>
</g>
<!-- Node10 -->
<g id="node10" class="node">
<title>Node10</title>
<g id="a_node10"><a xlink:href="help_8cpp.html#a120f05cbb24b01b4bcae94229814418b" target="_top" xlink:title=" ">
<polygon fill="white" stroke="black" points="109,-228.5 109,-247.5 185,-247.5 185,-228.5 109,-228.5"/>
<text text-anchor="middle" x="147" y="-235.5" font-family="Helvetica,sans-Serif" font-size="10.00">usage_input</text>
</a>
</g>
</g>
<!-- Node1&#45;&gt;Node10 -->
<g id="edge9" class="edge">
<title>Node1&#45;&gt;Node10</title>
<path fill="none" stroke="midnightblue" d="M62.25,-238C73.38,-238 86.27,-238 98.56,-238"/>
<polygon fill="midnightblue" stroke="midnightblue" points="98.68,-241.5 108.68,-238 98.68,-234.5 98.68,-241.5"/>
</g>
<!-- Node11 -->
<g id="node11" class="node">
<title>Node11</title>
<g id="a_node11"><a xlink:href="help_8cpp.html#a2aa5b9213acbbf68d4d14ed00ea4ee4c" target="_top" xlink:title=" ">
<polygon fill="white" stroke="black" points="105.5,-190.5 105.5,-209.5 188.5,-209.5 188.5,-190.5 105.5,-190.5"/>
<text text-anchor="middle" x="147" y="-197.5" font-family="Helvetica,sans-Serif" font-size="10.00">usage_merge</text>
</a>
</g>
</g>
<!-- Node1&#45;&gt;Node11 -->
<g id="edge10" class="edge">
<title>Node1&#45;&gt;Node11</title>
<path fill="none" stroke="midnightblue" d="M60.77,-228.41C74.94,-223.69 92.24,-217.92 107.53,-212.82"/>
<polygon fill="midnightblue" stroke="midnightblue" points="108.86,-216.07 117.24,-209.59 106.65,-209.43 108.86,-216.07"/>
</g>
<!-- Node12 -->
<g id="node12" class="node">
<title>Node12</title>
<g id="a_node12"><a xlink:href="help_8cpp.html#ac40cf37cc9ea9b9a8f099b4974724fad" target="_top" xlink:title=" ">
<polygon fill="white" stroke="black" points="105.5,-152.5 105.5,-171.5 188.5,-171.5 188.5,-152.5 105.5,-152.5"/>
<text text-anchor="middle" x="147" y="-159.5" font-family="Helvetica,sans-Serif" font-size="10.00">usage_output</text>
</a>
</g>
</g>
<!-- Node1&#45;&gt;Node12 -->
<g id="edge11" class="edge">
<title>Node1&#45;&gt;Node12</title>
<path fill="none" stroke="midnightblue" d="M41.04,-228.4C53.07,-216.08 75.47,-194.65 98,-181 101.18,-179.08 104.58,-177.28 108.06,-175.61"/>
<polygon fill="midnightblue" stroke="midnightblue" points="109.59,-178.77 117.32,-171.53 106.76,-172.36 109.59,-178.77"/>
</g>
<!-- Node13 -->
<g id="node13" class="node">
<title>Node13</title>
<g id="a_node13"><a xlink:href="help_8cpp.html#adf57083eb4a99d6885783b9bb106890e" target="_top" xlink:title=" ">
<polygon fill="white" stroke="black" points="106,-114.5 106,-133.5 188,-133.5 188,-114.5 106,-114.5"/>
<text text-anchor="middle" x="147" y="-121.5" font-family="Helvetica,sans-Serif" font-size="10.00">usage_region</text>
</a>
</g>
</g>
<!-- Node1&#45;&gt;Node13 -->
<g id="edge12" class="edge">
<title>Node1&#45;&gt;Node13</title>
<path fill="none" stroke="midnightblue" d="M36.37,-228.24C45.31,-209.28 67.47,-167.2 98,-143 100.16,-141.28 102.5,-139.71 104.94,-138.26"/>
<polygon fill="midnightblue" stroke="midnightblue" points="106.79,-141.24 114.09,-133.57 103.59,-135.02 106.79,-141.24"/>
</g>
<!-- Node14 -->
<g id="node14" class="node">
<title>Node14</title>
<g id="a_node14"><a xlink:href="help_8cpp.html#a49223a995301022ffb657717122d88de" target="_top" xlink:title=" ">
<polygon fill="white" stroke="black" points="109.5,-76.5 109.5,-95.5 184.5,-95.5 184.5,-76.5 109.5,-76.5"/>
<text text-anchor="middle" x="147" y="-83.5" font-family="Helvetica,sans-Serif" font-size="10.00">usage_stdin</text>
</a>
</g>
</g>
<!-- Node1&#45;&gt;Node14 -->
<g id="edge13" class="edge">
<title>Node1&#45;&gt;Node14</title>
<path fill="none" stroke="midnightblue" d="M34.27,-228.17C40.36,-203.92 59.29,-140.59 98,-105 99.66,-103.47 101.46,-102.06 103.35,-100.76"/>
<polygon fill="midnightblue" stroke="midnightblue" points="105.2,-103.73 112.13,-95.72 101.71,-97.66 105.2,-103.73"/>
</g>
<!-- Node15 -->
<g id="node15" class="node">
<title>Node15</title>
<g id="a_node15"><a xlink:href="help_8cpp.html#a46c7d0d124e51b373e20ad7fc73278d4" target="_top" xlink:title=" ">
<polygon fill="white" stroke="black" points="102,-38.5 102,-57.5 192,-57.5 192,-38.5 102,-38.5"/>
<text text-anchor="middle" x="147" y="-45.5" font-family="Helvetica,sans-Serif" font-size="10.00">usage_verbose</text>
</a>
</g>
</g>
<!-- Node1&#45;&gt;Node15 -->
<g id="edge14" class="edge">
<title>Node1&#45;&gt;Node15</title>
<path fill="none" stroke="midnightblue" d="M33.02,-228.43C36.54,-199.93 50.73,-114.68 98,-67 99.42,-65.57 100.96,-64.24 102.59,-63.01"/>
<polygon fill="midnightblue" stroke="midnightblue" points="104.64,-65.86 111.33,-57.64 100.98,-59.89 104.64,-65.86"/>
</g>
<!-- Node16 -->
<g id="node16" class="node">
<title>Node16</title>
<g id="a_node16"><a xlink:href="help_8cpp.html#a33a04cbd434c5ebe2c0113f5acb2c089" target="_top" xlink:title=" ">
<polygon fill="white" stroke="black" points="109.5,-0.5 109.5,-19.5 184.5,-19.5 184.5,-0.5 109.5,-0.5"/>
<text text-anchor="middle" x="147" y="-7.5" font-family="Helvetica,sans-Serif" font-size="10.00">usage_warn</text>
</a>
</g>
</g>
<!-- Node1&#45;&gt;Node16 -->
<g id="edge15" class="edge">
<title>Node1&#45;&gt;Node16</title>
<path fill="none" stroke="midnightblue" d="M32.25,-228.24C33.59,-195.59 42.24,-88.87 98,-29 99.22,-27.69 100.54,-26.47 101.93,-25.34"/>
<polygon fill="midnightblue" stroke="midnightblue" points="104.15,-28.07 110.63,-19.69 100.34,-22.2 104.15,-28.07"/>
</g>
<!-- Node6 -->
<g id="node6" class="node">
<title>Node6</title>
<g id="a_node6"><a xlink:href="byteman_8cpp.html#a23beb5409443799c43ba81c405375f4f" target="_top" xlink:title=" ">
<polygon fill="white" stroke="black" points="232,-342.5 232,-361.5 322,-361.5 322,-342.5 232,-342.5"/>
<text text-anchor="middle" x="277" y="-349.5" font-family="Helvetica,sans-Serif" font-size="10.00">printDeviceList</text>
</a>
</g>
</g>
<!-- Node5&#45;&gt;Node6 -->
<g id="edge5" class="edge">
<title>Node5&#45;&gt;Node6</title>
<path fill="none" stroke="midnightblue" d="M188.85,-352C199.38,-352 210.88,-352 221.97,-352"/>
<polygon fill="midnightblue" stroke="midnightblue" points="222,-355.5 232,-352 222,-348.5 222,-355.5"/>
</g>
<!-- Node7 -->
<g id="node7" class="node">
<title>Node7</title>
<g id="a_node7"><a xlink:href="class_xilinx_ultra_scale_plus.html#ad7b956985959fc268e85fd2c528d81a5" target="_top" xlink:title=" ">
<polygon fill="white" stroke="black" points="358,-337 358,-367 473,-367 473,-337 358,-337"/>
<text text-anchor="start" x="366" y="-355" font-family="Helvetica,sans-Serif" font-size="10.00">XilinxUltraScalePlus</text>
<text text-anchor="middle" x="415.5" y="-344" font-family="Helvetica,sans-Serif" font-size="10.00">::printDeviceList</text>
</a>
</g>
</g>
<!-- Node6&#45;&gt;Node7 -->
<g id="edge6" class="edge">
<title>Node6&#45;&gt;Node7</title>
<path fill="none" stroke="midnightblue" d="M322.32,-352C330.49,-352 339.18,-352 347.84,-352"/>
<polygon fill="midnightblue" stroke="midnightblue" points="347.95,-355.5 357.95,-352 347.95,-348.5 347.95,-355.5"/>
</g>
</g>
</svg>
